<svg xmlns="http://www.w3.org/2000/svg" xmlns:xlink="http://www.w3.org/1999/xlink" width="95" height="92" viewBox="0 0 95 92">
    <defs>
        <linearGradient id="92lmpdz1lb" x1="50%" x2="50%" y1="14.872%" y2="119.796%">
            <stop offset="0%" stop-color="#FFF"/>
            <stop offset="100%" stop-color="#FFF"/>
        </linearGradient>
        <path id="i7plnd4tla" d="M48.135.383c-1.77 1.074-3.647 2.211-5.587 3.381-1.305.73-2.853 1.666-4.624 2.781-7.827 4.695-16.022 9.544-21.762 12.811l24.495-14.86c.149-.09.198-.284.109-.433-.089-.151-.282-.201-.433-.114L10.396 21.234c.833-.574 1.885-1.259 3.109-2.032.359-.206.828-.484 1.446-.857 1.768-.757 4.946-2.748 9.36-5.632 6.117-3.569 12.98-7.453 18.654-10.602.066-.045.13-.111.152-.193.023-.082.012-.17-.031-.243-.057-.1-.155-.17-.274-.201-.391-.098-1.521.363-3.457 1.395-.163-.002-.383.048-.665.15.006-.013.01-.026.014-.038.032-.112.019-.226-.035-.321-.045-.077-.118-.132-.205-.151-.085-.019-.177-.001-.248.047-1.22.827-2.454 1.654-3.682 2.465-.403.23-.853.486-1.355.774-1.919 1.042-4.167 2.221-6.294 3.338l-1.131.594c1.427-.968 2.808-1.907 3.883-2.639.632-.431 1.158-.791 1.526-1.044.774-.531.82-.563.671-.822-.044-.075-.125-.135-.209-.157-.17-.041-.393.027-1.742.841.023-.078-.012-.14-.062-.225-.088-.152-.282-.204-.433-.117l-5.156 2.977c-.146.085-.2.268-.125.418-2.744 1.711-6.08 3.771-8.739 5.402-.146.09-.195.281-.108.43.053.092.141.157.25.184.173.043.511-.049 1.039-.29-3.414 1.934-5.457 3.301-5.665 4.023-.056.194-.008.339.042.426.042.073.112.126.194.148.081.022.157.003.242-.034l1.85-1.086c-.039.059-.033.108-.007.167-1.139.764-1.176.902-1.205 1.01-.009.032-.013.067-.011.103-2.531 1.651-4.184 2.886-4.318 3.367-.043.155-.004.272.037.343.088.152.282.204.434.117l7.187-4.15-6.944 4.212c-.147.09-.196.282-.109.431.048.084.129.144.226.168.169.044.434.113 3.692-1.64l-.563.344c-.148.09-.197.28-.111.429.051.088.15.2.344.246.39.091 1.214-.209 2.443-.851l-1.16.725c-1.973 1.234-3.497 2.193-4.531 2.853-1.968 1.255-1.968 1.255-1.797 1.55.023.04.056.085.104.129-1.975 1.281-1.898 1.415-1.763 1.648.046.08.137.184.313.226.44.106 1.579-.371 3.361-1.349-.017.027-.03.057-.039.088-.024.083-.013.171.029.245.05.085.131.146.23.171.106.027.248.064 1.067-.298-.895.548-1.665 1.04-2.303 1.471-1.648.847-3.142 1.608-4.437 2.262-.08.041-.136.109-.161.193-.025.083-.014.174.03.25.044.074.13.174.298.215.304.076.999-.15 2.064-.651l.018.034c.042.073.111.126.193.148.046.012.094.013.139.005L1.993 34.72c-.15.089-.2.281-.113.432.041.07.106.152.211.221-.082.099-.1.242-.033.36.088.152.279.205.432.12l.741-.416c.101-.022.207-.049.319-.08.001.004.002.008.005.011.05.085.131.145.23.171.088.024.255-.008.507-.094-.409.387-.656.713-.733.977-.072.249-.013.43.05.538.054.094.164.216.382.269.45.11 1.514-.218 3.053-.89C3.228 38.453.822 39.768.762 39.801c-.072.038-.13.11-.153.193-.023.082-.012.17.03.244.07.121.213.28.497.349.455.111 1.252-.058 2.358-.478C1.495 41.574.253 42.724.042 43.43c-.089.301-.02.513.052.64.089.152.281.204.434.116l8.679-5.011c-3.589 2.387-3.695 2.777-3.753 2.992-.04.143-.002.252.036.319.074.127.177.23.311.307l-1.849 1.094c-.15.089-.201.282-.113.434.089.151.282.202.433.114l2.129-1.229c-.053.211-.002.367.054.462.087.152.281.204.434.116l3.17-1.83c1.727-.708 3.875-1.759 6.316-3.059C11.73 41.52 7.21 44.06 3.02 46.4c-.077.043-.128.11-.151.192-.022.081-.012.169.031.242.062.107.188.247.44.308l.078.018-3.072 1.836c-.147.088-.198.277-.114.428.084.15.273.206.425.127.517-.271 3.266-1.709 7.386-3.895 1.174-.55 2.651-1.29 4.521-2.285l-7.048 4.252c-.149.091-.198.283-.109.434.088.149.281.2.432.113l3.705-2.139c-4.375 2.772-4.455 3.064-4.501 3.24-.025.094-.014.191.033.273l.034.051-1.063.62c-.151.088-.202.282-.115.433.041.068.101.116.169.14-.041.047-.064.086-.073.119-.023.083-.011.187.031.261.05.086.136.191.285.271-2.007 1.528-2.137 1.985-2.21 2.244-.061.215-.01.369.042.462.043.073.113.127.194.149.082.021.168.009.241-.033l9.022-5.237c7.871-3.865 20.802-11.58 32.989-19.123 11.229-6.498 21.435-12.392 27.634-15.943-7.327 4.526-20.412 12.21-32.426 19.231-6.705 3.84-13.419 7.747-19.282 11.27-3.219 1.885-6.158 3.613-8.661 5.097-9.082 5.381-9.037 5.459-8.818 5.838.054.093.153.209.335.285-.666.576-1.06 1.019-1.14 1.306-.056.202-.009.349.043.436.026.046.06.085.102.115-.671.484-1.023.821-1.082 1.032-.033.112-.019.227.035.323.043.074.133.14.216.161.297.074 1.668-.634 5.456-2.904-.024.202.031.352.087.45.012.019.024.039.039.06-2.29 1.472-2.338 1.651-2.372 1.776-.022.082-.01.189.032.262.043.074.114.128.197.15.12.033.237.064 6.319-3.396 1.187-.626 2.619-1.448 4.288-2.451 4.991-2.863 12.366-7.122 23.269-13.446L6.699 58.895c-.15.09-.199.284-.11.433.088.15.281.202.432.114l14.419-8.325-13.968 8.24c-.151.089-.202.282-.115.433.059.101.177.233.408.288.042.01.088.017.138.02l-3.255 1.924c-.151.089-.201.282-.113.433.057.098.173.227.404.284.499.124 1.676-.214 3.528-1.014l-.011.032c-.024.083-.013.172.03.247.067.115.203.265.469.328.014.004.029.007.045.009l-2.452 1.492c-.15.091-.198.286-.108.435.09.15.278.192.435.11l4.374-2.586c3.15-1.314 8.98-4.86 17.149-10.136l.199-.117c15.975-8.717 37.516-20.785 48.359-28.221.86-.41 1.49-.675 1.859-.774-.208.272-.711.739-1.797 1.542l-37.3 22.27C22.336 56.136 5.506 65.263 5.332 65.358c-.077.039-.132.11-.154.193-.024.082-.013.171.029.245.122.208.325.349.607.414.162.039.363.049.599.032l-.861.513c-.148.089-.198.282-.111.432.042.073.115.128.197.149.033.009.067.019.233-.048l.008.012.098-.058c.388-.175 1.263-.633 3.357-1.804.7-.267 1.48-.596 2.333-.98l-.771.458c-.149.088-.199.281-.112.431.047.083.142.191.327.235.224.053.617-.031 1.18-.249-1.17.895-1.233 1.131-1.276 1.287-.04.147-.002.257.037.324.024.042.052.082.083.12l-1.486.867c-.15.088-.202.282-.114.433.052.091.158.209.368.261.47.117 1.673-.271 3.452-1.06.091.145.28.193.428.108l.85-.491c-.208.182-.383.351-.528.505l-6.596 3.809c-.15.087-.204.277-.119.429.085.152.274.207.427.126.055-.029 1.722-.922 4.518-2.432-2.64 1.608-3.904 2.495-3.986 2.796-.026.095-.014.194.034.276.044.077.117.131.203.151.085.019.173.003.247-.045.642-.431 1.297-.869 1.971-1.317-.022.096-.008.193.039.275.053.092.146.148.245.158-.225.228-.255.335-.278.417-.03.112-.017.224.037.317.02.037.048.07.081.096l-1.497.875c-.151.088-.201.281-.115.432.114.197.304.33.563.394 1.459.357 5.907-1.653 12.44-5.289l-6.699 4.017c-.149.09-.199.282-.111.431.041.074.115.13.197.15.041.012.082.023.24-.037l.001.001.004-.003c.677-.257 3.461-1.774 17.272-9.767 3.967-2.297 8.383-4.862 12.904-7.491L26.862 68.013c-1.481.87-2.862 1.697-4.132 2.479l-10.104 6.062c-.15.089-.2.281-.112.431.04.07.12.162.275.201.156.04.454-.018.887-.172-.341.386-.555.721-.635 1.001-.073.252-.052.477.059.669.071.124.216.284.504.354.115.028.251.038.407.031-.009.025-.016.049-.023.074-.078.265-.059.5.056.699.089.151.283.204.434.116l71.203-41.109c-1.596 1.28-5.505 3.915-14.621 9.307-9.023 5.336-20.536 11.845-30.693 17.588C21.25 76.553 16.048 79.573 15.871 80.221c-.023.082-.01.197.033.271.087.152.282.204.434.116l35.164-20.303-35.086 20.89c-.149.089-.2.281-.113.431.119.207.322.346.601.412.211.05.488.051.824.006.004.046.018.091.042.132.116.201.312.336.583.4.375.089.964.018 1.739-.195-.077.099-.09.238-.024.353.057.097.171.224.397.279.238.059.638.157 2.333-.509.07.082.181.167.359.211.073.018.161.038.291.043-.05.054-.076.096-.087.132-.022.083-.011.185.032.259.052.09.14.155.247.182.168.042.446.115 2.889-1.102.116.1.261.171.438.214.189.046.424.054.703.026-.046.092-.045.203.01.299.042.074.113.127.194.148.043.012.077.021.235-.049l.009.014.141-.085c.278-.138.784-.42 1.748-.976 2.67-1.022 6.702-3.174 11.714-6.122l-13.262 8.016c-.15.09-.197.283-.109.433.089.15.282.2.432.114l.001-.001c4.171-2.433 9.131-5.322 14.382-8.375-.89.575-1.78 1.154-2.671 1.733l-3.216 2.087c-4.065 2.261-8.019 4.445-11.698 6.464-.07.039-.13.11-.153.192-.023.082-.012.171.03.245.123.211.328.351.61.417 1.142.265 4.109-.889 8.173-2.936-2.969 2.01-4.84 3.516-5.043 4.231-.062.22-.011.379.044.472.088.153.282.205.434.117l7.832-4.522c-1.049.832-1.12 1.088-1.166 1.255-.044.163-.004.283.039.356.087.152.281.204.434.117l.777-.45c-.577.545-.926.989-1.019 1.322-.072.256-.01.44.052.549.042.073.112.126.193.149.169.045.169.045 8.223-4.598l.557-.321c-7.34 4.511-7.266 4.637-7.06 4.996.059.099.177.23.41.287.108.025.247.03.415.012.005.041.018.082.04.12.026.045.064.096.116.143l-.506.298c-.149.089-.199.282-.113.432.04.069.102.149.205.216-1.165.693-1.513.978-1.56 1.148-.024.083-.012.191.031.265.052.09.14.156.249.183.204.052.544.14 4.014-1.677-.147.163-.103.239-.041.345.064.112.196.258.461.32.609.143 1.999-.314 3.929-1.199l-1.147.703c-.148.09-.196.28-.109.429.041.074.115.129.197.151.13.033.205.052 2.39-1.213-.345.308-.546.55-.595.727-.044.163-.002.286.041.359.042.075.114.129.198.15.083.02.173.007.245-.039 1.503-.941 3.087-1.929 4.721-2.942-.092.111-.11.176-.124.228-.029.107-.017.213.035.302.049.088.152.202.353.249.064.016.143.021.235.015-.034.086-.027.187.023.273.054.092.147.147.245.156-3.622 2.247-3.57 2.338-3.395 2.64.042.074.113.128.197.149.083.021.171.009.244-.038 9.644-5.947 23.44-14.259 28.982-17.17-2.202 1.37-5.719 3.449-8.96 5.365-14.014 8.283-14.513 8.763-14.21 9.289.049.084.129.143.226.168.199.05.5.126 5.157-2.542-.014.035-.022.072-.023.11-4.606 2.762-4.517 2.915-4.344 3.215.053.092.142.157.251.183.483.116 1.942-.715 6.301-3.512.028.041.067.076.11.101-.278.292-.211.409-.131.546.041.075.119.132.202.154.106.027.272.07 3.32-1.69 1.543-.89 3.825-2.244 7.21-4.294.15-.091.198-.286.107-.436-.09-.148-.28-.197-.43-.11l-.025.014c.04-.09.038-.198-.017-.29-.022-.036-.049-.066-.08-.091.611-.329 1.227-.657 1.837-.98.078-.037.134-.11.158-.192.024-.083.013-.172-.031-.247-.011-.022-.026-.041-.042-.06l.273-.16c1.958-1.152 1.958-1.152 1.782-1.457-.051-.088-.154-.203-.355-.248-.058-.014-.128-.017-.207-.013.167-.117.286-.208.37-.283l.002-.002c.235-.21.19-.287.108-.428-.043-.075-.114-.129-.197-.15-.083-.021-.174-.007-.244.037-6.086 3.755-14.69 8.946-18.745 11.149 2.715-1.753 7.723-4.712 11.99-7.235 11.661-6.892 11.621-6.961 11.36-7.412-.049-.088-.135-.15-.238-.177-.082-.02-.187-.046-.564.084 1.603-.946 3.158-1.864 4.634-2.731.15-.089.2-.284.113-.434-.088-.151-.282-.203-.433-.115l-2.097 1.21c.865-.541 1.319-.847 1.545-1.044l.036-.023-.003-.006c.226-.208.179-.289.105-.419-.044-.076-.117-.13-.202-.15-.021-.005-.041-.007-.062-.008.804-.45 1.591-.888 2.356-1.312.081-.051.128-.111.151-.193.023-.082.012-.169-.032-.243-.039-.07-.12-.162-.276-.201-.113-.029-.281-.07-.936.168.082-.091.131-.169.148-.232.028-.103.016-.21-.035-.299-.042-.073-.127-.136-.211-.158-.134-.036-.546.113-1.373.526 1.174-.791 2.031-1.457 2.528-1.989l3.798-2.325c.147-.09.196-.281.109-.429-.05-.089-.135-.151-.239-.177-.168-.043-.448-.115-3.212 1.321 1.449-.968 2.578-1.801 3.334-2.476l.315-.192c.093-.057.146-.151.152-.252.332-.343.535-.632.6-.862.069-.242.012-.418-.049-.522-.044-.076-.116-.13-.202-.151-.084-.019-.177-.005-.247.044-.022.016-.456.301-1.226.804.051-.093.053-.21-.005-.31-.05-.089-.146-.201-.317-.27.625-.403 1.108-.718 1.429-.925.144-.092.188-.281.101-.428-.086-.147-.273-.199-.424-.119-1.548.828-6.825 3.659-13.399 7.26 3.659-2.161 7.222-4.258 10.501-6.182.151-.089.201-.283.114-.434-.089-.152-.282-.203-.433-.116h-.001C71.49 67.07 42.062 84.102 37.396 86.74c.421-.533 1.571-1.574 4.545-3.588l41.126-23.744c6.409-3.546 6.664-3.747 6.73-3.982.023-.082.011-.179-.032-.252-.087-.151-.281-.204-.434-.116l-6.62 3.823-3.784 2.086c-15.066 8.302-29.912 16.59-37.388 21.685l-3.042 1.755c1.642-1.211 4.502-3.056 8.176-5.314l46.986-27.128c.153-.087.205-.281.119-.432-.086-.151-.278-.206-.431-.12-.14.078-14.191 7.904-28.142 15.973-8.575 4.957-14.59 8.537-18.814 11.136l-16.092 9.291c.496-.491 1.45-1.265 3.213-2.485.011.006.023.009.035.012.035.01.071.019.233-.046l.006.011.079-.046c.995-.437 5.454-2.905 27.967-15.989 13.71-7.968 27.538-16.056 27.676-16.136.149-.087.2-.279.116-.43-.084-.15-.275-.206-.427-.123-1.063.57-3.586 1.931-7.025 3.804.537-.329 1.054-.647 1.55-.954 9.434-5.822 9.334-5.995 9.116-6.373-.043-.073-.113-.126-.194-.148-.082-.022-.18-.014-.242.033-3.611 2.12-7.773 4.563-12.212 7.161l1.59-1.042c2.604-1.497 4.949-2.841 6.908-3.962l.001-.001c.073-.042.126-.111.147-.192.023-.081.011-.168-.03-.241-.035-.062-.079-.118-.129-.168l.295-.197c.143-.095.184-.287.093-.433-.091-.144-.28-.191-.428-.105l-.002.001-.356.209.019-.063c.045-.161.005-.283-.038-.356-.042-.074-.113-.128-.195-.149-.093-.025-.176-.048-2.811 1.426-1.29.481-2.905 1.226-4.787 2.194l13.621-8.232c.148-.089.197-.281.111-.43-.043-.074-.125-.136-.207-.158-.238-.062-.555-.146-13.25 7.169 2.376-1.427 4.482-2.734 6.259-3.897l4.552-2.736c.148-.089.198-.281.111-.43-.021-.036-.046-.068-.076-.095 1.08-.882 1.718-1.57 1.848-2.036.072-.255.012-.439-.05-.547-.043-.075-.115-.129-.2-.15-.085-.02-.173-.006-.247.041-.093.061-5.428 3.471-13.09 8.275-2.043 1.078-4.424 2.339-7.023 3.726 9.951-6.186 17.406-10.927 17.515-10.997.147-.093.192-.286.101-.435-.021-.031-.045-.059-.073-.082l.611-.357c.151-.089.204-.283.115-.434-.024-.041-.056-.075-.093-.101 1.337-.883 2.195-1.454 2.458-1.628.142-.096.184-.287.092-.433-.067-.108-.188-.161-.307-.147.054-.098.054-.218-.009-.318-.09-.147-.283-.181-.431-.106l-1.339.785c.145-.202.24-.382.286-.54.07-.24.053-.454-.053-.636-.043-.075-.116-.129-.202-.149-.085-.021-.179-.005-.249.044-6.547 4.322-14.818 9.692-23.454 15.168L30.44 75.073c-4.056 2.176-7.89 4.213-11.335 6.027-.819.261-1.451.382-1.872.347l75.289-44.824c.15-.089.201-.284.111-.434-.088-.15-.28-.201-.432-.114l-7.903 4.563c1.836-1.292 2.886-2.203 3.015-2.673.05-.184.005-.319-.042-.401-.088-.151-.282-.203-.434-.116L41.557 63.59c3.77-2.403 7.858-5.034 12.233-7.857 5.628-3.632 11.05-7.132 15.906-10.194 6.881-3.726 13.402-7.193 18.848-10.045.075-.04.132-.109.156-.193.026-.083.015-.172-.029-.248-.03-.051-.077-.112-.146-.166 1.327-.841 1.989-1.374 2.071-1.658.03-.111.019-.223-.036-.317-.087-.152-.281-.204-.433-.116l-5.488 3.169c-.431.212-.895.451-1.394.715 2.038-1.207 3.772-2.236 5.112-3.035.982-.584 1.752-1.046 2.277-1.363.262-.158.464-.281.599-.364.229-.143.466-.289.309-.56-.053-.093-.144-.159-.254-.187-1.216-.311-12.802 6.64-37.111 21.466-1.169.711-2.356 1.436-3.555 2.167-1.783.962-3.518 1.901-5.21 2.821l40.76-24.454c.11-.064.17-.19.152-.316-.018-.126-.109-.23-.234-.263-.037-.01-.067-.018-.231.056l-.013-.021-.286.172c-1.18.623-5.246 2.993-20.248 11.742-7.479 4.362-16.441 9.588-24.679 14.374L85.668 31.91c.15-.089.199-.282.11-.432-.088-.151-.282-.202-.432-.115l-13.845 7.994c.982-.578 1.929-1.137 2.838-1.675 12.3-7.288 12.12-7.599 11.874-8.027-.052-.086-.133-.148-.235-.173-.186-.045-.667.136-1.529.588-.041-.044-.094-.075-.15-.09.865-.572 1.558-1.06 2.067-1.462l1.672-.964c.151-.088.204-.281.117-.432-.086-.152-.278-.206-.431-.121l-.328.184c-.011-.035-.025-.065-.039-.09-.016-.027-.032-.053-.051-.078.538-.411.834-.703.88-.867.028-.107.016-.215-.036-.304-.088-.152-.282-.204-.434-.116l-1.442.833c-.046-.002-.094-.003-.143-.002-.008-.025-.019-.05-.032-.072-.088-.152-.282-.204-.434-.117l-.55.318c-.498.105-1.072.27-1.721.495-.009-.02-.017-.038-.026-.053-.088-.153-.283-.204-.434-.117l-1.871 1.08c-.652.279-1.349.594-2.084.939l.433-.27c5.427-2.974 7.757-4.426 7.916-4.98.031-.109.02-.221-.034-.314-.022-.038-.052-.069-.085-.095l.376-.252c.143-.096.184-.287.093-.432-.09-.145-.28-.192-.427-.106l-.002.001L61.64 37.55c-10.141 5.382-21.178 11.262-30.148 16.407 15.772-9.453 37.948-22.26 55.146-32.036.061-.045.126-.112.149-.194.022-.081.011-.168-.032-.242-.131-.227-.349-.379-.649-.45-.159-.039-.351-.051-.572-.038-.006-.015-.012-.029-.021-.043-.089-.15-.279-.188-.434-.114l-.573.335c-.846.218-1.919.626-3.183 1.195 1.026-.673 1.691-1.111 1.926-1.266.144-.094.186-.287.095-.434-.092-.145-.289-.193-.432-.103L79.504 22.6c.021-.039.035-.076.045-.11.054-.191.008-.33-.04-.414-.055-.094-.148-.163-.262-.192-.052-.013-.114-.028-.226-.019.306-.224.6-.44.88-.652l5.418-3.202c.15-.088.2-.281.113-.432-.137-.239-.365-.397-.677-.47-.248-.059-.564-.057-.947.003-.002-.134-.035-.258-.099-.369-.043-.074-.114-.129-.199-.15-.129-.032-.138-.034-2.354 1.356-1.06.44-2.296 1.032-3.681 1.757l2.247-1.33c.149-.089.201-.281.113-.432-.081-.14-.192-.253-.334-.336l.94-.555c.151-.089.202-.282.114-.434-.089-.151-.282-.202-.433-.115l-1.619.935c-.756.059-1.82.389-3.146.947l2.036-1.223c.151-.09.2-.283.111-.434-.09-.15-.282-.2-.433-.113l-.001.001-3.639 2.121c.141-.112.274-.22.398-.325 3.064-1.757 5.828-3.341 8.17-4.679.081-.03.127-.112.149-.192.022-.082.011-.169-.032-.243-.137-.237-.365-.395-.676-.469-.319-.076-.753-.053-1.289.058.004-.158-.041-.278-.088-.359-.043-.075-.113-.128-.196-.149-.082-.021-.175-.008-.243.036l-2.594 1.569c-2.238.985-5.123 2.534-8.468 4.475l-.154.079c4.856-3.09 7.944-5.083 8.016-5.13.144-.092.187-.281.1-.429-.088-.147-.276-.198-.425-.115-1.335.732-4.527 2.488-8.875 4.902 11.775-7.087 11.611-7.371 11.39-7.753-.042-.073-.112-.127-.194-.148-.151-.041-.21-.056-6.581 3.598.747-.529 1.399-1.018 1.947-1.462l1.557-.843c.077-.04.13-.11.154-.193.023-.082.012-.17-.03-.245-.035-.062-.089-.111-.154-.141.102-.119.189-.232.261-.338.058-.047.095-.111.111-.18.052-.096.091-.185.115-.269.081-.284.015-.487-.054-.607-.088-.152-.283-.204-.434-.116l-.342.196c-.006-.022-.017-.043-.03-.064-.089-.149-.28-.198-.431-.112l-.001.001L6.445 48.815c5.298-3.795 34.793-21.045 55.437-33.002l13.279-7.666c.151-.087.204-.282.116-.433-.088-.153-.281-.205-.434-.118-.091.052-4.898 2.819-11.928 6.888l-.437.252c2.17-1.466 3.857-2.725 4.899-3.696l.416-.251c.114-.068.17-.196.151-.319.318-.354.519-.654.589-.896.083-.282.018-.485-.051-.603-.006-.012-.015-.024-.024-.037 2.207-1.541 2.297-1.87 2.352-2.068.043-.15.003-.264-.036-.333-.088-.151-.282-.203-.434-.116l-.476.276c.017-.197-.035-.344-.091-.442-.088-.151-.282-.203-.434-.115l-6.406 3.697 1.553-1.043-.005-.008c.127-.099.21-.227.102-.415-.044-.076-.118-.13-.203-.151-.086-.019-.174-.003-.247.045-.476.293-28.427 16.836-46.067 27.274-4.468 2.436-7.757 4.354-9.687 5.733l-1.796 1.063c-.119-.001-.226-.012-.319-.034-.062-.014-.107-.032-.14-.051.928-1.209 10.188-6.931 22.114-13.999 5.468-3.104 11.16-6.391 16.267-9.45l21.3-12.299c.152-.087.205-.281.117-.433-.086-.152-.28-.204-.432-.118-.04.023-1.157.657-3.057 1.742-.005-.016-.013-.032-.022-.047-.082-.151-.269-.21-.422-.131-.199.1-.756.383-1.613.822.729-.64 1.169-1.145 1.265-1.485.065-.229.01-.395-.047-.493-.086-.152-.281-.203-.434-.116l-3.279 1.894c.536-.328.954-.583 1.275-.784 4.671-2.759 6.683-4.105 6.796-4.518.026-.098.014-.197-.034-.281-.043-.075-.13-.173-.295-.213-.402-.098-1.508.36-3.296 1.331.036-.067.064-.127.078-.182.059-.207.009-.358-.043-.448-.043-.074-.115-.128-.199-.149-.086-.02-.172-.004-.247.041-.036.024-1.053.674-2.79 1.775-.009-.081-.036-.146-.063-.194-.044-.073-.127-.136-.21-.158-.097-.025-.216-.057-1.351.51.206-.221.361-.421.464-.601l1.897-1.037c.077-.04.131-.111.154-.193.023-.083.012-.171-.031-.246-.042-.072-.123-.133-.205-.154-.144-.037-.59.139-1.757.772-.092-.14-.278-.186-.426-.102l-3.62 2.091.001-.008c.028-.102.016-.206-.034-.293-.055-.096-.147-.165-.26-.197l3.887-2.297c.149-.089.2-.281.114-.433-.02-.032-.045-.062-.074-.085.533-.428.838-.753.9-.975.047-.166.004-.291-.04-.367-.046-.079-.138-.184-.316-.229-.56-.138-2.281.619-5.054 2.147-.029.007-.054.021-.083.035-.065.041-.13.079-.195.119-1.247.692-2.696 1.532-4.335 2.508.427-.397.687-.716.752-.944.057-.201.008-.348-.043-.436-.051-.088-.149-.2-.329-.261 1.46-.845 2.886-1.669 4.259-2.46.073-.043.127-.113.148-.194.021-.081.009-.167-.032-.241-.049-.085-.131-.146-.23-.171-.431-.105-2.196.866-7.377 4.092-2.508 1.246-6.301 3.533-11.134 6.587-1.838 1.073-3.721 2.172-5.598 3.272-5.616 3.289-10.295 6.053-13.959 8.245 8.852-5.524 23.372-14.495 32.415-20.069.146-.09.194-.281.109-.429-.062-.108-.187-.247-.431-.304-.088-.02-.192-.028-.312-.02l1.737-1.06c.149-.092.198-.287.106-.436-.059-.098-.167-.152-.275-.152-.056 0-.112.015-.16.046zm5.377 3.082c.036-.121.051-.235.043-.343 2.08-1.152 3.582-1.884 4.217-1.992-.499.576-2.324 1.776-4.939 3.342.365-.392.597-.731.679-1.007zm-25.535 10.33c2.676-1.776 5.409-3.589 7.946-5.225l7.379-4.498c1.48-.808 2.361-1.188 2.884-1.357C43.56 4.335 35.2 9.493 26.938 14.61l-3.059 1.896c1.276-.84 2.643-1.746 4.098-2.711zm32.559-8.391c1.873-1.098 3.323-1.89 4.178-2.245-.873.622-2.563 1.67-4.816 3.011-.03-.015-.065-.027-.104-.037-.054-.014-.121-.017-.2-.012.342-.253.657-.491.942-.717zm-21.481 6.433c6.465-3.865 11.942-7.178 13.701-8.244-.385.619-1.393 1.506-2.876 2.59-1.095.627-2.347 1.348-3.784 2.176-4.009 2.259-8.551 4.75-12.809 7.082 1.907-1.196 3.852-2.412 5.768-3.604zM17.409 23.019c5.352-3.141 12.409-7.576 20.348-12.602 1.948-1.234 3.916-2.48 5.759-3.639l3.529-2.046c.99-.434 1.399-.499 1.567-.47-.244.603-2.859 3.026-19.879 12.819-7.465 4.291-14.977 8.427-18.179 10.178 1.841-1.081 4.139-2.512 6.855-4.24zM60.928 4.314c-.151.131-.326.278-.53.441-.766.444-1.611.947-2.535 1.508 1.231-.78 2.267-1.44 3.065-1.949zM53.95 6.471l2.293-1.263c-.393.326-.871.688-1.422 1.081-1.965 1.08-4.917 2.75-9.381 5.326-1.516.875-3.207 1.856-5.093 2.953 5.024-3.008 9.962-5.961 13.603-8.097zm1.049.445c1.436-.795 2.518-1.374 3.161-1.683-.104.099-.231.208-.379.326-1.362.861-3.01 1.902-4.871 3.073-1.635.937-3.542 1.986-5.601 3.094 3.208-1.865 5.832-3.493 7.69-4.81zm-2.273-1.145c-.837.628-2.422 1.656-4.567 2.982l-7.754 4.476c5.528-3.539 10.381-6.571 12.321-7.458zm1.726 9.693l14.59-8.424c-.051.074-.111.15-.18.23l-16.009 9.243 1.599-1.049zm6.197-8.196c-.453.487-1.384 1.279-3.208 2.569-3.115 1.602-7.574 3.912-12.645 6.584l15.853-9.153zm7.031 2.578c-.084.114-.185.238-.306.369-.14.039-.345.113-.661.253l.967-.622zm-2.954.545c-2.649 1.69-6.284 3.761-10.419 6.016l10.419-6.016zm-43.494 1.637l-.672.455-.759.41c.439-.263.915-.551 1.431-.865zm58.634 1.556c.585-.156 1.048-.209 1.374-.147l-2.948 1.688c.747-.609 1.277-1.124 1.574-1.541zm-17.032.197c-4.865 3.33-12.744 8.011-21.637 13.054l21.637-13.054zm12.182 2.586c-.046-.081-.135-.185-.302-.244l2.709-1.635c.462-.203.893-.38 1.29-.529-.745.707-1.982 1.629-3.609 2.722-.004-.136-.045-.242-.088-.314zM6.482 38.76c4.216-2.115 10.56-5.923 18.448-10.87l1.55-.894c7.841-4.339 16.426-8.905 24.148-12.927L4.217 40.865c-.151.086-.204.279-.118.43.014.025.03.047.05.067L.804 43.294c.593-.944 2.633-2.525 5.678-4.534zm1.578-4.436c6.013-3.576 12.974-7.696 19.778-11.698 1.898-.988 3.818-1.983 5.72-2.97 3.814-1.976 7.265-3.769 10.311-5.375-3.145 1.951-6.486 4.01-9.838 6.051C9.118 35.505 4.816 36.82 4.159 36.621c.005-.194.355-.805 3.046-2.574.119-.062.239-.128.363-.194-.03.162.011.281.055.357.041.073.112.127.194.149.026.006.052.009.078.009.058 0 .116-.015.165-.044zm59.839-19.119c.537-.294 1.049-.573 1.537-.838-1.902 1.246-4.197 2.66-6.774 4.19 1.909-1.218 3.67-2.345 5.237-3.352zm-7.657-.608l.155-.087-.377.228.222-.141zM15.939 15.77c.587-.339 1.211-.692 1.862-1.055l.01.015-4.594 2.693c.735-.482 1.666-1.044 2.722-1.653zm31.583 16.635c10.165-6.039 19.796-11.826 25.882-15.493.61-.21.92-.245 1.066-.202 0 .013-.005.03-.01.053-.05.171-.197.382-.432.628-.963.626-2.034 1.299-3.195 2.011-4.651 2.671-10.431 5.993-16.609 9.558-2.661 1.475-5.406 2.981-8.163 4.483l-.664.346 2.125-1.384zM30.925 18.352c.856-.473 1.709-.949 2.554-1.423-1.308.844-2.666 1.719-4.046 2.606-1.609.931-3.197 1.857-4.736 2.763L5.718 33.256l25.207-14.904zm52.684-.587c.392-.077.714-.095.958-.047l-1.758 1.039c.365-.375.635-.707.8-.992zm-2.65 1.058l.665-.418c.379-.153.732-.283 1.054-.389-.534.639-1.479 1.469-2.771 2.456l-8.64 5.107c-2.722 1.484-6.402 3.552-11.386 6.43l-1.284.742c6.817-4.205 14.27-8.848 22.362-13.928zM36.984 42.686l41.755-24.628c.084.002.161.01.232.024L33.727 44.831c1.057-.696 2.143-1.41 3.257-2.145zm-15.167 1.765c3.483-2.038 7.235-4.23 11.042-6.453l5.418-3.164 1.454-.835c10.423-5.972 20.905-11.836 27.978-15.768-2.598 1.654-5.678 3.605-9.055 5.73-9.247 5.368-21.685 13.009-35.279 21.414-2.738 1.483-5.175 2.835-7.279 4.049-1.011.584-1.944 1.135-2.797 1.655-3.949 2.087-6.289 3.127-7.678 3.629 2.541-1.834 7.321-4.953 16.196-10.257zm19.028-20.184c4.152-2.17 7.948-4.169 11.327-5.986-7.672 4.542-17.007 9.93-26.388 15.275 4.848-2.876 10.068-6.119 15.061-9.289zm-20.877-5.972c-2.244 1.443-4.282 2.704-5.745 3.502l5.745-3.502zm56.556.286L53.641 31.793c9.596-6.167 18.446-11.554 22.883-13.212zm-22.851 4.446c2.118-1.173 4.153-2.296 6.075-3.355-3.025 1.924-6.155 3.9-9.314 5.878-5.06 2.816-10.424 5.732-15.61 8.523 6.619-3.908 13.093-7.704 18.849-11.046zM21.31 19.765c-1.444.932-2.882 1.855-4.272 2.739-2.201 1.29-3.908 2.239-5.23 2.934 2.589-1.57 5.851-3.515 9.502-5.673zm52.511 2.668c.677-.391 1.334-.764 1.964-1.115-5.346 3.348-13.004 8.127-21.348 13.249 7.118-4.644 13.968-9.008 19.384-12.134zm-29.594-1.065c-.67.429-1.338.858-2.012 1.287l-3.256 1.88-2.217 1.154 7.485-4.321zm40.634.341c.409-.086.743-.114.997-.076-2.087 1.188-10.941 6.235-21.813 12.512-1.383.798-2.797 1.616-4.236 2.448l25.052-14.884zm-37.578.297c-3.394 2.118-6.981 4.337-10.577 6.536-7.11 4.348-13.179 7.954-18.114 10.764-2.593 1.398-5.135 2.761-7.584 4.065 12.146-7.232 25.555-15.15 36.275-21.365zm29.356 3.42c1.765-.966 3.346-1.778 4.698-2.402l-9.85 5.74c1.903-1.228 3.637-2.353 5.152-3.338zm-5.319.859c-6.169 3.892-14.198 8.598-22.753 13.449L71.32 26.285zM7.969 27.802c.247-.059.537-.152.866-.275-.924.522-1.692.925-2.254 1.171.362-.243.829-.543 1.388-.896zm78.634-.272c-.068.072-.153.153-.254.241l-.558.314c.298-.199.568-.384.812-.555zM10.934 59.044c2.307-1.145 5.716-3.19 10.125-5.986l42.729-25.261c-6.595 4.159-14.057 9.085-21.42 13.946l-3.009 1.985-.506.305C14.777 58.471 7.736 61.63 5.757 62.105l5.177-3.061zm51.115-19.237l19.574-11.301c.178-.076.353-.147.522-.217-.105.1-.225.208-.364.326L61.94 40.07l-2.008 1.086 2.117-1.349zM77.97 28.743l-.757.498-1.284.694 2.041-1.192zM31.687 42.766c6.029-3.519 12.57-7.312 19.012-11.036 1.539-.809 3.017-1.588 4.425-2.335-8.993 5.227-18.387 10.68-26.579 15.418 1.016-.659 2.063-1.341 3.142-2.047zM7.59 36.77c3.367-1.86 7.687-4.26 12.426-6.924-4.144 2.438-8.129 4.78-11.661 6.854-.921.467-1.649.793-2.141.944.33-.222.794-.517 1.376-.874zm71.232-5.172l2.27-1.31c-.858.516-1.785 1.069-2.772 1.651l.502-.341zm4.809-.362l.272-.156c-1.897 1.264-5.206 3.28-9.342 5.734 3.812-2.404 7.036-4.403 9.07-5.578zm-36.531.683l-.062.041-.081.048.143-.089zm-23.522 1.37c.835-.443 1.69-.893 2.56-1.352L9.504 41.541c-.224.089-.438.171-.642.244l14.716-8.496zm-1.242 8.18c4.695-2.501 9.357-4.993 13.863-7.424-9.648 5.59-18.997 11.013-25.426 14.744-1.101.534-2.08.977-2.921 1.32 4.534-2.714 9.445-5.645 14.484-8.64zm61.027-5.652c.876-.505 1.694-.973 2.448-1.396-4.107 2.44-10.269 6.084-17.212 10.186 5.579-3.377 10.767-6.482 14.764-8.79zM14.799 65.659l47.15-27.554 2.178-1.155 1.911-1.015c-8.2 4.697-17.735 10.576-26.664 16.23l-8.456 4.883c-2.905 1.638-5.499 3.133-7.739 4.467l-6.62 3.822c-.791.405-1.49.754-2.105 1.051-.12.039-.235.075-.348.109.158-.25.39-.53.693-.838zm30.654-29.306l-2.119 1.391-5.025 2.901 7.144-4.292zM5.128 38.129c.055.08.152.172.323.214.027.007.056.011.089.015-.07.058-.108.141-.113.227-1.653.804-2.913 1.297-3.664 1.392.796-.435 1.94-1.063 3.365-1.848zm85.815.824c-.258.386-.731.871-1.398 1.446l-8.151 4.782c4.661-3.017 8.106-5.279 9.549-6.228zM7.664 56.257c-.003-.028.006-.063.012-.085.056-.191.219-.425.481-.699 1.471-.888 3.248-1.972 5.383-3.285 3.48-1.943 8.084-4.572 14.194-8.129l2.774-1.493 1.842-.99-.908.594C17.584 50.255 10.954 54.254 7.768 56.271c-.042-.001-.077-.006-.104-.014zm40.913-4.396c5.624-3.313 11.248-6.647 16.316-9.661-.252.16-.507.321-.763.485-1.358.865-2.763 1.761-4.204 2.677-3.947 2.284-8.029 4.637-11.987 6.918l-3.486 2.008c1.322-.776 2.695-1.584 4.124-2.427zm43.849-9.256c-.359.393-1.026.999-2.266 1.919-.464.225-1.055.544-1.787.968-.278.161-.577.336-.897.527-.096-.077-.231-.095-.346-.035l-.168.088c2.534-1.603 4.438-2.812 5.464-3.467zm-81.621.152L4.9 46.275c-.312.107-.558.177-.753.222 1.165-.653 3.515-1.97 6.658-3.74zm28.701 4.465c2.395-1.346 4.802-2.706 7.188-4.062l-.331.214c-4.86 2.82-9.62 5.58-14.074 8.157l7.217-4.309zm-22.602 21.4l29.322-16.929c4.943-2.726 9.541-5.268 13.736-7.602L14.165 70.852c-.9.468-1.616.823-2.128 1.051.851-.682 2.529-1.806 4.867-3.281zm13.633-13.384c5.056-2.92 10.836-6.103 16.704-9.273L17.979 63.064c2.986-2.14 7.396-4.846 12.558-7.826zm-5.126-5.725c-1.621 1.05-3.177 2.05-4.648 2.982l-10.175 6.016c-.814.408-1.386.656-1.79.8l16.613-9.798zm.041 21.357l35.373-20.423c-2.329 1.494-4.79 3.081-7.379 4.752-15.207 9.813-32.193 20.776-37.964 22.884 1.588-1.623 5.148-4.144 9.97-7.213zM4.915 50.932c.178-.117.425-.266.733-.447-.223.157-.431.307-.625.448h-.046l-.062-.001zm1.83-.437c.009.01.019.018.028.025l-.127.044.099-.069zm10.919.514c-.119.075-.239.149-.358.222-.701.433-1.353.829-1.956 1.192l-1.365.782c1.139-.684 2.369-1.416 3.679-2.196zm30.248 2.699l4.497-2.595-8.317 4.988c1.252-.781 2.526-1.579 3.82-2.393zM5.289 51.523c.375-.054.84-.173 1.385-.354l-3.386 1.964c.381-.367 1.006-.882 2.001-1.61zm49.878 17.386c12.889-7.483 25.304-14.661 30.444-17.557.148-.055.291-.105.43-.151-.23.167-.484.345-.759.534l-39.304 23.11-.329.184c2.962-1.918 6.196-4.004 9.518-6.12zm7.697-6.389c6.458-3.785 12.899-7.545 18.236-10.62L48.561 71.565c4.356-2.689 9.181-5.752 14.303-9.045zm-34.346-8.074l-9.106 5.41c-1.33.725-2.59 1.395-3.768 2.001 3.166-1.812 7.349-4.218 12.874-7.411zm28.649 8.711c2.243-1.363 4.48-2.731 6.673-4.078 2.892-1.57 5.702-3.08 8.316-4.477-4.117 2.559-8.544 5.289-12.985 7.991-2.346 1.429-4.586 2.783-6.72 4.063-4.337 2.377-8.576 4.683-12.464 6.797l-1.984 1.079c4.869-2.793 11.122-6.487 19.164-11.375zM4.702 54.639c-.229.173-.443.339-.643.498-.047.005-.087.008-.125.009.187-.13.444-.3.768-.507zm-.468 1.118c.374-.046.936-.183 1.83-.517-.906.532-1.675.998-2.313 1.401-.321.139-.579.238-.767.293.161-.228.522-.595 1.25-1.177zm64.243 7.929c4.412-2.576 8.631-5.044 12.276-7.178-3.493 2.137-7.548 4.59-11.831 7.165-1.121.624-2.26 1.258-3.413 1.903 1.003-.636 1.994-1.268 2.968-1.89zM6.175 65.624c2.384-1.295 8.043-4.373 15.22-8.328l-13.36 7.977c-.735.232-1.32.354-1.739.354-.042 0-.083-.001-.121-.003zm81.935-5.919l.437-.282.094-.028-.531.312v-.002zm2.441-.031c-.049.047-.099.096-.155.147l-.789.47.944-.617zm-35.75 20.664c1.015-.591 2.054-1.203 3.11-1.829 2.288-1.349 4.9-2.909 7.884-4.712 3.408-2.058 6.799-4.132 9.868-6.022l13.45-7.921c-3.109 2.029-9.422 6.125-16.514 10.592-2.099 1.256-4.264 2.552-6.423 3.846l-3.783 2.271c-3.593 1.959-7.135 3.87-10.356 5.608-.245.131-.483.261-.72.389 1.091-.688 2.254-1.43 3.484-2.222zM12.468 60.237l-1.99 1.207c-.259.095-.489.168-.69.218l2.68-1.425zm6.744.477c-.928.583-1.747 1.107-2.474 1.578-1.283.756-2.385 1.377-3.264 1.83l5.738-3.408zm41.968 6.238c3.66-2.095 6.821-3.927 9.556-5.529l1.127-.65c-1.155.744-2.319 1.492-3.495 2.243-12.486 7.289-25.165 14.651-32.678 18.918 6.11-3.69 15.747-9.329 25.49-14.982zm-37.482 3.7l2.709-1.625c3.762-2.227 8.119-4.693 12.73-7.243-7.989 4.831-15.498 9.305-20.431 12.04 1.425-.959 3.108-2.025 4.992-3.172zm-12.022-3.943c.368-.517 2.296-1.883 5.378-3.87.386-.227.79-.466 1.213-.72-1.6 1.123-2.87 2.12-3.732 2.957l-2.83 1.654-.029-.021zm69.353-3.313c.64-.387 1.229-.738 1.776-1.057l-1.406.892-2.23 1.306c.641-.398 1.262-.778 1.86-1.141zm-30.044 1.636c-6.88 4.183-13.367 8-18.733 10.95l18.733-10.95zM10.28 73.858l4.321-2.525c2.041-1.061 5.319-2.856 10.619-5.878l-.407.24c-9.59 5.665-10.344 6.36-10.225 6.746-1.982.907-3.452 1.418-4.253 1.418l-.055-.001zm3.121-7.384c-.041.082-.075.162-.101.238-.159.036-.309.064-.451.084l.552-.322zm32.486 16.858c2.517-1.547 5.599-3.415 9.02-5.471 5.523-3.227 12.219-6.995 18.976-10.724-2.292 1.475-4.812 3.119-7.55 4.914l-24.53 14.357-.039.007c.382-.54 1.857-1.619 4.123-3.083zm-18.612-1.48c3.561-1.827 10.754-5.832 25.503-14.539L29.274 81.445c-.775.27-1.395.414-1.834.414-.058 0-.113-.002-.165-.007zM11.773 67.426c.093.02.194.033.306.039-.419.17-.757.295-1.029.383l.723-.422zm67.643.586c-2.512 1.627-5.488 3.541-8.644 5.538-2.523 1.355-5.142 2.737-7.68 4.071 5.88-3.515 11.629-6.907 16.324-9.609zm3.194.108c-.176.109-.362.221-.552.336-.315.166-.653.348-1.013.544.565-.32 1.088-.614 1.565-.88zm1.134.759c-.669.437-1.361.887-2.071 1.346-5.663 3.503-19.296 11.656-26.872 16.171-.89.421-1.561.681-1.958.746 2.21-1.968 18.411-11.278 30.901-18.263zm-39.27 4.45l.029-.018c-2.07 1.25-4.043 2.414-5.871 3.456l5.842-3.438zM13.752 78.42c-.031-.007-.085-.025-.102-.052-.022-.039-.021-.099.001-.179.128-.445.704-1.083 1.657-1.879 1.013-.486 2.308-1.165 3.874-2.029.014.01.029.019.047.026-2.374 1.698-4.059 3.099-4.821 4.092-.159.03-.3.046-.421.046-.089 0-.167-.008-.235-.025zm32.916-2.056c-1.758 1.04-3.446 2.052-5.032 3.02-2.132 1.216-4.125 2.317-5.926 3.268 2.553-1.447 6.077-3.467 10.958-6.288zm27.652 2.004c.413-.225.79-.421 1.125-.584-.66.388-1.476.864-2.361 1.379l1.236-.795zm-28.853 9.899c2.489-1.52 5.164-3.146 7.928-4.817 2.32-1.24 4.935-2.612 7.518-3.968l1.797-.944-5.336 3.267c-2.84 1.686-5.309 3.097-7.384 4.22-4.697 2.541-6.517 3.132-7.221 3.225.453-.298 1.21-.775 2.222-1.403-.03.107-.017.215.036.307.043.074.113.127.196.149.028.007.056.011.083.011.056 0 .111-.015.161-.047zm-30.692-9.324c.117-.03.241-.064.371-.104l-.462.268c.026-.053.056-.108.091-.164zm8.721 2.157c.812-.357 1.697-.771 2.65-1.238.224-.077.458-.161.702-.253l-2.845 1.694c-1.263.575-2.077.879-2.598 1.019l2.091-1.222zm-4.719.89l.827-.436c.957-.329 2.106-.805 3.417-1.408.114.088.253.152.42.191.025.005.05.011.076.015l-.659.385c-1.872.808-3.259 1.254-4.04 1.254l-.041-.001zm5.547-.138c.685-.313 1.501-.703 2.469-1.19-.015.017-.031.034-.044.051-.427.241-.802.454-1.132.644l-.68.397c-.413.152-.725.247-.962.305l.349-.207zm2.094 4.58c.495-.271 1.32-.726 2.42-1.332-.001.055.012.112.042.163.037.063.101.117.17.144-.367.285-.389.368-.407.436-.01.032-.012.069-.01.106-.9.317-1.608.487-2.094.487-.042 0-.082-.001-.121-.004zm21.356-1.237c-.785.445-1.536.868-2.245 1.265-.354.179-.688.345-1.003.5 1.006-.55 2.098-1.142 3.248-1.765zm-6.68 1.137c-.015.031-.027.061-.035.089-.051.182-.007.315.039.395l.002.004-.591.345c-.533.195-.88.282-1.104.306.336-.249.911-.635 1.689-1.139z"/>
    </defs>
    <g fill="none" fill-rule="evenodd">
        <g>
            <g>
                <g transform="translate(-260 -2306) translate(260 2306) translate(0 .663)">
                    <mask id="e9wy4sdrxc" fill="#fff">
                        <use xlink:href="#i7plnd4tla"/>
                    </mask>
                    <path fill="url(#92lmpdz1lb)" d="M48.135.383c-1.77 1.074-3.647 2.211-5.587 3.381-1.305.73-2.853 1.666-4.624 2.781-7.827 4.695-16.022 9.544-21.762 12.811l24.495-14.86c.149-.09.198-.284.109-.433-.089-.151-.282-.201-.433-.114L10.396 21.234c.833-.574 1.885-1.259 3.109-2.032.359-.206.828-.484 1.446-.857 1.768-.757 4.946-2.748 9.36-5.632 6.117-3.569 12.98-7.453 18.654-10.602.066-.045.13-.111.152-.193.023-.082.012-.17-.031-.243-.057-.1-.155-.17-.274-.201-.391-.098-1.521.363-3.457 1.395-.163-.002-.383.048-.665.15.006-.013.01-.026.014-.038.032-.112.019-.226-.035-.321-.045-.077-.118-.132-.205-.151-.085-.019-.177-.001-.248.047-1.22.827-2.454 1.654-3.682 2.465-.403.23-.853.486-1.355.774-1.919 1.042-4.167 2.221-6.294 3.338l-1.131.594c1.427-.968 2.808-1.907 3.883-2.639.632-.431 1.158-.791 1.526-1.044.774-.531.82-.563.671-.822-.044-.075-.125-.135-.209-.157-.17-.041-.393.027-1.742.841.023-.078-.012-.14-.062-.225-.088-.152-.282-.204-.433-.117l-5.156 2.977c-.146.085-.2.268-.125.418-2.744 1.711-6.08 3.771-8.739 5.402-.146.09-.195.281-.108.43.053.092.141.157.25.184.173.043.511-.049 1.039-.29-3.414 1.934-5.457 3.301-5.665 4.023-.056.194-.008.339.042.426.042.073.112.126.194.148.081.022.157.003.242-.034l1.85-1.086c-.039.059-.033.108-.007.167-1.139.764-1.176.902-1.205 1.01-.009.032-.013.067-.011.103-2.531 1.651-4.184 2.886-4.318 3.367-.043.155-.004.272.037.343.088.152.282.204.434.117l7.187-4.15-6.944 4.212c-.147.09-.196.282-.109.431.048.084.129.144.226.168.169.044.434.113 3.692-1.64l-.563.344c-.148.09-.197.28-.111.429.051.088.15.2.344.246.39.091 1.214-.209 2.443-.851l-1.16.725c-1.973 1.234-3.497 2.193-4.531 2.853-1.968 1.255-1.968 1.255-1.797 1.55.023.04.056.085.104.129-1.975 1.281-1.898 1.415-1.763 1.648.046.08.137.184.313.226.44.106 1.579-.371 3.361-1.349-.017.027-.03.057-.039.088-.024.083-.013.171.029.245.05.085.131.146.23.171.106.027.248.064 1.067-.298-.895.548-1.665 1.04-2.303 1.471-1.648.847-3.142 1.608-4.437 2.262-.08.041-.136.109-.161.193-.025.083-.014.174.03.25.044.074.13.174.298.215.304.076.999-.15 2.064-.651l.018.034c.042.073.111.126.193.148.046.012.094.013.139.005L1.993 34.72c-.15.089-.2.281-.113.432.041.07.106.152.211.221-.082.099-.1.242-.033.36.088.152.279.205.432.12l.741-.416c.101-.022.207-.049.319-.08.001.004.002.008.005.011.05.085.131.145.23.171.088.024.255-.008.507-.094-.409.387-.656.713-.733.977-.072.249-.013.43.05.538.054.094.164.216.382.269.45.11 1.514-.218 3.053-.89C3.228 38.453.822 39.768.762 39.801c-.072.038-.13.11-.153.193-.023.082-.012.17.03.244.07.121.213.28.497.349.455.111 1.252-.058 2.358-.478C1.495 41.574.253 42.724.042 43.43c-.089.301-.02.513.052.64.089.152.281.204.434.116l8.679-5.011c-3.589 2.387-3.695 2.777-3.753 2.992-.04.143-.002.252.036.319.074.127.177.23.311.307l-1.849 1.094c-.15.089-.201.282-.113.434.089.151.282.202.433.114l2.129-1.229c-.053.211-.002.367.054.462.087.152.281.204.434.116l3.17-1.83c1.727-.708 3.875-1.759 6.316-3.059C11.73 41.52 7.21 44.06 3.02 46.4c-.077.043-.128.11-.151.192-.022.081-.012.169.031.242.062.107.188.247.44.308l.078.018-3.072 1.836c-.147.088-.198.277-.114.428.084.15.273.206.425.127.517-.271 3.266-1.709 7.386-3.895 1.174-.55 2.651-1.29 4.521-2.285l-7.048 4.252c-.149.091-.198.283-.109.434.088.149.281.2.432.113l3.705-2.139c-4.375 2.772-4.455 3.064-4.501 3.24-.025.094-.014.191.033.273l.034.051-1.063.62c-.151.088-.202.282-.115.433.041.068.101.116.169.14-.041.047-.064.086-.073.119-.023.083-.011.187.031.261.05.086.136.191.285.271-2.007 1.528-2.137 1.985-2.21 2.244-.061.215-.01.369.042.462.043.073.113.127.194.149.082.021.168.009.241-.033l9.022-5.237c7.871-3.865 20.802-11.58 32.989-19.123 11.229-6.498 21.435-12.392 27.634-15.943-7.327 4.526-20.412 12.21-32.426 19.231-6.705 3.84-13.419 7.747-19.282 11.27-3.219 1.885-6.158 3.613-8.661 5.097-9.082 5.381-9.037 5.459-8.818 5.838.054.093.153.209.335.285-.666.576-1.06 1.019-1.14 1.306-.056.202-.009.349.043.436.026.046.06.085.102.115-.671.484-1.023.821-1.082 1.032-.033.112-.019.227.035.323.043.074.133.14.216.161.297.074 1.668-.634 5.456-2.904-.024.202.031.352.087.45.012.019.024.039.039.06-2.29 1.472-2.338 1.651-2.372 1.776-.022.082-.01.189.032.262.043.074.114.128.197.15.12.033.237.064 6.319-3.396 1.187-.626 2.619-1.448 4.288-2.451 4.991-2.863 12.366-7.122 23.269-13.446L6.699 58.895c-.15.09-.199.284-.11.433.088.15.281.202.432.114l14.419-8.325-13.968 8.24c-.151.089-.202.282-.115.433.059.101.177.233.408.288.042.01.088.017.138.02l-3.255 1.924c-.151.089-.201.282-.113.433.057.098.173.227.404.284.499.124 1.676-.214 3.528-1.014l-.011.032c-.024.083-.013.172.03.247.067.115.203.265.469.328.014.004.029.007.045.009l-2.452 1.492c-.15.091-.198.286-.108.435.09.15.278.192.435.11l4.374-2.586c3.15-1.314 8.98-4.86 17.149-10.136l.199-.117c15.975-8.717 37.516-20.785 48.359-28.221.86-.41 1.49-.675 1.859-.774-.208.272-.711.739-1.797 1.542l-37.3 22.27C22.336 56.136 5.506 65.263 5.332 65.358c-.077.039-.132.11-.154.193-.024.082-.013.171.029.245.122.208.325.349.607.414.162.039.363.049.599.032l-.861.513c-.148.089-.198.282-.111.432.042.073.115.128.197.149.033.009.067.019.233-.048l.008.012.098-.058c.388-.175 1.263-.633 3.357-1.804.7-.267 1.48-.596 2.333-.98l-.771.458c-.149.088-.199.281-.112.431.047.083.142.191.327.235.224.053.617-.031 1.18-.249-1.17.895-1.233 1.131-1.276 1.287-.04.147-.002.257.037.324.024.042.052.082.083.12l-1.486.867c-.15.088-.202.282-.114.433.052.091.158.209.368.261.47.117 1.673-.271 3.452-1.06.091.145.28.193.428.108l.85-.491c-.208.182-.383.351-.528.505l-6.596 3.809c-.15.087-.204.277-.119.429.085.152.274.207.427.126.055-.029 1.722-.922 4.518-2.432-2.64 1.608-3.904 2.495-3.986 2.796-.026.095-.014.194.034.276.044.077.117.131.203.151.085.019.173.003.247-.045.642-.431 1.297-.869 1.971-1.317-.022.096-.008.193.039.275.053.092.146.148.245.158-.225.228-.255.335-.278.417-.03.112-.017.224.037.317.02.037.048.07.081.096l-1.497.875c-.151.088-.201.281-.115.432.114.197.304.33.563.394 1.459.357 5.907-1.653 12.44-5.289l-6.699 4.017c-.149.09-.199.282-.111.431.041.074.115.13.197.15.041.012.082.023.24-.037l.001.001.004-.003c.677-.257 3.461-1.774 17.272-9.767 3.967-2.297 8.383-4.862 12.904-7.491L26.862 68.013c-1.481.87-2.862 1.697-4.132 2.479l-10.104 6.062c-.15.089-.2.281-.112.431.04.07.12.162.275.201.156.04.454-.018.887-.172-.341.386-.555.721-.635 1.001-.073.252-.052.477.059.669.071.124.216.284.504.354.115.028.251.038.407.031-.009.025-.016.049-.023.074-.078.265-.059.5.056.699.089.151.283.204.434.116l71.203-41.109c-1.596 1.28-5.505 3.915-14.621 9.307-9.023 5.336-20.536 11.845-30.693 17.588C21.25 76.553 16.048 79.573 15.871 80.221c-.023.082-.01.197.033.271.087.152.282.204.434.116l35.164-20.303-35.086 20.89c-.149.089-.2.281-.113.431.119.207.322.346.601.412.211.05.488.051.824.006.004.046.018.091.042.132.116.201.312.336.583.4.375.089.964.018 1.739-.195-.077.099-.09.238-.024.353.057.097.171.224.397.279.238.059.638.157 2.333-.509.07.082.181.167.359.211.073.018.161.038.291.043-.05.054-.076.096-.087.132-.022.083-.011.185.032.259.052.09.14.155.247.182.168.042.446.115 2.889-1.102.116.1.261.171.438.214.189.046.424.054.703.026-.046.092-.045.203.01.299.042.074.113.127.194.148.043.012.077.021.235-.049l.009.014.141-.085c.278-.138.784-.42 1.748-.976 2.67-1.022 6.702-3.174 11.714-6.122l-13.262 8.016c-.15.09-.197.283-.109.433.089.15.282.2.432.114l.001-.001c4.171-2.433 9.131-5.322 14.382-8.375-.89.575-1.78 1.154-2.671 1.733l-3.216 2.087c-4.065 2.261-8.019 4.445-11.698 6.464-.07.039-.13.11-.153.192-.023.082-.012.171.03.245.123.211.328.351.61.417 1.142.265 4.109-.889 8.173-2.936-2.969 2.01-4.84 3.516-5.043 4.231-.062.22-.011.379.044.472.088.153.282.205.434.117l7.832-4.522c-1.049.832-1.12 1.088-1.166 1.255-.044.163-.004.283.039.356.087.152.281.204.434.117l.777-.45c-.577.545-.926.989-1.019 1.322-.072.256-.01.44.052.549.042.073.112.126.193.149.169.045.169.045 8.223-4.598l.557-.321c-7.34 4.511-7.266 4.637-7.06 4.996.059.099.177.23.41.287.108.025.247.03.415.012.005.041.018.082.04.12.026.045.064.096.116.143l-.506.298c-.149.089-.199.282-.113.432.04.069.102.149.205.216-1.165.693-1.513.978-1.56 1.148-.024.083-.012.191.031.265.052.09.14.156.249.183.204.052.544.14 4.014-1.677-.147.163-.103.239-.041.345.064.112.196.258.461.32.609.143 1.999-.314 3.929-1.199l-1.147.703c-.148.09-.196.28-.109.429.041.074.115.129.197.151.13.033.205.052 2.39-1.213-.345.308-.546.55-.595.727-.044.163-.002.286.041.359.042.075.114.129.198.15.083.02.173.007.245-.039 1.503-.941 3.087-1.929 4.721-2.942-.092.111-.11.176-.124.228-.029.107-.017.213.035.302.049.088.152.202.353.249.064.016.143.021.235.015-.034.086-.027.187.023.273.054.092.147.147.245.156-3.622 2.247-3.57 2.338-3.395 2.64.042.074.113.128.197.149.083.021.171.009.244-.038 9.644-5.947 23.44-14.259 28.982-17.17-2.202 1.37-5.719 3.449-8.96 5.365-14.014 8.283-14.513 8.763-14.21 9.289.049.084.129.143.226.168.199.05.5.126 5.157-2.542-.014.035-.022.072-.023.11-4.606 2.762-4.517 2.915-4.344 3.215.053.092.142.157.251.183.483.116 1.942-.715 6.301-3.512.028.041.067.076.11.101-.278.292-.211.409-.131.546.041.075.119.132.202.154.106.027.272.07 3.32-1.69 1.543-.89 3.825-2.244 7.21-4.294.15-.091.198-.286.107-.436-.09-.148-.28-.197-.43-.11l-.025.014c.04-.09.038-.198-.017-.29-.022-.036-.049-.066-.08-.091.611-.329 1.227-.657 1.837-.98.078-.037.134-.11.158-.192.024-.083.013-.172-.031-.247-.011-.022-.026-.041-.042-.06l.273-.16c1.958-1.152 1.958-1.152 1.782-1.457-.051-.088-.154-.203-.355-.248-.058-.014-.128-.017-.207-.013.167-.117.286-.208.37-.283l.002-.002c.235-.21.19-.287.108-.428-.043-.075-.114-.129-.197-.15-.083-.021-.174-.007-.244.037-6.086 3.755-14.69 8.946-18.745 11.149 2.715-1.753 7.723-4.712 11.99-7.235 11.661-6.892 11.621-6.961 11.36-7.412-.049-.088-.135-.15-.238-.177-.082-.02-.187-.046-.564.084 1.603-.946 3.158-1.864 4.634-2.731.15-.089.2-.284.113-.434-.088-.151-.282-.203-.433-.115l-2.097 1.21c.865-.541 1.319-.847 1.545-1.044l.036-.023-.003-.006c.226-.208.179-.289.105-.419-.044-.076-.117-.13-.202-.15-.021-.005-.041-.007-.062-.008.804-.45 1.591-.888 2.356-1.312.081-.051.128-.111.151-.193.023-.082.012-.169-.032-.243-.039-.07-.12-.162-.276-.201-.113-.029-.281-.07-.936.168.082-.091.131-.169.148-.232.028-.103.016-.21-.035-.299-.042-.073-.127-.136-.211-.158-.134-.036-.546.113-1.373.526 1.174-.791 2.031-1.457 2.528-1.989l3.798-2.325c.147-.09.196-.281.109-.429-.05-.089-.135-.151-.239-.177-.168-.043-.448-.115-3.212 1.321 1.449-.968 2.578-1.801 3.334-2.476l.315-.192c.093-.057.146-.151.152-.252.332-.343.535-.632.6-.862.069-.242.012-.418-.049-.522-.044-.076-.116-.13-.202-.151-.084-.019-.177-.005-.247.044-.022.016-.456.301-1.226.804.051-.093.053-.21-.005-.31-.05-.089-.146-.201-.317-.27.625-.403 1.108-.718 1.429-.925.144-.092.188-.281.101-.428-.086-.147-.273-.199-.424-.119-1.548.828-6.825 3.659-13.399 7.26 3.659-2.161 7.222-4.258 10.501-6.182.151-.089.201-.283.114-.434-.089-.152-.282-.203-.433-.116h-.001C71.49 67.07 42.062 84.102 37.396 86.74c.421-.533 1.571-1.574 4.545-3.588l41.126-23.744c6.409-3.546 6.664-3.747 6.73-3.982.023-.082.011-.179-.032-.252-.087-.151-.281-.204-.434-.116l-6.62 3.823-3.784 2.086c-15.066 8.302-29.912 16.59-37.388 21.685l-3.042 1.755c1.642-1.211 4.502-3.056 8.176-5.314l46.986-27.128c.153-.087.205-.281.119-.432-.086-.151-.278-.206-.431-.12-.14.078-14.191 7.904-28.142 15.973-8.575 4.957-14.59 8.537-18.814 11.136l-16.092 9.291c.496-.491 1.45-1.265 3.213-2.485.011.006.023.009.035.012.035.01.071.019.233-.046l.006.011.079-.046c.995-.437 5.454-2.905 27.967-15.989 13.71-7.968 27.538-16.056 27.676-16.136.149-.087.2-.279.116-.43-.084-.15-.275-.206-.427-.123-1.063.57-3.586 1.931-7.025 3.804.537-.329 1.054-.647 1.55-.954 9.434-5.822 9.334-5.995 9.116-6.373-.043-.073-.113-.126-.194-.148-.082-.022-.18-.014-.242.033-3.611 2.12-7.773 4.563-12.212 7.161l1.59-1.042c2.604-1.497 4.949-2.841 6.908-3.962l.001-.001c.073-.042.126-.111.147-.192.023-.081.011-.168-.03-.241-.035-.062-.079-.118-.129-.168l.295-.197c.143-.095.184-.287.093-.433-.091-.144-.28-.191-.428-.105l-.002.001-.356.209.019-.063c.045-.161.005-.283-.038-.356-.042-.074-.113-.128-.195-.149-.093-.025-.176-.048-2.811 1.426-1.29.481-2.905 1.226-4.787 2.194l13.621-8.232c.148-.089.197-.281.111-.43-.043-.074-.125-.136-.207-.158-.238-.062-.555-.146-13.25 7.169 2.376-1.427 4.482-2.734 6.259-3.897l4.552-2.736c.148-.089.198-.281.111-.43-.021-.036-.046-.068-.076-.095 1.08-.882 1.718-1.57 1.848-2.036.072-.255.012-.439-.05-.547-.043-.075-.115-.129-.2-.15-.085-.02-.173-.006-.247.041-.093.061-5.428 3.471-13.09 8.275-2.043 1.078-4.424 2.339-7.023 3.726 9.951-6.186 17.406-10.927 17.515-10.997.147-.093.192-.286.101-.435-.021-.031-.045-.059-.073-.082l.611-.357c.151-.089.204-.283.115-.434-.024-.041-.056-.075-.093-.101 1.337-.883 2.195-1.454 2.458-1.628.142-.096.184-.287.092-.433-.067-.108-.188-.161-.307-.147.054-.098.054-.218-.009-.318-.09-.147-.283-.181-.431-.106l-1.339.785c.145-.202.24-.382.286-.54.07-.24.053-.454-.053-.636-.043-.075-.116-.129-.202-.149-.085-.021-.179-.005-.249.044-6.547 4.322-14.818 9.692-23.454 15.168L30.44 75.073c-4.056 2.176-7.89 4.213-11.335 6.027-.819.261-1.451.382-1.872.347l75.289-44.824c.15-.089.201-.284.111-.434-.088-.15-.28-.201-.432-.114l-7.903 4.563c1.836-1.292 2.886-2.203 3.015-2.673.05-.184.005-.319-.042-.401-.088-.151-.282-.203-.434-.116L41.557 63.59c3.77-2.403 7.858-5.034 12.233-7.857 5.628-3.632 11.05-7.132 15.906-10.194 6.881-3.726 13.402-7.193 18.848-10.045.075-.04.132-.109.156-.193.026-.083.015-.172-.029-.248-.03-.051-.077-.112-.146-.166 1.327-.841 1.989-1.374 2.071-1.658.03-.111.019-.223-.036-.317-.087-.152-.281-.204-.433-.116l-5.488 3.169c-.431.212-.895.451-1.394.715 2.038-1.207 3.772-2.236 5.112-3.035.982-.584 1.752-1.046 2.277-1.363.262-.158.464-.281.599-.364.229-.143.466-.289.309-.56-.053-.093-.144-.159-.254-.187-1.216-.311-12.802 6.64-37.111 21.466-1.169.711-2.356 1.436-3.555 2.167-1.783.962-3.518 1.901-5.21 2.821l40.76-24.454c.11-.064.17-.19.152-.316-.018-.126-.109-.23-.234-.263-.037-.01-.067-.018-.231.056l-.013-.021-.286.172c-1.18.623-5.246 2.993-20.248 11.742-7.479 4.362-16.441 9.588-24.679 14.374L85.668 31.91c.15-.089.199-.282.11-.432-.088-.151-.282-.202-.432-.115l-13.845 7.994c.982-.578 1.929-1.137 2.838-1.675 12.3-7.288 12.12-7.599 11.874-8.027-.052-.086-.133-.148-.235-.173-.186-.045-.667.136-1.529.588-.041-.044-.094-.075-.15-.09.865-.572 1.558-1.06 2.067-1.462l1.672-.964c.151-.088.204-.281.117-.432-.086-.152-.278-.206-.431-.121l-.328.184c-.011-.035-.025-.065-.039-.09-.016-.027-.032-.053-.051-.078.538-.411.834-.703.88-.867.028-.107.016-.215-.036-.304-.088-.152-.282-.204-.434-.116l-1.442.833c-.046-.002-.094-.003-.143-.002-.008-.025-.019-.05-.032-.072-.088-.152-.282-.204-.434-.117l-.55.318c-.498.105-1.072.27-1.721.495-.009-.02-.017-.038-.026-.053-.088-.153-.283-.204-.434-.117l-1.871 1.08c-.652.279-1.349.594-2.084.939l.433-.27c5.427-2.974 7.757-4.426 7.916-4.98.031-.109.02-.221-.034-.314-.022-.038-.052-.069-.085-.095l.376-.252c.143-.096.184-.287.093-.432-.09-.145-.28-.192-.427-.106l-.002.001L61.64 37.55c-10.141 5.382-21.178 11.262-30.148 16.407 15.772-9.453 37.948-22.26 55.146-32.036.061-.045.126-.112.149-.194.022-.081.011-.168-.032-.242-.131-.227-.349-.379-.649-.45-.159-.039-.351-.051-.572-.038-.006-.015-.012-.029-.021-.043-.089-.15-.279-.188-.434-.114l-.573.335c-.846.218-1.919.626-3.183 1.195 1.026-.673 1.691-1.111 1.926-1.266.144-.094.186-.287.095-.434-.092-.145-.289-.193-.432-.103L79.504 22.6c.021-.039.035-.076.045-.11.054-.191.008-.33-.04-.414-.055-.094-.148-.163-.262-.192-.052-.013-.114-.028-.226-.019.306-.224.6-.44.88-.652l5.418-3.202c.15-.088.2-.281.113-.432-.137-.239-.365-.397-.677-.47-.248-.059-.564-.057-.947.003-.002-.134-.035-.258-.099-.369-.043-.074-.114-.129-.199-.15-.129-.032-.138-.034-2.354 1.356-1.06.44-2.296 1.032-3.681 1.757l2.247-1.33c.149-.089.201-.281.113-.432-.081-.14-.192-.253-.334-.336l.94-.555c.151-.089.202-.282.114-.434-.089-.151-.282-.202-.433-.115l-1.619.935c-.756.059-1.82.389-3.146.947l2.036-1.223c.151-.09.2-.283.111-.434-.09-.15-.282-.2-.433-.113l-.001.001-3.639 2.121c.141-.112.274-.22.398-.325 3.064-1.757 5.828-3.341 8.17-4.679.081-.03.127-.112.149-.192.022-.082.011-.169-.032-.243-.137-.237-.365-.395-.676-.469-.319-.076-.753-.053-1.289.058.004-.158-.041-.278-.088-.359-.043-.075-.113-.128-.196-.149-.082-.021-.175-.008-.243.036l-2.594 1.569c-2.238.985-5.123 2.534-8.468 4.475l-.154.079c4.856-3.09 7.944-5.083 8.016-5.13.144-.092.187-.281.1-.429-.088-.147-.276-.198-.425-.115-1.335.732-4.527 2.488-8.875 4.902 11.775-7.087 11.611-7.371 11.39-7.753-.042-.073-.112-.127-.194-.148-.151-.041-.21-.056-6.581 3.598.747-.529 1.399-1.018 1.947-1.462l1.557-.843c.077-.04.13-.11.154-.193.023-.082.012-.17-.03-.245-.035-.062-.089-.111-.154-.141.102-.119.189-.232.261-.338.058-.047.095-.111.111-.18.052-.096.091-.185.115-.269.081-.284.015-.487-.054-.607-.088-.152-.283-.204-.434-.116l-.342.196c-.006-.022-.017-.043-.03-.064-.089-.149-.28-.198-.431-.112l-.001.001L6.445 48.815c5.298-3.795 34.793-21.045 55.437-33.002l13.279-7.666c.151-.087.204-.282.116-.433-.088-.153-.281-.205-.434-.118-.091.052-4.898 2.819-11.928 6.888l-.437.252c2.17-1.466 3.857-2.725 4.899-3.696l.416-.251c.114-.068.17-.196.151-.319.318-.354.519-.654.589-.896.083-.282.018-.485-.051-.603-.006-.012-.015-.024-.024-.037 2.207-1.541 2.297-1.87 2.352-2.068.043-.15.003-.264-.036-.333-.088-.151-.282-.203-.434-.116l-.476.276c.017-.197-.035-.344-.091-.442-.088-.151-.282-.203-.434-.115l-6.406 3.697 1.553-1.043-.005-.008c.127-.099.21-.227.102-.415-.044-.076-.118-.13-.203-.151-.086-.019-.174-.003-.247.045-.476.293-28.427 16.836-46.067 27.274-4.468 2.436-7.757 4.354-9.687 5.733l-1.796 1.063c-.119-.001-.226-.012-.319-.034-.062-.014-.107-.032-.14-.051.928-1.209 10.188-6.931 22.114-13.999 5.468-3.104 11.16-6.391 16.267-9.45l21.3-12.299c.152-.087.205-.281.117-.433-.086-.152-.28-.204-.432-.118-.04.023-1.157.657-3.057 1.742-.005-.016-.013-.032-.022-.047-.082-.151-.269-.21-.422-.131-.199.1-.756.383-1.613.822.729-.64 1.169-1.145 1.265-1.485.065-.229.01-.395-.047-.493-.086-.152-.281-.203-.434-.116l-3.279 1.894c.536-.328.954-.583 1.275-.784 4.671-2.759 6.683-4.105 6.796-4.518.026-.098.014-.197-.034-.281-.043-.075-.13-.173-.295-.213-.402-.098-1.508.36-3.296 1.331.036-.067.064-.127.078-.182.059-.207.009-.358-.043-.448-.043-.074-.115-.128-.199-.149-.086-.02-.172-.004-.247.041-.036.024-1.053.674-2.79 1.775-.009-.081-.036-.146-.063-.194-.044-.073-.127-.136-.21-.158-.097-.025-.216-.057-1.351.51.206-.221.361-.421.464-.601l1.897-1.037c.077-.04.131-.111.154-.193.023-.083.012-.171-.031-.246-.042-.072-.123-.133-.205-.154-.144-.037-.59.139-1.757.772-.092-.14-.278-.186-.426-.102l-3.62 2.091.001-.008c.028-.102.016-.206-.034-.293-.055-.096-.147-.165-.26-.197l3.887-2.297c.149-.089.2-.281.114-.433-.02-.032-.045-.062-.074-.085.533-.428.838-.753.9-.975.047-.166.004-.291-.04-.367-.046-.079-.138-.184-.316-.229-.56-.138-2.281.619-5.054 2.147-.029.007-.054.021-.083.035-.065.041-.13.079-.195.119-1.247.692-2.696 1.532-4.335 2.508.427-.397.687-.716.752-.944.057-.201.008-.348-.043-.436-.051-.088-.149-.2-.329-.261 1.46-.845 2.886-1.669 4.259-2.46.073-.043.127-.113.148-.194.021-.081.009-.167-.032-.241-.049-.085-.131-.146-.23-.171-.431-.105-2.196.866-7.377 4.092-2.508 1.246-6.301 3.533-11.134 6.587-1.838 1.073-3.721 2.172-5.598 3.272-5.616 3.289-10.295 6.053-13.959 8.245 8.852-5.524 23.372-14.495 32.415-20.069.146-.09.194-.281.109-.429-.062-.108-.187-.247-.431-.304-.088-.02-.192-.028-.312-.02l1.737-1.06c.149-.092.198-.287.106-.436-.059-.098-.167-.152-.275-.152-.056 0-.112.015-.16.046zm5.377 3.082c.036-.121.051-.235.043-.343 2.08-1.152 3.582-1.884 4.217-1.992-.499.576-2.324 1.776-4.939 3.342.365-.392.597-.731.679-1.007zm-25.535 10.33c2.676-1.776 5.409-3.589 7.946-5.225l7.379-4.498c1.48-.808 2.361-1.188 2.884-1.357C43.56 4.335 35.2 9.493 26.938 14.61l-3.059 1.896c1.276-.84 2.643-1.746 4.098-2.711zm32.559-8.391c1.873-1.098 3.323-1.89 4.178-2.245-.873.622-2.563 1.67-4.816 3.011-.03-.015-.065-.027-.104-.037-.054-.014-.121-.017-.2-.012.342-.253.657-.491.942-.717zm-21.481 6.433c6.465-3.865 11.942-7.178 13.701-8.244-.385.619-1.393 1.506-2.876 2.59-1.095.627-2.347 1.348-3.784 2.176-4.009 2.259-8.551 4.75-12.809 7.082 1.907-1.196 3.852-2.412 5.768-3.604zM17.409 23.019c5.352-3.141 12.409-7.576 20.348-12.602 1.948-1.234 3.916-2.48 5.759-3.639l3.529-2.046c.99-.434 1.399-.499 1.567-.47-.244.603-2.859 3.026-19.879 12.819-7.465 4.291-14.977 8.427-18.179 10.178 1.841-1.081 4.139-2.512 6.855-4.24zM60.928 4.314c-.151.131-.326.278-.53.441-.766.444-1.611.947-2.535 1.508 1.231-.78 2.267-1.44 3.065-1.949zM53.95 6.471l2.293-1.263c-.393.326-.871.688-1.422 1.081-1.965 1.08-4.917 2.75-9.381 5.326-1.516.875-3.207 1.856-5.093 2.953 5.024-3.008 9.962-5.961 13.603-8.097zm1.049.445c1.436-.795 2.518-1.374 3.161-1.683-.104.099-.231.208-.379.326-1.362.861-3.01 1.902-4.871 3.073-1.635.937-3.542 1.986-5.601 3.094 3.208-1.865 5.832-3.493 7.69-4.81zm-2.273-1.145c-.837.628-2.422 1.656-4.567 2.982l-7.754 4.476c5.528-3.539 10.381-6.571 12.321-7.458zm1.726 9.693l14.59-8.424c-.051.074-.111.15-.18.23l-16.009 9.243 1.599-1.049zm6.197-8.196c-.453.487-1.384 1.279-3.208 2.569-3.115 1.602-7.574 3.912-12.645 6.584l15.853-9.153zm7.031 2.578c-.084.114-.185.238-.306.369-.14.039-.345.113-.661.253l.967-.622zm-2.954.545c-2.649 1.69-6.284 3.761-10.419 6.016l10.419-6.016zm-43.494 1.637l-.672.455-.759.41c.439-.263.915-.551 1.431-.865zm58.634 1.556c.585-.156 1.048-.209 1.374-.147l-2.948 1.688c.747-.609 1.277-1.124 1.574-1.541zm-17.032.197c-4.865 3.33-12.744 8.011-21.637 13.054l21.637-13.054zm12.182 2.586c-.046-.081-.135-.185-.302-.244l2.709-1.635c.462-.203.893-.38 1.29-.529-.745.707-1.982 1.629-3.609 2.722-.004-.136-.045-.242-.088-.314zM6.482 38.76c4.216-2.115 10.56-5.923 18.448-10.87l1.55-.894c7.841-4.339 16.426-8.905 24.148-12.927L4.217 40.865c-.151.086-.204.279-.118.43.014.025.03.047.05.067L.804 43.294c.593-.944 2.633-2.525 5.678-4.534zm1.578-4.436c6.013-3.576 12.974-7.696 19.778-11.698 1.898-.988 3.818-1.983 5.72-2.97 3.814-1.976 7.265-3.769 10.311-5.375-3.145 1.951-6.486 4.01-9.838 6.051C9.118 35.505 4.816 36.82 4.159 36.621c.005-.194.355-.805 3.046-2.574.119-.062.239-.128.363-.194-.03.162.011.281.055.357.041.073.112.127.194.149.026.006.052.009.078.009.058 0 .116-.015.165-.044zm59.839-19.119c.537-.294 1.049-.573 1.537-.838-1.902 1.246-4.197 2.66-6.774 4.19 1.909-1.218 3.67-2.345 5.237-3.352zm-7.657-.608l.155-.087-.377.228.222-.141zM15.939 15.77c.587-.339 1.211-.692 1.862-1.055l.01.015-4.594 2.693c.735-.482 1.666-1.044 2.722-1.653zm31.583 16.635c10.165-6.039 19.796-11.826 25.882-15.493.61-.21.92-.245 1.066-.202 0 .013-.005.03-.01.053-.05.171-.197.382-.432.628-.963.626-2.034 1.299-3.195 2.011-4.651 2.671-10.431 5.993-16.609 9.558-2.661 1.475-5.406 2.981-8.163 4.483l-.664.346 2.125-1.384zM30.925 18.352c.856-.473 1.709-.949 2.554-1.423-1.308.844-2.666 1.719-4.046 2.606-1.609.931-3.197 1.857-4.736 2.763L5.718 33.256l25.207-14.904zm52.684-.587c.392-.077.714-.095.958-.047l-1.758 1.039c.365-.375.635-.707.8-.992zm-2.65 1.058l.665-.418c.379-.153.732-.283 1.054-.389-.534.639-1.479 1.469-2.771 2.456l-8.64 5.107c-2.722 1.484-6.402 3.552-11.386 6.43l-1.284.742c6.817-4.205 14.27-8.848 22.362-13.928zM36.984 42.686l41.755-24.628c.084.002.161.01.232.024L33.727 44.831c1.057-.696 2.143-1.41 3.257-2.145zm-15.167 1.765c3.483-2.038 7.235-4.23 11.042-6.453l5.418-3.164 1.454-.835c10.423-5.972 20.905-11.836 27.978-15.768-2.598 1.654-5.678 3.605-9.055 5.73-9.247 5.368-21.685 13.009-35.279 21.414-2.738 1.483-5.175 2.835-7.279 4.049-1.011.584-1.944 1.135-2.797 1.655-3.949 2.087-6.289 3.127-7.678 3.629 2.541-1.834 7.321-4.953 16.196-10.257zm19.028-20.184c4.152-2.17 7.948-4.169 11.327-5.986-7.672 4.542-17.007 9.93-26.388 15.275 4.848-2.876 10.068-6.119 15.061-9.289zm-20.877-5.972c-2.244 1.443-4.282 2.704-5.745 3.502l5.745-3.502zm56.556.286L53.641 31.793c9.596-6.167 18.446-11.554 22.883-13.212zm-22.851 4.446c2.118-1.173 4.153-2.296 6.075-3.355-3.025 1.924-6.155 3.9-9.314 5.878-5.06 2.816-10.424 5.732-15.61 8.523 6.619-3.908 13.093-7.704 18.849-11.046zM21.31 19.765c-1.444.932-2.882 1.855-4.272 2.739-2.201 1.29-3.908 2.239-5.23 2.934 2.589-1.57 5.851-3.515 9.502-5.673zm52.511 2.668c.677-.391 1.334-.764 1.964-1.115-5.346 3.348-13.004 8.127-21.348 13.249 7.118-4.644 13.968-9.008 19.384-12.134zm-29.594-1.065c-.67.429-1.338.858-2.012 1.287l-3.256 1.88-2.217 1.154 7.485-4.321zm40.634.341c.409-.086.743-.114.997-.076-2.087 1.188-10.941 6.235-21.813 12.512-1.383.798-2.797 1.616-4.236 2.448l25.052-14.884zm-37.578.297c-3.394 2.118-6.981 4.337-10.577 6.536-7.11 4.348-13.179 7.954-18.114 10.764-2.593 1.398-5.135 2.761-7.584 4.065 12.146-7.232 25.555-15.15 36.275-21.365zm29.356 3.42c1.765-.966 3.346-1.778 4.698-2.402l-9.85 5.74c1.903-1.228 3.637-2.353 5.152-3.338zm-5.319.859c-6.169 3.892-14.198 8.598-22.753 13.449L71.32 26.285zM7.969 27.802c.247-.059.537-.152.866-.275-.924.522-1.692.925-2.254 1.171.362-.243.829-.543 1.388-.896zm78.634-.272c-.068.072-.153.153-.254.241l-.558.314c.298-.199.568-.384.812-.555zM10.934 59.044c2.307-1.145 5.716-3.19 10.125-5.986l42.729-25.261c-6.595 4.159-14.057 9.085-21.42 13.946l-3.009 1.985-.506.305C14.777 58.471 7.736 61.63 5.757 62.105l5.177-3.061zm51.115-19.237l19.574-11.301c.178-.076.353-.147.522-.217-.105.1-.225.208-.364.326L61.94 40.07l-2.008 1.086 2.117-1.349zM77.97 28.743l-.757.498-1.284.694 2.041-1.192zM31.687 42.766c6.029-3.519 12.57-7.312 19.012-11.036 1.539-.809 3.017-1.588 4.425-2.335-8.993 5.227-18.387 10.68-26.579 15.418 1.016-.659 2.063-1.341 3.142-2.047zM7.59 36.77c3.367-1.86 7.687-4.26 12.426-6.924-4.144 2.438-8.129 4.78-11.661 6.854-.921.467-1.649.793-2.141.944.33-.222.794-.517 1.376-.874zm71.232-5.172l2.27-1.31c-.858.516-1.785 1.069-2.772 1.651l.502-.341zm4.809-.362l.272-.156c-1.897 1.264-5.206 3.28-9.342 5.734 3.812-2.404 7.036-4.403 9.07-5.578zm-36.531.683l-.062.041-.081.048.143-.089zm-23.522 1.37c.835-.443 1.69-.893 2.56-1.352L9.504 41.541c-.224.089-.438.171-.642.244l14.716-8.496zm-1.242 8.18c4.695-2.501 9.357-4.993 13.863-7.424-9.648 5.59-18.997 11.013-25.426 14.744-1.101.534-2.08.977-2.921 1.32 4.534-2.714 9.445-5.645 14.484-8.64zm61.027-5.652c.876-.505 1.694-.973 2.448-1.396-4.107 2.44-10.269 6.084-17.212 10.186 5.579-3.377 10.767-6.482 14.764-8.79zM14.799 65.659l47.15-27.554 2.178-1.155 1.911-1.015c-8.2 4.697-17.735 10.576-26.664 16.23l-8.456 4.883c-2.905 1.638-5.499 3.133-7.739 4.467l-6.62 3.822c-.791.405-1.49.754-2.105 1.051-.12.039-.235.075-.348.109.158-.25.39-.53.693-.838zm30.654-29.306l-2.119 1.391-5.025 2.901 7.144-4.292zM5.128 38.129c.055.08.152.172.323.214.027.007.056.011.089.015-.07.058-.108.141-.113.227-1.653.804-2.913 1.297-3.664 1.392.796-.435 1.94-1.063 3.365-1.848zm85.815.824c-.258.386-.731.871-1.398 1.446l-8.151 4.782c4.661-3.017 8.106-5.279 9.549-6.228zM7.664 56.257c-.003-.028.006-.063.012-.085.056-.191.219-.425.481-.699 1.471-.888 3.248-1.972 5.383-3.285 3.48-1.943 8.084-4.572 14.194-8.129l2.774-1.493 1.842-.99-.908.594C17.584 50.255 10.954 54.254 7.768 56.271c-.042-.001-.077-.006-.104-.014zm40.913-4.396c5.624-3.313 11.248-6.647 16.316-9.661-.252.16-.507.321-.763.485-1.358.865-2.763 1.761-4.204 2.677-3.947 2.284-8.029 4.637-11.987 6.918l-3.486 2.008c1.322-.776 2.695-1.584 4.124-2.427zm43.849-9.256c-.359.393-1.026.999-2.266 1.919-.464.225-1.055.544-1.787.968-.278.161-.577.336-.897.527-.096-.077-.231-.095-.346-.035l-.168.088c2.534-1.603 4.438-2.812 5.464-3.467zm-81.621.152L4.9 46.275c-.312.107-.558.177-.753.222 1.165-.653 3.515-1.97 6.658-3.74zm28.701 4.465c2.395-1.346 4.802-2.706 7.188-4.062l-.331.214c-4.86 2.82-9.62 5.58-14.074 8.157l7.217-4.309zm-22.602 21.4l29.322-16.929c4.943-2.726 9.541-5.268 13.736-7.602L14.165 70.852c-.9.468-1.616.823-2.128 1.051.851-.682 2.529-1.806 4.867-3.281zm13.633-13.384c5.056-2.92 10.836-6.103 16.704-9.273L17.979 63.064c2.986-2.14 7.396-4.846 12.558-7.826zm-5.126-5.725c-1.621 1.05-3.177 2.05-4.648 2.982l-10.175 6.016c-.814.408-1.386.656-1.79.8l16.613-9.798zm.041 21.357l35.373-20.423c-2.329 1.494-4.79 3.081-7.379 4.752-15.207 9.813-32.193 20.776-37.964 22.884 1.588-1.623 5.148-4.144 9.97-7.213zM4.915 50.932c.178-.117.425-.266.733-.447-.223.157-.431.307-.625.448h-.046l-.062-.001zm1.83-.437c.009.01.019.018.028.025l-.127.044.099-.069zm10.919.514c-.119.075-.239.149-.358.222-.701.433-1.353.829-1.956 1.192l-1.365.782c1.139-.684 2.369-1.416 3.679-2.196zm30.248 2.699l4.497-2.595-8.317 4.988c1.252-.781 2.526-1.579 3.82-2.393zM5.289 51.523c.375-.054.84-.173 1.385-.354l-3.386 1.964c.381-.367 1.006-.882 2.001-1.61zm49.878 17.386c12.889-7.483 25.304-14.661 30.444-17.557.148-.055.291-.105.43-.151-.23.167-.484.345-.759.534l-39.304 23.11-.329.184c2.962-1.918 6.196-4.004 9.518-6.12zm7.697-6.389c6.458-3.785 12.899-7.545 18.236-10.62L48.561 71.565c4.356-2.689 9.181-5.752 14.303-9.045zm-34.346-8.074l-9.106 5.41c-1.33.725-2.59 1.395-3.768 2.001 3.166-1.812 7.349-4.218 12.874-7.411zm28.649 8.711c2.243-1.363 4.48-2.731 6.673-4.078 2.892-1.57 5.702-3.08 8.316-4.477-4.117 2.559-8.544 5.289-12.985 7.991-2.346 1.429-4.586 2.783-6.72 4.063-4.337 2.377-8.576 4.683-12.464 6.797l-1.984 1.079c4.869-2.793 11.122-6.487 19.164-11.375zM4.702 54.639c-.229.173-.443.339-.643.498-.047.005-.087.008-.125.009.187-.13.444-.3.768-.507zm-.468 1.118c.374-.046.936-.183 1.83-.517-.906.532-1.675.998-2.313 1.401-.321.139-.579.238-.767.293.161-.228.522-.595 1.25-1.177zm64.243 7.929c4.412-2.576 8.631-5.044 12.276-7.178-3.493 2.137-7.548 4.59-11.831 7.165-1.121.624-2.26 1.258-3.413 1.903 1.003-.636 1.994-1.268 2.968-1.89zM6.175 65.624c2.384-1.295 8.043-4.373 15.22-8.328l-13.36 7.977c-.735.232-1.32.354-1.739.354-.042 0-.083-.001-.121-.003zm81.935-5.919l.437-.282.094-.028-.531.312v-.002zm2.441-.031c-.049.047-.099.096-.155.147l-.789.47.944-.617zm-35.75 20.664c1.015-.591 2.054-1.203 3.11-1.829 2.288-1.349 4.9-2.909 7.884-4.712 3.408-2.058 6.799-4.132 9.868-6.022l13.45-7.921c-3.109 2.029-9.422 6.125-16.514 10.592-2.099 1.256-4.264 2.552-6.423 3.846l-3.783 2.271c-3.593 1.959-7.135 3.87-10.356 5.608-.245.131-.483.261-.72.389 1.091-.688 2.254-1.43 3.484-2.222zM12.468 60.237l-1.99 1.207c-.259.095-.489.168-.69.218l2.68-1.425zm6.744.477c-.928.583-1.747 1.107-2.474 1.578-1.283.756-2.385 1.377-3.264 1.83l5.738-3.408zm41.968 6.238c3.66-2.095 6.821-3.927 9.556-5.529l1.127-.65c-1.155.744-2.319 1.492-3.495 2.243-12.486 7.289-25.165 14.651-32.678 18.918 6.11-3.69 15.747-9.329 25.49-14.982zm-37.482 3.7l2.709-1.625c3.762-2.227 8.119-4.693 12.73-7.243-7.989 4.831-15.498 9.305-20.431 12.04 1.425-.959 3.108-2.025 4.992-3.172zm-12.022-3.943c.368-.517 2.296-1.883 5.378-3.87.386-.227.79-.466 1.213-.72-1.6 1.123-2.87 2.12-3.732 2.957l-2.83 1.654-.029-.021zm69.353-3.313c.64-.387 1.229-.738 1.776-1.057l-1.406.892-2.23 1.306c.641-.398 1.262-.778 1.86-1.141zm-30.044 1.636c-6.88 4.183-13.367 8-18.733 10.95l18.733-10.95zM10.28 73.858l4.321-2.525c2.041-1.061 5.319-2.856 10.619-5.878l-.407.24c-9.59 5.665-10.344 6.36-10.225 6.746-1.982.907-3.452 1.418-4.253 1.418l-.055-.001zm3.121-7.384c-.041.082-.075.162-.101.238-.159.036-.309.064-.451.084l.552-.322zm32.486 16.858c2.517-1.547 5.599-3.415 9.02-5.471 5.523-3.227 12.219-6.995 18.976-10.724-2.292 1.475-4.812 3.119-7.55 4.914l-24.53 14.357-.039.007c.382-.54 1.857-1.619 4.123-3.083zm-18.612-1.48c3.561-1.827 10.754-5.832 25.503-14.539L29.274 81.445c-.775.27-1.395.414-1.834.414-.058 0-.113-.002-.165-.007zM11.773 67.426c.093.02.194.033.306.039-.419.17-.757.295-1.029.383l.723-.422zm67.643.586c-2.512 1.627-5.488 3.541-8.644 5.538-2.523 1.355-5.142 2.737-7.68 4.071 5.88-3.515 11.629-6.907 16.324-9.609zm3.194.108c-.176.109-.362.221-.552.336-.315.166-.653.348-1.013.544.565-.32 1.088-.614 1.565-.88zm1.134.759c-.669.437-1.361.887-2.071 1.346-5.663 3.503-19.296 11.656-26.872 16.171-.89.421-1.561.681-1.958.746 2.21-1.968 18.411-11.278 30.901-18.263zm-39.27 4.45l.029-.018c-2.07 1.25-4.043 2.414-5.871 3.456l5.842-3.438zM13.752 78.42c-.031-.007-.085-.025-.102-.052-.022-.039-.021-.099.001-.179.128-.445.704-1.083 1.657-1.879 1.013-.486 2.308-1.165 3.874-2.029.014.01.029.019.047.026-2.374 1.698-4.059 3.099-4.821 4.092-.159.03-.3.046-.421.046-.089 0-.167-.008-.235-.025zm32.916-2.056c-1.758 1.04-3.446 2.052-5.032 3.02-2.132 1.216-4.125 2.317-5.926 3.268 2.553-1.447 6.077-3.467 10.958-6.288zm27.652 2.004c.413-.225.79-.421 1.125-.584-.66.388-1.476.864-2.361 1.379l1.236-.795zm-28.853 9.899c2.489-1.52 5.164-3.146 7.928-4.817 2.32-1.24 4.935-2.612 7.518-3.968l1.797-.944-5.336 3.267c-2.84 1.686-5.309 3.097-7.384 4.22-4.697 2.541-6.517 3.132-7.221 3.225.453-.298 1.21-.775 2.222-1.403-.03.107-.017.215.036.307.043.074.113.127.196.149.028.007.056.011.083.011.056 0 .111-.015.161-.047zm-30.692-9.324c.117-.03.241-.064.371-.104l-.462.268c.026-.053.056-.108.091-.164zm8.721 2.157c.812-.357 1.697-.771 2.65-1.238.224-.077.458-.161.702-.253l-2.845 1.694c-1.263.575-2.077.879-2.598 1.019l2.091-1.222zm-4.719.89l.827-.436c.957-.329 2.106-.805 3.417-1.408.114.088.253.152.42.191.025.005.05.011.076.015l-.659.385c-1.872.808-3.259 1.254-4.04 1.254l-.041-.001zm5.547-.138c.685-.313 1.501-.703 2.469-1.19-.015.017-.031.034-.044.051-.427.241-.802.454-1.132.644l-.68.397c-.413.152-.725.247-.962.305l.349-.207zm2.094 4.58c.495-.271 1.32-.726 2.42-1.332-.001.055.012.112.042.163.037.063.101.117.17.144-.367.285-.389.368-.407.436-.01.032-.012.069-.01.106-.9.317-1.608.487-2.094.487-.042 0-.082-.001-.121-.004zm21.356-1.237c-.785.445-1.536.868-2.245 1.265-.354.179-.688.345-1.003.5 1.006-.55 2.098-1.142 3.248-1.765zm-6.68 1.137c-.015.031-.027.061-.035.089-.051.182-.007.315.039.395l.002.004-.591.345c-.533.195-.88.282-1.104.306.336-.249.911-.635 1.689-1.139z" mask="url(#e9wy4sdrxc)"/>
                </g>
                <path fill="#000" d="M51.13 36.686v-4.132c0-2.013 1.344-2.482 2.285-2.482h5.797v-8.853l-7.982-.033c-8.86 0-10.873 6.603-10.873 10.829v4.67h-5.124v10.333H40.4V72.85h10.333V47.018h7.669l.37-4.06.57-6.272H51.13z" transform="translate(-260 -2306) translate(260 2306)"/>
            </g>
        </g>
    </g>
</svg>
