<svg xmlns="http://www.w3.org/2000/svg" xmlns:xlink="http://www.w3.org/1999/xlink" width="16" height="16" viewBox="0 0 16 16">
    <defs>
        <path id="rnpbfqsfka" d="M0 0L16 0 16 16 0 16z"/>
    </defs>
    <g fill="none" fill-rule="evenodd">
        <g>
            <g transform="translate(-10 -11) translate(10 11)">
                <mask id="0f7xmo8o8b" fill="#fff">
                    <use xlink:href="#rnpbfqsfka"/>
                </mask>
                <path fill="#DE552D" d="M6.81 13.9c1 .012 1.753-.697 1.754-1.652 0-.925-.808-1.758-1.706-1.759-.933 0-1.68.78-1.682 1.756 0 .984.647 1.641 1.634 1.654m3.992-10.103c.01-.996-.695-1.75-1.644-1.76-.906-.01-1.736.8-1.749 1.705-.013.905.781 1.725 1.7 1.757.945.032 1.683-.709 1.693-1.702M3.787 5.16c-.989 0-1.736.725-1.728 1.682.007.93.8 1.725 1.724 1.73.921.004 1.716-.787 1.727-1.72.011-.948-.746-1.69-1.723-1.692m10.106 3.975c-.01-.97-.778-1.733-1.72-1.71-.92.023-1.718.85-1.703 1.762.015.89.877 1.747 1.75 1.741.891-.006 1.682-.853 1.673-1.793M16 8.112c-.022 4.357-3.606 7.874-8.036 7.888-4.529.013-7.98-3.54-7.963-8.187C.016 3.746 3.371-.01 8.016 0 12.941.01 16.068 4.071 16 8.112" mask="url(#0f7xmo8o8b)"/>
            </g>
        </g>
    </g>
</svg>
