<svg xmlns="http://www.w3.org/2000/svg" width="24" height="24" viewBox="0 0 24 24">
    <g fill="none" fill-rule="evenodd">
        <g fill="#9D9D9D">
            <g>
                <path d="M10.215 20.85c1.5.02 2.63-1.044 2.632-2.478 0-1.386-1.213-2.637-2.56-2.638-1.4 0-2.52 1.169-2.522 2.634-.003 1.476.97 2.461 2.45 2.481m5.99-15.154c.013-1.495-1.044-2.627-2.468-2.642-1.358-.014-2.604 1.201-2.623 2.559-.02 1.357 1.171 2.588 2.548 2.636 1.42.048 2.527-1.064 2.542-2.553M5.681 7.74c-1.484-.002-2.605 1.088-2.593 2.522.012 1.395 1.199 2.587 2.586 2.595 1.383.007 2.574-1.18 2.59-2.582.018-1.42-1.118-2.533-2.583-2.535m15.159 5.962c-.016-1.455-1.167-2.599-2.582-2.564-1.378.034-2.576 1.274-2.553 2.642.022 1.334 1.315 2.62 2.624 2.61 1.338-.008 2.526-1.278 2.51-2.688M24 12.168C23.965 18.703 18.59 23.98 11.944 24 5.15 24.021-.027 18.689 0 11.72.023 5.62 5.056-.016 12.023 0c7.388.016 12.08 6.107 11.975 12.168" transform="translate(-786 -184) translate(786 184)"/>
            </g>
        </g>
    </g>
</svg>
