<svg xmlns="http://www.w3.org/2000/svg" xmlns:xlink="http://www.w3.org/1999/xlink" width="95" height="92" viewBox="0 0 95 92">
    <defs>
        <linearGradient id="0kjgicrmyb" x1="50%" x2="50%" y1="14.872%" y2="119.795%">
            <stop offset="0%" stop-color="#FFF"/>
            <stop offset="100%" stop-color="#FFF"/>
        </linearGradient>
        <path id="zows1v6zla" d="M48.067.424c-1.767 1.074-3.642 2.21-5.579 3.379-1.303.729-2.85 1.665-4.616 2.78-7.817 4.691-16 9.536-21.733 12.802l24.46-14.85c.15-.091.198-.285.109-.434-.088-.15-.28-.2-.431-.113L10.382 21.26c.831-.573 1.882-1.258 3.105-2.029.358-.206.826-.484 1.443-.857 1.767-.756 4.94-2.746 9.346-5.629 6.11-3.566 12.963-7.447 18.63-10.594.065-.044.128-.11.151-.192.023-.082.01-.17-.031-.244-.058-.099-.154-.17-.274-.2-.391-.098-1.52.363-3.453 1.395-.163-.003-.382.047-.664.148.007-.013.01-.025.015-.037.032-.112.02-.226-.035-.321-.044-.076-.118-.131-.205-.15-.086-.021-.177-.002-.249.045-1.216.828-2.45 1.654-3.675 2.464-.404.229-.853.487-1.353.774-1.917 1.04-4.16 2.22-6.286 3.335l-1.129.594c1.425-.968 2.804-1.905 3.878-2.638.631-.43 1.156-.79 1.524-1.042.772-.531.818-.563.668-.823-.043-.074-.124-.135-.207-.155-.17-.042-.392.026-1.74.84.024-.078-.012-.14-.062-.226-.088-.151-.282-.203-.432-.115l-5.148 2.973c-.147.085-.2.268-.125.418-2.74 1.71-6.072 3.768-8.727 5.399-.147.09-.195.28-.11.43.054.091.142.157.251.183.174.043.51-.05 1.038-.29-3.41 1.933-5.449 3.3-5.657 4.02-.056.194-.008.339.042.427.043.072.112.125.194.147.082.022.156.003.242-.033l1.846-1.086c-.037.059-.033.108-.007.166-1.136.765-1.175.903-1.203 1.011-.009.03-.012.066-.011.102-2.528 1.65-4.179 2.884-4.312 3.363-.044.157-.004.273.037.345.088.151.281.203.433.115l7.177-4.146-6.933 4.21c-.147.089-.197.28-.11.43.049.083.13.143.226.169.168.043.434.111 3.686-1.64l-.563.344c-.146.09-.195.28-.108.429.05.087.15.2.341.245.392.092 1.214-.208 2.44-.85-.4.252-.787.492-1.157.724-1.97 1.233-3.492 2.192-4.525 2.85-1.965 1.256-1.965 1.256-1.795 1.55.024.041.056.086.103.129-1.971 1.28-1.894 1.414-1.76 1.648.046.079.138.183.313.225.438.106 1.578-.37 3.357-1.348-.018.027-.03.057-.04.088-.024.082-.012.171.03.246.05.084.131.145.23.17.106.027.248.063 1.066-.298-.894.548-1.664 1.04-2.3 1.47-1.646.846-3.14 1.607-4.43 2.26-.082.04-.138.108-.163.192-.024.084-.014.174.03.25.043.076.131.174.299.216.303.075.997-.15 2.06-.652.005.013.011.025.017.035.043.073.112.127.194.15.046.01.093.011.14.003L1.99 34.737c-.15.088-.2.281-.113.433.038.07.105.152.209.22-.082.097-.098.242-.032.36.087.151.28.205.431.12l.74-.417c.101-.02.207-.048.318-.078l.007.01c.048.085.13.145.229.171.087.023.254-.008.505-.094-.406.386-.654.712-.731.976-.073.248-.012.43.049.539.055.093.164.216.383.269.45.11 1.512-.22 3.05-.89C3.222 38.466.82 39.781.76 39.814c-.071.036-.13.11-.153.192-.024.083-.012.171.03.245.07.12.213.28.497.349.453.11 1.25-.059 2.354-.478C1.493 41.587.252 42.736.042 43.441c-.029.096-.041.183-.042.261v.03c.003.152.047.269.094.348.087.153.282.204.434.117l8.666-5.007c-3.584 2.385-3.69 2.774-3.748 2.989-.04.144-.002.251.035.318.076.129.18.23.31.308l-1.844 1.092c-.151.09-.201.283-.113.434.088.151.28.202.433.115l2.125-1.228c-.054.21-.001.366.054.462.087.15.28.203.433.116l3.166-1.83c1.725-.707 3.87-1.758 6.306-3.056-4.636 2.623-9.151 5.16-13.336 7.498-.076.045-.128.11-.15.193-.023.082-.012.169.031.242.06.108.187.247.438.308l.08.017-3.069 1.835c-.147.09-.196.277-.112.429.084.149.27.205.423.125.517-.27 3.262-1.707 7.376-3.891 1.172-.55 2.647-1.29 4.514-2.284l-7.037 4.25c-.15.09-.198.283-.11.433.089.15.28.2.432.112l3.7-2.136c-4.37 2.77-4.449 3.061-4.496 3.237-.026.094-.013.191.034.273.01.016.02.033.034.05l-1.06.62c-.152.088-.204.282-.115.433.039.069.099.116.168.14-.04.047-.064.085-.073.119-.024.083-.013.187.031.26.05.086.135.192.284.271-2.004 1.527-2.135 1.983-2.207 2.243-.061.214-.01.37.043.462.042.073.111.126.194.147.08.023.166.012.238-.031l9.01-5.234c7.86-3.862 20.773-11.573 32.943-19.11 11.213-6.494 21.405-12.382 27.595-15.93-7.316 4.522-20.382 12.2-32.379 19.217-6.696 3.837-13.402 7.741-19.256 11.26-3.213 1.886-6.15 3.612-8.648 5.094-9.07 5.378-9.024 5.457-8.806 5.835.054.092.153.209.335.284-.665.576-1.059 1.019-1.14 1.306-.056.202-.008.348.043.435.027.045.062.084.103.116-.67.482-1.022.82-1.081 1.03-.033.114-.02.228.036.323.043.075.131.14.215.16.296.076 1.665-.633 5.449-2.9-.024.201.03.351.086.45.01.019.024.038.04.059-2.288 1.47-2.336 1.65-2.37 1.775-.022.081-.01.19.032.262.043.074.115.129.195.15.122.032.238.064 6.312-3.395 1.185-.625 2.615-1.446 4.281-2.448 4.984-2.86 12.35-7.118 23.238-13.437L6.689 58.895c-.148.09-.197.283-.11.433.09.151.281.201.432.114l14.399-8.319-13.95 8.234c-.15.088-.2.28-.112.432.057.101.176.234.407.289.042.01.088.016.138.02L4.642 62.02c-.15.088-.2.28-.115.432.058.098.174.228.406.285.497.124 1.673-.216 3.522-1.015l-.011.033c-.024.081-.012.171.03.246.067.115.202.266.468.328l.045.01c-1.532.931-2.41 1.467-2.448 1.49-.15.092-.197.286-.108.435.09.148.276.191.434.11l4.368-2.585c3.146-1.313 8.968-4.856 17.125-10.129l.198-.116c15.954-8.712 37.465-20.771 48.292-28.2.859-.412 1.487-.676 1.856-.774-.207.27-.71.737-1.795 1.54L39.662 46.364C22.306 56.138 5.499 65.259 5.324 65.353c-.076.04-.13.11-.153.193-.025.083-.013.17.028.245.122.209.325.349.607.415.162.038.362.048.597.03l-.857.513c-.15.09-.2.282-.114.432.043.073.116.13.198.15.033.009.067.017.232-.05l.009.014.098-.058c.388-.175 1.262-.634 3.352-1.803.698-.266 1.477-.595 2.33-.98l-.77.457c-.15.09-.2.282-.112.433.047.081.142.19.326.234.223.053.618-.032 1.18-.249-1.17.895-1.233 1.13-1.275 1.286-.04.146-.001.257.036.323.025.043.052.083.083.12l-1.483.868c-.151.088-.202.28-.116.432.054.091.159.209.368.26.47.118 1.672-.27 3.448-1.06.092.147.28.194.429.109l.848-.49c-.208.181-.384.35-.527.504l-6.588 3.807c-.15.086-.203.276-.119.428.084.152.275.207.428.126.055-.03 1.718-.922 4.51-2.43-2.635 1.607-3.898 2.494-3.98 2.794-.025.095-.014.193.034.276.044.076.118.13.202.15.085.02.173.004.248-.046l1.967-1.315c-.021.097-.008.193.039.276.054.092.146.147.245.157-.225.228-.253.335-.276.417-.031.112-.018.224.035.317.021.036.05.07.082.096l-1.495.874c-.15.088-.201.281-.115.433.114.197.303.328.563.392 1.456.358 5.897-1.65 12.423-5.285l-6.692 4.014c-.148.09-.197.282-.11.432.042.072.114.129.196.15.043.01.082.022.241-.039v.001l.004-.002c.677-.257 3.457-1.773 17.247-9.76 3.963-2.295 8.374-4.859 12.888-7.487l-19.24 11.55c-1.478.87-2.856 1.696-4.124 2.477l-10.092 6.058c-.149.088-.198.281-.11.43.039.07.12.163.274.202.156.04.453-.019.887-.172-.342.385-.556.72-.636.999-.072.252-.052.478.058.67.072.123.217.283.504.353.114.028.251.038.408.03-.01.025-.017.05-.024.075-.077.265-.058.5.057.698.087.152.281.205.432.116l71.104-41.08c-1.594 1.28-5.496 3.913-14.6 9.301C61.95 53.494 50.452 60 40.31 65.739 21.219 76.541 16.025 79.56 15.848 80.207c-.022.081-.009.196.033.27.088.152.281.203.433.116L51.43 60.305 16.393 81.18c-.15.088-.2.28-.113.43.12.208.322.347.6.411.21.051.488.052.823.007.004.046.018.091.042.132.115.201.312.336.582.4.376.089.963.018 1.737-.195-.077.099-.09.238-.024.353.056.096.17.224.397.28.236.057.637.156 2.328-.51.07.082.182.167.36.21.072.017.16.04.291.044-.051.053-.078.096-.088.132-.023.082-.011.185.032.258.052.09.14.156.247.183.166.042.445.114 2.885-1.102.115.1.26.171.436.214.189.046.424.053.703.026-.045.091-.045.203.01.298.042.074.112.127.194.15.043.01.077.02.236-.05l.007.013.141-.084c.277-.14.783-.42 1.745-.976 2.668-1.02 6.695-3.172 11.7-6.117l-13.244 8.01c-.15.09-.199.284-.109.433.089.15.28.2.431.113h.001c4.165-2.433 9.12-5.318 14.361-8.37l-2.667 1.732-3.21 2.086c-4.062 2.26-8.009 4.441-11.683 6.459-.07.04-.13.11-.153.193-.023.082-.013.17.031.243.122.21.326.352.61.417 1.139.265 4.101-.888 8.16-2.933-2.965 2.008-4.832 3.513-5.036 4.228-.063.218-.01.378.044.472.088.151.28.204.433.115l7.82-4.518c-1.046.832-1.116 1.088-1.162 1.254-.046.163-.005.283.038.357.087.151.28.204.432.116l.778-.448c-.577.543-.926.987-1.018 1.32-.072.255-.011.44.052.547.04.075.111.128.192.15.17.045.17.045 8.212-4.594l.556-.321c-7.329 4.508-7.256 4.634-7.05 4.991.058.1.176.231.41.288.108.025.247.03.415.01.004.043.017.085.038.121.027.045.064.097.118.145l-.507.296c-.149.089-.2.282-.113.432.04.068.103.149.206.216-1.164.693-1.51.976-1.56 1.147-.022.083-.011.191.033.265.051.09.14.156.248.183.203.052.543.14 4.009-1.676-.147.163-.103.24-.042.344.064.112.197.257.46.32.61.143 1.996-.312 3.925-1.197l-1.147.702c-.146.09-.194.28-.108.43.041.072.114.128.196.15.13.033.205.05 2.387-1.213-.344.308-.544.551-.593.727-.044.163-.004.284.04.359.042.075.114.128.197.15.083.02.174.006.246-.04 1.5-.94 3.082-1.927 4.714-2.94-.092.113-.108.177-.124.228-.03.107-.017.214.034.302.051.089.152.201.353.25.064.016.143.02.235.015-.033.086-.027.186.022.272.054.092.147.147.246.156-3.617 2.246-3.566 2.336-3.391 2.638.044.074.114.127.197.149.084.021.171.009.244-.037 9.63-5.943 23.406-14.251 28.941-17.16-2.198 1.37-5.711 3.448-8.946 5.362-13.996 8.278-14.494 8.757-14.19 9.282.048.084.128.143.225.168.198.05.498.126 5.15-2.542-.015.037-.022.074-.024.112-4.599 2.76-4.511 2.912-4.338 3.213.054.09.141.156.25.182.483.117 1.94-.714 6.293-3.508.029.04.068.075.11.1-.278.293-.21.408-.131.545.042.075.12.133.202.155.106.027.272.07 3.316-1.689 1.54-.89 3.818-2.243 7.2-4.29.149-.091.197-.286.106-.437-.088-.148-.28-.196-.43-.11l-.024.015c.04-.092.037-.199-.018-.29-.02-.037-.048-.066-.08-.09.61-.33 1.226-.658 1.836-.98.077-.04.132-.11.156-.193.024-.083.013-.171-.029-.247-.012-.021-.027-.04-.043-.06.094-.054.184-.109.273-.16 1.955-1.15 1.955-1.15 1.779-1.455-.05-.088-.154-.204-.354-.249-.058-.012-.128-.016-.206-.012.165-.117.285-.21.369-.283l.002-.001v-.001c.234-.21.19-.286.108-.428-.042-.075-.116-.128-.198-.15-.083-.02-.175-.007-.243.038-6.078 3.752-14.67 8.94-18.72 11.14 2.714-1.75 7.713-4.708 11.975-7.229 11.644-6.888 11.604-6.957 11.344-7.408-.05-.086-.135-.15-.239-.176-.082-.02-.185-.047-.56.084 1.598-.945 3.152-1.862 4.625-2.73.15-.088.201-.282.112-.433-.087-.15-.28-.203-.432-.114l-2.094 1.208c.863-.54 1.319-.845 1.544-1.043l.035-.023-.003-.005c.226-.209.18-.29.104-.42-.043-.076-.115-.13-.202-.15-.02-.005-.039-.008-.06-.008.803-.448 1.588-.886 2.352-1.31.081-.051.13-.112.15-.193.024-.082.013-.17-.03-.245-.04-.07-.12-.16-.276-.2-.113-.028-.282-.07-.934.17.081-.092.13-.17.147-.233.028-.104.016-.21-.036-.298-.04-.074-.128-.138-.21-.16-.134-.034-.546.114-1.371.527 1.172-.791 2.027-1.456 2.524-1.987l3.793-2.325c.147-.089.195-.279.109-.428-.05-.088-.135-.151-.24-.177-.167-.043-.445-.115-3.208 1.32 1.448-.967 2.577-1.8 3.331-2.474.197-.12.304-.184.315-.192.092-.056.145-.151.15-.252.332-.343.536-.631.6-.861.07-.242.012-.416-.048-.522-.045-.075-.118-.13-.201-.15-.085-.02-.178-.005-.249.044-.022.014-.454.3-1.223.803.05-.094.053-.211-.004-.31-.05-.088-.146-.2-.317-.27l1.427-.924c.143-.092.187-.281.099-.428-.085-.146-.272-.198-.422-.118-1.546.827-6.816 3.655-13.38 7.254 3.652-2.16 7.21-4.255 10.485-6.178.151-.088.202-.282.115-.434-.09-.15-.282-.202-.433-.115v.001C71.39 67.064 42.003 84.084 37.344 86.721c.419-.533 1.568-1.573 4.538-3.586L82.95 59.408c6.401-3.543 6.655-3.744 6.72-3.979.024-.083.012-.179-.03-.253-.088-.15-.283-.203-.434-.115l-6.612 3.82c-1.179.652-2.456 1.355-3.778 2.085-15.045 8.296-29.87 16.578-37.336 21.67l-3.038 1.754c1.64-1.21 4.497-3.054 8.166-5.312L93.53 51.97c.151-.087.203-.28.118-.43-.086-.153-.28-.207-.43-.122-.142.077-14.172 7.9-28.103 15.963-8.564 4.952-14.57 8.531-18.788 11.128l-16.07 9.285c.496-.492 1.45-1.265 3.209-2.483.012.004.023.008.034.01.036.01.07.02.234-.045l.005.011.08-.046c.994-.436 5.446-2.904 27.927-15.978 13.691-7.961 27.499-16.044 27.637-16.125.149-.087.201-.278.116-.43-.085-.15-.274-.206-.426-.123-1.062.57-3.582 1.93-7.015 3.802l1.546-.953c9.421-5.818 9.322-5.99 9.105-6.368-.042-.073-.113-.127-.194-.149-.082-.021-.18-.014-.241.034-3.605 2.12-7.763 4.56-12.194 7.155l1.585-1.04c2.602-1.496 4.944-2.84 6.9-3.96l.002-.001c.072-.04.124-.111.147-.192.021-.081.01-.169-.033-.241-.035-.062-.077-.118-.126-.167l.294-.197c.142-.095.183-.288.092-.433-.09-.145-.28-.19-.428-.106v.001l-.356.208.018-.06c.045-.162.005-.284-.037-.357-.043-.073-.114-.127-.196-.15-.092-.023-.174-.047-2.806 1.426-1.289.48-2.9 1.226-4.78 2.193l13.6-8.227c.095-.057.15-.155.154-.258v-.027c-.003-.05-.016-.1-.043-.144-.042-.074-.124-.137-.206-.158-.238-.062-.554-.147-13.232 7.163 2.373-1.425 4.475-2.731 6.251-3.894l4.545-2.733c.149-.09.197-.281.112-.432-.021-.034-.047-.066-.078-.093 1.08-.883 1.717-1.57 1.847-2.035.072-.255.013-.438-.05-.547-.044-.075-.115-.128-.201-.149-.084-.02-.17-.007-.245.041-.094.06-5.421 3.467-13.071 8.269-2.04 1.076-4.42 2.338-7.013 3.723 9.936-6.18 17.381-10.92 17.49-10.99.146-.092.191-.286.1-.434-.02-.031-.045-.059-.073-.081l.612-.358c.15-.088.2-.281.112-.434-.023-.04-.055-.075-.093-.1 1.337-.883 2.193-1.452 2.455-1.627.144-.095.185-.287.094-.433-.068-.107-.188-.161-.306-.147.051-.097.051-.218-.01-.318-.092-.146-.284-.18-.43-.106l-1.338.786c.144-.202.241-.383.285-.54.07-.24.052-.454-.052-.635-.044-.076-.118-.13-.201-.15-.087-.021-.18-.004-.248.043-6.54 4.32-14.8 9.686-23.423 15.159L30.397 75.062c-4.05 2.175-7.879 4.21-11.318 6.022-.819.261-1.45.383-1.87.348l75.183-44.795c.15-.087.2-.282.111-.43-.087-.152-.28-.203-.43-.116l-7.893 4.56c1.832-1.29 2.882-2.202 3.01-2.67.05-.184.006-.32-.041-.401-.09-.151-.282-.204-.433-.116L41.499 63.587c3.765-2.402 7.847-5.031 12.216-7.852 5.62-3.63 11.034-7.126 15.883-10.186 6.872-3.724 13.384-7.188 18.82-10.039.077-.04.134-.11.159-.192.024-.083.013-.172-.03-.248-.03-.052-.075-.112-.146-.165 1.323-.841 1.986-1.374 2.068-1.658.031-.11.019-.223-.036-.317-.087-.15-.281-.203-.433-.116l-5.48 3.167c-.43.212-.894.451-1.39.716 2.035-1.207 3.764-2.236 5.103-3.034.98-.585 1.75-1.046 2.273-1.362.264-.158.464-.28.599-.365.229-.14.466-.287.308-.559-.052-.092-.144-.158-.253-.186-1.215-.31-12.784 6.635-37.059 21.45l-3.55 2.166c-1.78.961-3.513 1.9-5.203 2.82L86.052 33.19c.11-.067.17-.192.15-.317-.018-.127-.109-.23-.232-.263-.038-.01-.069-.018-.231.057l-.013-.022-.286.171c-1.177.622-5.239 2.992-20.219 11.735-7.47 4.36-16.419 9.58-24.646 14.363L85.548 31.93c.15-.09.198-.283.11-.433-.089-.15-.28-.202-.432-.114L71.401 39.37c.98-.576 1.927-1.135 2.835-1.674 12.281-7.282 12.104-7.59 11.856-8.02-.05-.086-.134-.148-.233-.173-.186-.045-.667.135-1.53.587-.04-.044-.093-.074-.148-.089.864-.571 1.555-1.06 2.065-1.46l1.668-.965c.152-.087.203-.28.118-.432-.087-.151-.279-.205-.43-.12l-.329.183c-.01-.035-.024-.064-.038-.09-.016-.026-.033-.053-.05-.077.535-.412.831-.701.876-.867.029-.105.017-.214-.035-.303-.088-.152-.28-.204-.433-.116l-1.44.83h-.142c-.01-.026-.02-.05-.033-.073-.088-.15-.28-.203-.433-.115l-.55.317c-.496.104-1.07.27-1.717.494-.009-.02-.018-.037-.027-.053-.088-.151-.282-.203-.433-.116l-1.869 1.08c-.65.278-1.347.592-2.082.939.146-.092.29-.182.435-.271 5.418-2.974 7.745-4.423 7.904-4.976.03-.11.018-.221-.035-.314-.021-.038-.05-.07-.085-.096l.377-.252c.142-.095.183-.286.092-.431-.09-.145-.279-.192-.427-.107h-.002L61.554 37.567C51.426 42.944 40.406 48.819 31.447 53.96c15.75-9.447 37.896-22.245 55.07-32.015.06-.044.126-.11.146-.193.024-.08.012-.168-.03-.24-.13-.228-.348-.38-.647-.451-.16-.039-.351-.051-.573-.038-.005-.015-.011-.029-.02-.043-.09-.15-.28-.188-.433-.113l-.572.333c-.845.219-1.917.625-3.18 1.195 1.025-.672 1.69-1.11 1.924-1.265.145-.095.186-.288.094-.434-.092-.145-.287-.193-.432-.103l-3.402 2.032c.02-.039.036-.075.045-.11.055-.19.009-.33-.04-.414-.055-.094-.148-.162-.262-.192-.051-.012-.112-.028-.225-.02.306-.22.599-.439.879-.65l5.41-3.2c.149-.088.2-.28.113-.431-.138-.24-.365-.398-.675-.47-.248-.06-.565-.057-.946.003-.002-.135-.035-.258-.1-.368-.042-.075-.114-.13-.197-.15-.131-.033-.14-.035-2.35 1.355-1.06.438-2.294 1.031-3.677 1.754l2.244-1.328c.15-.089.2-.281.112-.432-.08-.14-.193-.252-.333-.336l.938-.555c.151-.088.201-.282.114-.433-.088-.15-.281-.202-.434-.114l-1.616.934c-.754.059-1.817.388-3.14.945l2.034-1.221c.148-.09.198-.283.11-.435-.09-.148-.283-.199-.433-.111l-3.635 2.119c.14-.111.275-.219.397-.324 3.06-1.756 5.82-3.339 8.159-4.676.082-.03.128-.111.148-.192.022-.083.011-.17-.03-.242-.138-.237-.365-.395-.677-.47-.319-.076-.75-.053-1.287.058.005-.158-.04-.278-.087-.359-.044-.074-.113-.128-.196-.148-.083-.022-.176-.008-.243.036-.852.517-1.714 1.038-2.59 1.568-2.236.984-5.116 2.53-8.456 4.472-.053.025-.102.053-.154.08 4.848-3.09 7.933-5.08 8.005-5.127.142-.093.188-.282.1-.43-.088-.146-.276-.197-.426-.115-1.331.732-4.52 2.487-8.862 4.9 11.76-7.083 11.594-7.366 11.375-7.748-.042-.073-.113-.127-.194-.149-.15-.04-.21-.055-6.572 3.595.746-.528 1.398-1.016 1.944-1.46l1.555-.842c.078-.04.13-.11.155-.193.023-.083.011-.17-.03-.245-.037-.062-.09-.11-.154-.141.1-.12.188-.232.26-.338.058-.047.096-.11.11-.18.053-.096.091-.185.116-.267.081-.285.015-.487-.055-.608-.087-.15-.282-.203-.433-.116l-.34.197c-.007-.022-.017-.044-.03-.065-.09-.148-.28-.199-.43-.112l-.003.001L6.435 48.822c5.292-3.793 34.746-21.029 55.361-32.979l13.26-7.66c.151-.087.203-.282.116-.434-.087-.15-.282-.203-.434-.116-.09.052-4.892 2.816-11.911 6.883l-.437.251c2.167-1.465 3.854-2.723 4.893-3.693l.415-.252c.114-.067.169-.195.15-.319.32-.352.52-.652.589-.894.083-.283.018-.484-.05-.602l-.025-.036c2.205-1.543 2.295-1.87 2.35-2.068.04-.15.002-.265-.037-.332-.089-.152-.282-.205-.433-.117l-.476.275c.017-.196-.036-.343-.091-.44-.088-.152-.281-.204-.433-.116L62.845 9.87c.832-.559 1.368-.92 1.55-1.044l-.004-.007c.126-.1.21-.227.102-.414-.044-.077-.118-.131-.205-.152-.084-.019-.172-.004-.245.045-.475.293-28.386 16.823-46.002 27.255-4.462 2.435-7.747 4.351-9.673 5.728-.666.393-1.265.749-1.796 1.061-.118 0-.224-.01-.316-.031-.064-.015-.109-.033-.14-.051.927-1.209 10.172-6.927 22.083-13.99 5.46-3.102 11.144-6.387 16.243-9.444l21.271-12.29c.153-.087.204-.281.118-.432-.088-.152-.281-.205-.433-.119-.039.024-1.156.657-3.051 1.742l-.022-.047c-.082-.151-.27-.21-.423-.132l-1.612.82c.728-.637 1.169-1.142 1.265-1.481.064-.231.01-.396-.046-.494-.088-.151-.283-.203-.434-.116L57.799 8.17c.537-.328.953-.583 1.274-.784 4.664-2.756 6.674-4.103 6.785-4.514.028-.098.017-.197-.033-.282-.042-.074-.13-.171-.294-.211-.4-.1-1.505.358-3.292 1.328.037-.066.064-.126.079-.18.057-.208.01-.357-.043-.447-.044-.076-.115-.13-.2-.15-.084-.02-.17-.004-.245.04-.038.024-1.052.673-2.786 1.774-.01-.08-.037-.146-.064-.194-.043-.073-.127-.135-.21-.158-.098-.024-.216-.056-1.35.51.206-.22.361-.42.465-.6 1.184-.65 1.865-1.022 1.895-1.037.076-.04.13-.11.153-.192.022-.083.012-.17-.032-.245-.04-.073-.121-.134-.203-.156-.146-.037-.59.14-1.755.773-.092-.141-.278-.187-.424-.102l-3.617 2.09.002-.01c.028-.1.015-.205-.034-.292-.055-.095-.147-.165-.26-.196l3.881-2.297c.148-.088.2-.28.113-.431-.019-.033-.043-.061-.073-.086.533-.427.837-.753.9-.974.045-.167.003-.291-.04-.367-.047-.08-.138-.184-.317-.228-.558-.139-2.277.618-5.047 2.145-.028.008-.054.021-.082.035-.067.04-.13.08-.197.118-1.244.692-2.69 1.532-4.328 2.508.428-.397.688-.716.752-.945.056-.2.008-.348-.043-.435-.05-.088-.148-.2-.33-.261l4.254-2.459c.072-.042.127-.112.148-.193.022-.08.01-.168-.032-.241-.049-.084-.13-.146-.23-.17-.43-.106-2.194.864-7.366 4.09-2.505 1.243-6.292 3.53-11.119 6.581-1.835 1.071-3.715 2.17-5.59 3.27-5.607 3.285-10.28 6.048-13.939 8.238 8.838-5.52 23.338-14.484 32.37-20.055.147-.09.195-.28.108-.428-.061-.107-.187-.247-.428-.304-.091-.02-.194-.027-.314-.02L48.397.966c.149-.091.196-.286.105-.436-.06-.098-.167-.152-.275-.152-.056 0-.112.015-.16.046zm5.371 3.08c.036-.12.049-.234.043-.342 2.077-1.152 3.577-1.882 4.21-1.99-.498.574-2.32 1.774-4.933 3.34.365-.393.597-.732.68-1.008zm-25.5 10.323c2.671-1.775 5.402-3.586 7.934-5.22L43.24 4.11c1.478-.807 2.36-1.186 2.881-1.355-2.622 1.62-10.971 6.773-19.22 11.886-1.058.657-2.076 1.288-3.056 1.894 1.275-.838 2.64-1.743 4.092-2.708zM60.45 5.44c1.871-1.097 3.319-1.888 4.172-2.242-.872.621-2.56 1.669-4.809 3.008-.03-.014-.065-.028-.104-.037-.055-.013-.12-.017-.2-.012.342-.253.657-.49.94-.717zM39 11.871c6.456-3.864 11.925-7.174 13.682-8.239-.385.618-1.392 1.505-2.873 2.588-1.093.628-2.343 1.348-3.779 2.176-4.003 2.256-8.538 4.746-12.79 7.076 1.904-1.195 3.846-2.41 5.76-3.6zM17.383 23.045c5.346-3.14 12.392-7.572 20.32-12.594 1.946-1.234 3.91-2.479 5.75-3.636l3.524-2.044c.99-.435 1.397-.498 1.566-.47-.244.602-2.855 3.024-19.85 12.81-7.455 4.288-14.958 8.421-18.154 10.171 1.839-1.08 4.132-2.51 6.844-4.237zm43.46-18.691c-.152.13-.327.277-.53.44-.764.443-1.61.947-2.533 1.507 1.23-.78 2.264-1.44 3.063-1.947zm-6.97 2.154c.839-.463 1.605-.885 2.29-1.26-.392.323-.869.686-1.422 1.078-1.96 1.08-4.908 2.748-9.365 5.323-1.515.875-3.204 1.855-5.086 2.951 5.017-3.007 9.948-5.958 13.583-8.092zm1.046.444c1.435-.794 2.517-1.372 3.159-1.681-.103.098-.23.207-.38.326-1.358.86-3.005 1.901-4.863 3.07-1.633.937-3.537 1.985-5.593 3.093 3.204-1.866 5.824-3.491 7.677-4.808zm-2.269-1.144c-.835.628-2.418 1.656-4.56 2.981l-7.743 4.472c5.522-3.536 10.368-6.566 12.303-7.453zm1.724 9.687l14.57-8.417c-.05.072-.11.148-.18.229l-15.987 9.237c.546-.357 1.08-.708 1.597-1.05zm6.189-8.19c-.452.486-1.381 1.279-3.202 2.567-3.113 1.601-7.565 3.908-12.63 6.58l15.832-9.147zm7.02 2.577c-.082.113-.184.236-.306.368-.139.039-.343.112-.658.252l.965-.62zm-2.948.545c-2.646 1.686-6.276 3.756-10.405 6.01l10.405-6.01zM21.202 12.06c-.226.155-.45.306-.67.455l-.76.41c.44-.263.916-.55 1.43-.865zm58.552 1.556c.584-.155 1.046-.208 1.372-.147l-2.944 1.686c.746-.607 1.276-1.122 1.572-1.539zm-17.007.196c-4.86 3.329-12.727 8.005-21.607 13.047l21.607-13.047zm12.164 2.584c-.046-.08-.135-.184-.301-.243 1.04-.629 1.95-1.177 2.704-1.632.461-.204.892-.382 1.289-.53-.746.705-1.98 1.628-3.604 2.72-.004-.136-.045-.241-.088-.315zM6.473 38.774c4.21-2.113 10.544-5.919 18.422-10.862l1.548-.894c7.83-4.336 16.403-8.898 24.113-12.917L4.211 40.879c-.152.086-.203.277-.118.429.013.025.03.047.05.067l-3.341 1.93c.592-.942 2.63-2.522 5.671-4.531zm1.575-4.432c6.005-3.574 12.955-7.692 19.75-11.69 1.895-.988 3.814-1.982 5.714-2.968 3.807-1.975 7.253-3.766 10.295-5.37-3.14 1.949-6.475 4.006-9.824 6.046C9.105 35.52 4.81 36.836 4.153 36.637c.007-.194.355-.804 3.042-2.572.119-.063.238-.127.362-.195-.03.163.011.282.055.358.042.073.113.127.195.147.026.007.052.01.079.01.057 0 .113-.015.162-.043zm59.756-19.107l1.535-.837c-1.9 1.245-4.191 2.659-6.765 4.187 1.906-1.216 3.664-2.343 5.23-3.35zm-7.647-.607l.156-.087-.377.228.221-.141zm-44.24 1.171c.585-.338 1.209-.69 1.86-1.052.002.004.005.01.01.015l-4.588 2.69c.733-.482 1.663-1.043 2.717-1.653zm31.538 16.625c10.15-6.034 19.77-11.817 25.846-15.483.61-.21.919-.244 1.065-.202-.001.014-.004.032-.01.054-.05.17-.197.381-.432.628-.96.625-2.03 1.298-3.19 2.01-4.645 2.667-10.416 5.989-16.586 9.551-2.657 1.474-5.399 2.978-8.152 4.48l-.662.345c.706-.462 1.412-.922 2.121-1.383zM30.881 18.382c.855-.475 1.708-.949 2.552-1.423-1.307.843-2.662 1.718-4.042 2.603-1.607.932-3.192 1.857-4.729 2.762L5.71 33.274l25.171-14.892zm52.61-.587c.392-.079.714-.096.956-.047l-1.754 1.037c.366-.374.634-.706.799-.99zm-2.646 1.057l.664-.417c.379-.154.731-.284 1.054-.39-.534.64-1.478 1.468-2.768 2.455l-8.628 5.103c-2.718 1.483-6.393 3.55-11.37 6.426-.418.24-.845.488-1.282.741 6.806-4.202 14.249-8.842 22.33-13.918zM36.932 42.698l41.696-24.612c.084.003.162.011.232.026L33.68 44.84l3.252-2.143zm-15.145 1.764c3.476-2.037 7.224-4.227 11.026-6.449 1.769-1.035 3.581-2.093 5.41-3.161l1.452-.836c10.408-5.968 20.877-11.828 27.94-15.755-2.595 1.65-5.672 3.601-9.044 5.724-9.233 5.366-21.654 13.001-35.229 21.4-2.734 1.48-5.167 2.832-7.269 4.047-1.009.582-1.941 1.134-2.792 1.653C9.337 53.17 7 54.209 5.614 54.71c2.537-1.832 7.31-4.95 16.173-10.25zm19-20.17c4.148-2.17 7.937-4.166 11.313-5.983-7.663 4.539-16.985 9.924-26.352 15.265 4.843-2.875 10.055-6.115 15.039-9.283zM19.94 18.322c-2.241 1.442-4.275 2.702-5.738 3.501l5.738-3.5zm56.478.287L53.567 31.813c9.581-6.163 18.42-11.545 22.85-13.203zm-22.819 4.442c2.113-1.171 4.146-2.294 6.066-3.352-3.023 1.923-6.146 3.897-9.302 5.874-5.052 2.813-10.41 5.728-15.589 8.516 6.611-3.903 13.074-7.697 18.825-11.038zM21.28 19.793c-1.441.93-2.879 1.854-4.266 2.737-2.2 1.289-3.902 2.237-5.222 2.932 2.585-1.569 5.842-3.512 9.488-5.669zm52.437 2.666c.677-.391 1.333-.763 1.962-1.113-5.34 3.345-12.986 8.119-21.32 13.239 7.11-4.641 13.95-9.002 19.358-12.126zm-29.552-1.066c-.67.43-1.337.859-2.008 1.288l-3.252 1.878c-.738.385-1.48.772-2.215 1.153l7.475-4.319zm40.577.343c.407-.087.742-.114.995-.076-2.083 1.187-10.925 6.23-21.782 12.503-1.38.797-2.793 1.615-4.229 2.447l25.016-14.874zm-37.526.296c-3.39 2.116-6.97 4.334-10.56 6.53-7.102 4.345-13.161 7.95-18.09 10.758-2.59 1.398-5.13 2.759-7.575 4.062 12.13-7.227 25.52-15.139 36.225-21.35zm29.316 3.418c1.762-.965 3.34-1.776 4.69-2.4-3.072 1.792-6.376 3.72-9.835 5.736 1.899-1.228 3.63-2.35 5.145-3.336zm-5.313.859C65.06 30.199 57.041 34.9 48.5 39.747L71.22 26.31zM7.958 27.824c.248-.06.536-.151.865-.275-.923.522-1.69.924-2.252 1.17.363-.24.828-.542 1.387-.895zm78.523-.271c-.067.072-.152.151-.254.241l-.556.312c.296-.198.568-.383.81-.553zm-75.562 31.49c2.302-1.143 5.708-3.186 10.11-5.981l42.669-25.243c-6.585 4.155-14.036 9.08-21.39 13.936l-3.004 1.986-.505.302C14.756 58.471 7.726 61.63 5.749 62.103l5.17-3.06zM61.96 39.823L81.51 28.527c.178-.075.351-.147.52-.216-.104.1-.225.207-.363.325L61.853 40.083 59.85 41.17l2.112-1.347zm15.9-11.058c-.252.165-.503.332-.757.497-.418.228-.845.46-1.28.695l2.036-1.192zM31.641 42.778c6.02-3.518 12.552-7.308 18.986-11.029 1.536-.807 3.011-1.586 4.418-2.334-8.98 5.225-18.36 10.673-26.54 15.408 1.012-.659 2.058-1.34 3.136-2.045zM7.58 36.787c3.361-1.86 7.676-4.259 12.409-6.92-4.14 2.436-8.118 4.776-11.646 6.848-.919.467-1.647.793-2.137.945.329-.223.793-.517 1.374-.873zm71.131-5.17l2.266-1.308c-.856.515-1.78 1.067-2.767 1.65l.501-.342zm4.802-.362l.272-.156c-1.894 1.264-5.198 3.278-9.33 5.732 3.808-2.404 7.027-4.401 9.058-5.576zm-36.48.683l-.06.041-.082.048.142-.089zm-23.488 1.37c.834-.444 1.687-.893 2.557-1.352L9.49 41.553c-.223.09-.436.171-.64.246l14.695-8.492zm-1.24 8.174c4.688-2.499 9.343-4.99 13.844-7.42-9.636 5.587-18.971 11.006-25.392 14.734-1.099.533-2.076.978-2.916 1.32 4.527-2.714 9.433-5.641 14.465-8.634zm60.94-5.648c.876-.505 1.693-.972 2.445-1.395-4.101 2.438-10.254 6.08-17.187 10.178 5.571-3.373 10.752-6.477 14.743-8.783zm-68.467 29.82L61.861 38.12l2.176-1.154 1.908-1.014c-8.188 4.693-17.71 10.567-26.627 16.218l-8.444 4.88c-2.9 1.637-5.49 3.13-7.728 4.464l-6.61 3.82c-.79.404-1.488.753-2.102 1.05-.119.038-.235.075-.348.108.159-.249.39-.53.692-.838zM45.39 36.37c-.704.46-1.411.924-2.117 1.389l-5.019 2.9 7.136-4.29zM5.122 38.143c.053.08.151.173.322.215.026.006.056.011.087.014-.067.058-.108.142-.112.228-1.65.803-2.91 1.296-3.659 1.391.795-.436 1.938-1.062 3.362-1.848zm85.693.824c-.258.385-.73.872-1.397 1.446L81.28 45.19c4.655-3.015 8.096-5.274 9.536-6.224zM7.653 56.26c-.003-.028.006-.063.012-.086.056-.19.218-.425.48-.698 1.47-.888 3.244-1.972 5.377-3.282 3.474-1.943 8.072-4.57 14.174-8.124.921-.497 1.847-.996 2.77-1.491.617-.333 1.228-.662 1.84-.99-.305.198-.608.395-.909.593-13.837 8.08-20.458 12.076-23.64 14.091-.042 0-.076-.005-.104-.013zm40.856-4.393c5.616-3.311 11.233-6.643 16.292-9.654-.25.16-.505.32-.762.484-1.355.865-2.758 1.76-4.196 2.675-3.942 2.282-8.019 4.633-11.972 6.914-1.17.673-2.331 1.344-3.48 2.006 1.32-.776 2.691-1.583 4.118-2.425zm43.788-9.25c-.358.392-1.027.997-2.264 1.917-.463.225-1.053.545-1.783.967-.279.162-.578.336-.897.528-.095-.077-.23-.094-.345-.035l-.17.088c2.532-1.602 4.432-2.811 5.46-3.465zm-81.508.152c-2.272 1.353-4.27 2.545-5.896 3.516-.31.105-.558.176-.752.22 1.164-.651 3.51-1.967 6.648-3.736zm28.662 4.462c2.392-1.347 4.794-2.704 7.178-4.06l-.331.214c-4.852 2.82-9.606 5.576-14.053 8.151l7.206-4.305zM16.88 68.616l29.28-16.918c4.936-2.723 9.528-5.264 13.717-7.596L14.144 70.843c-.897.47-1.613.823-2.124 1.05.849-.68 2.525-1.803 4.861-3.277zM30.494 55.24c5.05-2.918 10.82-6.099 16.681-9.267L17.954 63.061c2.983-2.139 7.385-4.842 12.54-7.82zm-5.118-5.721c-1.619 1.05-3.174 2.05-4.641 2.98l-10.162 6.012c-.814.408-1.385.655-1.787.8l16.59-9.792zm.04 21.341L60.74 50.453c-2.326 1.493-4.783 3.079-7.368 4.749-15.186 9.806-32.148 20.76-37.912 22.868 1.587-1.623 5.14-4.142 9.955-7.209zM4.907 50.937c.18-.115.424-.265.732-.445-.222.157-.43.305-.623.447-.038 0-.075 0-.109-.002zm1.827-.435c.009.01.018.017.028.024l-.127.044c.033-.022.065-.046.099-.068zm10.904.514l-.357.22c-.7.433-1.35.83-1.954 1.192l-1.362.782c1.137-.683 2.366-1.417 3.673-2.194zm30.206 2.697l4.49-2.595-8.305 4.985c1.25-.78 2.522-1.578 3.815-2.39zM5.282 51.528c.374-.053.838-.174 1.381-.354l-3.38 1.964c.382-.367 1.005-.883 2-1.61zm49.809 17.374c12.87-7.478 25.267-14.65 30.399-17.544.149-.055.29-.105.43-.152-.231.168-.483.345-.758.535L45.914 74.834l-.328.185c2.957-1.918 6.188-4.002 9.505-6.117zm7.685-6.385c6.447-3.781 12.882-7.54 18.21-10.612L48.492 71.557c4.351-2.688 9.169-5.75 14.284-9.04zM28.479 54.45l-9.094 5.406c-1.329.724-2.587 1.392-3.762 1.999 3.16-1.81 7.337-4.214 12.856-7.405zm28.608 8.704c2.24-1.363 4.474-2.728 6.663-4.076 2.889-1.567 5.694-3.077 8.305-4.472-4.112 2.557-8.532 5.284-12.966 7.985-2.343 1.427-4.581 2.78-6.711 4.059-4.333 2.376-8.565 4.68-12.447 6.793l-1.981 1.079c4.862-2.792 11.105-6.484 19.137-11.368zM4.695 54.642c-.228.174-.442.34-.642.498-.046.005-.088.008-.124.008.186-.129.443-.299.766-.506zm-.466 1.117c.372-.046.933-.183 1.825-.516-.904.531-1.67.997-2.308 1.4-.32.138-.58.238-.767.293.161-.228.523-.594 1.25-1.177zm64.15 7.924c4.408-2.575 8.621-5.04 12.26-7.173-3.487 2.135-7.536 4.587-11.814 7.16-1.12.623-2.257 1.257-3.407 1.901 1-.634 1.99-1.266 2.962-1.888zM6.167 65.618c2.38-1.293 8.033-4.368 15.2-8.32l-13.343 7.97c-.731.233-1.316.355-1.734.355-.042 0-.083-.001-.123-.005zm81.82-5.913l.437-.281.094-.029-.53.312v-.002zm2.438-.03l-.156.146c-.16.097-.427.255-.786.47l.942-.617zM54.725 80.322c1.012-.59 2.051-1.202 3.105-1.828 2.285-1.348 4.893-2.906 7.873-4.707 3.403-2.058 6.79-4.13 9.854-6.019l13.432-7.916c-3.106 2.03-9.41 6.121-16.492 10.585-2.096 1.256-4.257 2.55-6.414 3.845-1.308.785-2.569 1.541-3.777 2.268-3.59 1.957-7.125 3.867-10.343 5.604l-.718.388c1.089-.688 2.251-1.429 3.48-2.22zM12.45 60.236l-1.987 1.207c-.258.095-.488.167-.69.217.624-.33 1.531-.812 2.677-1.424zm6.735.477c-.926.584-1.745 1.106-2.471 1.576-1.281.757-2.381 1.378-3.26 1.83l5.73-3.406zm41.91 6.234c3.654-2.094 6.812-3.924 9.542-5.526l1.126-.65c-1.155.744-2.317 1.49-3.49 2.242-12.47 7.284-25.13 14.641-32.633 18.906 6.102-3.687 15.725-9.324 25.455-14.972zm-37.43 3.697l2.705-1.624c3.756-2.225 8.108-4.69 12.712-7.238-7.978 4.83-15.476 9.3-20.402 12.032 1.422-.958 3.104-2.023 4.984-3.17zm-12.006-3.94c.368-.516 2.293-1.88 5.372-3.868.386-.226.79-.466 1.211-.719-1.599 1.123-2.866 2.12-3.727 2.956l-2.826 1.652c-.01-.008-.02-.014-.03-.02zm69.256-3.31c.639-.388 1.228-.738 1.774-1.058-.454.29-.923.587-1.404.893l-2.226 1.304c.639-.397 1.259-.777 1.856-1.14zm-30.001 1.635c-6.87 4.179-13.35 7.994-18.706 10.94l18.706-10.94zm-40.649 8.818l4.314-2.522c2.04-1.062 5.313-2.855 10.606-5.873-.137.08-.273.16-.406.24-9.577 5.66-10.33 6.354-10.212 6.74-1.979.907-3.447 1.416-4.249 1.416h-.053zm3.117-7.377c-.041.082-.075.16-.1.236-.159.036-.31.065-.45.085l.55-.321zm32.442 16.845c2.512-1.545 5.59-3.412 9.005-5.468 5.516-3.223 12.203-6.989 18.95-10.715-2.287 1.473-4.805 3.116-7.538 4.91L41.745 86.388l-.041.007c.383-.539 1.856-1.617 4.12-3.08zm-18.588-1.479c3.556-1.826 10.738-5.829 25.468-14.529L29.232 81.43c-.773.27-1.392.414-1.831.414-.058 0-.113-.002-.165-.007zm-15.48-14.415c.092.02.195.032.306.037-.418.172-.756.296-1.027.384l.722-.421zm67.549.584c-2.508 1.627-5.482 3.54-8.631 5.535-2.521 1.353-5.136 2.735-7.67 4.067 5.871-3.511 11.612-6.9 16.3-9.602zm3.19.11l-.552.335c-.315.167-.652.348-1.013.545.566-.322 1.089-.617 1.565-.88zm1.132.757c-.669.437-1.359.886-2.068 1.345-5.656 3.5-19.269 11.649-26.835 16.16-.889.42-1.559.68-1.955.746 2.207-1.967 18.385-11.271 30.858-18.25zM44.41 73.32l.03-.017c-2.068 1.249-4.04 2.412-5.864 3.454l5.834-3.437zm-30.679 5.087c-.03-.007-.084-.023-.102-.053-.022-.037-.02-.097.003-.177.126-.445.702-1.082 1.654-1.877 1.011-.486 2.304-1.166 3.867-2.03.016.012.03.02.046.027-2.369 1.698-4.051 3.098-4.812 4.089-.16.03-.302.046-.424.046-.088 0-.164-.008-.232-.025zm32.87-2.053c-1.755 1.038-3.441 2.05-5.025 3.016-2.13 1.216-4.117 2.316-5.917 3.266 2.548-1.446 6.067-3.465 10.942-6.282zm27.613 2c.413-.223.79-.419 1.124-.581-.66.387-1.473.862-2.358 1.378.446-.287.857-.551 1.234-.797zm-28.812 9.893c2.485-1.518 5.157-3.143 7.918-4.813 2.317-1.24 4.927-2.61 7.507-3.965.605-.317 1.204-.632 1.793-.943l-5.328 3.265c-2.836 1.685-5.3 3.094-7.372 4.216-4.69 2.539-6.51 3.13-7.212 3.224.452-.299 1.209-.777 2.218-1.403-.029.108-.015.215.037.307.043.074.113.128.196.148.027.007.055.011.082.011.057 0 .11-.015.16-.047zm-30.65-9.316c.118-.03.243-.065.371-.104l-.462.266c.027-.052.057-.107.092-.162zm8.711 2.154c.811-.357 1.694-.771 2.647-1.236.222-.077.456-.162.7-.255l-2.841 1.694c-1.262.577-2.075.878-2.595 1.02l2.089-1.223zm-4.714.891c.224-.12.5-.265.827-.436.955-.33 2.102-.805 3.412-1.407.112.087.252.151.419.19.024.006.05.01.076.015l-.66.386c-1.867.807-3.25 1.252-4.031 1.252h-.043zm5.54-.139c.685-.312 1.499-.702 2.466-1.189l-.045.05c-.427.242-.8.455-1.13.644-.252.147-.478.278-.679.398-.412.151-.724.246-.959.304l.346-.207zm2.091 4.579l2.417-1.333c0 .055.012.112.041.163.037.063.101.116.17.144-.366.284-.387.367-.407.435-.009.033-.012.07-.01.107-.902.318-1.611.487-2.096.487-.04 0-.078-.001-.115-.003zm21.326-1.238c-.784.444-1.534.868-2.242 1.263-.354.18-.687.347-1 .5 1.002-.548 2.093-1.14 3.242-1.763zm-6.671 1.136c-.014.032-.027.06-.035.09-.05.18-.007.313.04.394l.002.004-.59.344c-.534.196-.88.283-1.103.306.334-.25.909-.636 1.686-1.138z"/>
    </defs>
    <g fill="none" fill-rule="evenodd">
        <g>
            <g>
                <g>
                    <g transform="translate(-721 -2306) translate(260 2306) translate(461) translate(0 .644)">
                        <mask id="ii9qlod6qc" fill="#fff">
                            <use xlink:href="#zows1v6zla"/>
                        </mask>
                        <path fill="url(#0kjgicrmyb)" d="M48.067.424c-1.767 1.074-3.642 2.21-5.579 3.379-1.303.729-2.85 1.665-4.616 2.78-7.817 4.691-16 9.536-21.733 12.802l24.46-14.85c.15-.091.198-.285.109-.434-.088-.15-.28-.2-.431-.113L10.382 21.26c.831-.573 1.882-1.258 3.105-2.029.358-.206.826-.484 1.443-.857 1.767-.756 4.94-2.746 9.346-5.629 6.11-3.566 12.963-7.447 18.63-10.594.065-.044.128-.11.151-.192.023-.082.01-.17-.031-.244-.058-.099-.154-.17-.274-.2-.391-.098-1.52.363-3.453 1.395-.163-.003-.382.047-.664.148.007-.013.01-.025.015-.037.032-.112.02-.226-.035-.321-.044-.076-.118-.131-.205-.15-.086-.021-.177-.002-.249.045-1.216.828-2.45 1.654-3.675 2.464-.404.229-.853.487-1.353.774-1.917 1.04-4.16 2.22-6.286 3.335l-1.129.594c1.425-.968 2.804-1.905 3.878-2.638.631-.43 1.156-.79 1.524-1.042.772-.531.818-.563.668-.823-.043-.074-.124-.135-.207-.155-.17-.042-.392.026-1.74.84.024-.078-.012-.14-.062-.226-.088-.151-.282-.203-.432-.115l-5.148 2.973c-.147.085-.2.268-.125.418-2.74 1.71-6.072 3.768-8.727 5.399-.147.09-.195.28-.11.43.054.091.142.157.251.183.174.043.51-.05 1.038-.29-3.41 1.933-5.449 3.3-5.657 4.02-.056.194-.008.339.042.427.043.072.112.125.194.147.082.022.156.003.242-.033l1.846-1.086c-.037.059-.033.108-.007.166-1.136.765-1.175.903-1.203 1.011-.009.03-.012.066-.011.102-2.528 1.65-4.179 2.884-4.312 3.363-.044.157-.004.273.037.345.088.151.281.203.433.115l7.177-4.146-6.933 4.21c-.147.089-.197.28-.11.43.049.083.13.143.226.169.168.043.434.111 3.686-1.64l-.563.344c-.146.09-.195.28-.108.429.05.087.15.2.341.245.392.092 1.214-.208 2.44-.85-.4.252-.787.492-1.157.724-1.97 1.233-3.492 2.192-4.525 2.85-1.965 1.256-1.965 1.256-1.795 1.55.024.041.056.086.103.129-1.971 1.28-1.894 1.414-1.76 1.648.046.079.138.183.313.225.438.106 1.578-.37 3.357-1.348-.018.027-.03.057-.04.088-.024.082-.012.171.03.246.05.084.131.145.23.17.106.027.248.063 1.066-.298-.894.548-1.664 1.04-2.3 1.47-1.646.846-3.14 1.607-4.43 2.26-.082.04-.138.108-.163.192-.024.084-.014.174.03.25.043.076.131.174.299.216.303.075.997-.15 2.06-.652.005.013.011.025.017.035.043.073.112.127.194.15.046.01.093.011.14.003L1.99 34.737c-.15.088-.2.281-.113.433.038.07.105.152.209.22-.082.097-.098.242-.032.36.087.151.28.205.431.12l.74-.417c.101-.02.207-.048.318-.078l.007.01c.048.085.13.145.229.171.087.023.254-.008.505-.094-.406.386-.654.712-.731.976-.073.248-.012.43.049.539.055.093.164.216.383.269.45.11 1.512-.22 3.05-.89C3.222 38.466.82 39.781.76 39.814c-.071.036-.13.11-.153.192-.024.083-.012.171.03.245.07.12.213.28.497.349.453.11 1.25-.059 2.354-.478C1.493 41.587.252 42.736.042 43.441c-.029.096-.041.183-.042.261v.03c.003.152.047.269.094.348.087.153.282.204.434.117l8.666-5.007c-3.584 2.385-3.69 2.774-3.748 2.989-.04.144-.002.251.035.318.076.129.18.23.31.308l-1.844 1.092c-.151.09-.201.283-.113.434.088.151.28.202.433.115l2.125-1.228c-.054.21-.001.366.054.462.087.15.28.203.433.116l3.166-1.83c1.725-.707 3.87-1.758 6.306-3.056-4.636 2.623-9.151 5.16-13.336 7.498-.076.045-.128.11-.15.193-.023.082-.012.169.031.242.06.108.187.247.438.308l.08.017-3.069 1.835c-.147.09-.196.277-.112.429.084.149.27.205.423.125.517-.27 3.262-1.707 7.376-3.891 1.172-.55 2.647-1.29 4.514-2.284l-7.037 4.25c-.15.09-.198.283-.11.433.089.15.28.2.432.112l3.7-2.136c-4.37 2.77-4.449 3.061-4.496 3.237-.026.094-.013.191.034.273.01.016.02.033.034.05l-1.06.62c-.152.088-.204.282-.115.433.039.069.099.116.168.14-.04.047-.064.085-.073.119-.024.083-.013.187.031.26.05.086.135.192.284.271-2.004 1.527-2.135 1.983-2.207 2.243-.061.214-.01.37.043.462.042.073.111.126.194.147.08.023.166.012.238-.031l9.01-5.234c7.86-3.862 20.773-11.573 32.943-19.11 11.213-6.494 21.405-12.382 27.595-15.93-7.316 4.522-20.382 12.2-32.379 19.217-6.696 3.837-13.402 7.741-19.256 11.26-3.213 1.886-6.15 3.612-8.648 5.094-9.07 5.378-9.024 5.457-8.806 5.835.054.092.153.209.335.284-.665.576-1.059 1.019-1.14 1.306-.056.202-.008.348.043.435.027.045.062.084.103.116-.67.482-1.022.82-1.081 1.03-.033.114-.02.228.036.323.043.075.131.14.215.16.296.076 1.665-.633 5.449-2.9-.024.201.03.351.086.45.01.019.024.038.04.059-2.288 1.47-2.336 1.65-2.37 1.775-.022.081-.01.19.032.262.043.074.115.129.195.15.122.032.238.064 6.312-3.395 1.185-.625 2.615-1.446 4.281-2.448 4.984-2.86 12.35-7.118 23.238-13.437L6.689 58.895c-.148.09-.197.283-.11.433.09.151.281.201.432.114l14.399-8.319-13.95 8.234c-.15.088-.2.28-.112.432.057.101.176.234.407.289.042.01.088.016.138.02L4.642 62.02c-.15.088-.2.28-.115.432.058.098.174.228.406.285.497.124 1.673-.216 3.522-1.015l-.011.033c-.024.081-.012.171.03.246.067.115.202.266.468.328l.045.01c-1.532.931-2.41 1.467-2.448 1.49-.15.092-.197.286-.108.435.09.148.276.191.434.11l4.368-2.585c3.146-1.313 8.968-4.856 17.125-10.129l.198-.116c15.954-8.712 37.465-20.771 48.292-28.2.859-.412 1.487-.676 1.856-.774-.207.27-.71.737-1.795 1.54L39.662 46.364C22.306 56.138 5.499 65.259 5.324 65.353c-.076.04-.13.11-.153.193-.025.083-.013.17.028.245.122.209.325.349.607.415.162.038.362.048.597.03l-.857.513c-.15.09-.2.282-.114.432.043.073.116.13.198.15.033.009.067.017.232-.05l.009.014.098-.058c.388-.175 1.262-.634 3.352-1.803.698-.266 1.477-.595 2.33-.98l-.77.457c-.15.09-.2.282-.112.433.047.081.142.19.326.234.223.053.618-.032 1.18-.249-1.17.895-1.233 1.13-1.275 1.286-.04.146-.001.257.036.323.025.043.052.083.083.12l-1.483.868c-.151.088-.202.28-.116.432.054.091.159.209.368.26.47.118 1.672-.27 3.448-1.06.092.147.28.194.429.109l.848-.49c-.208.181-.384.35-.527.504l-6.588 3.807c-.15.086-.203.276-.119.428.084.152.275.207.428.126.055-.03 1.718-.922 4.51-2.43-2.635 1.607-3.898 2.494-3.98 2.794-.025.095-.014.193.034.276.044.076.118.13.202.15.085.02.173.004.248-.046l1.967-1.315c-.021.097-.008.193.039.276.054.092.146.147.245.157-.225.228-.253.335-.276.417-.031.112-.018.224.035.317.021.036.05.07.082.096l-1.495.874c-.15.088-.201.281-.115.433.114.197.303.328.563.392 1.456.358 5.897-1.65 12.423-5.285l-6.692 4.014c-.148.09-.197.282-.11.432.042.072.114.129.196.15.043.01.082.022.241-.039v.001l.004-.002c.677-.257 3.457-1.773 17.247-9.76 3.963-2.295 8.374-4.859 12.888-7.487l-19.24 11.55c-1.478.87-2.856 1.696-4.124 2.477l-10.092 6.058c-.149.088-.198.281-.11.43.039.07.12.163.274.202.156.04.453-.019.887-.172-.342.385-.556.72-.636.999-.072.252-.052.478.058.67.072.123.217.283.504.353.114.028.251.038.408.03-.01.025-.017.05-.024.075-.077.265-.058.5.057.698.087.152.281.205.432.116l71.104-41.08c-1.594 1.28-5.496 3.913-14.6 9.301C61.95 53.494 50.452 60 40.31 65.739 21.219 76.541 16.025 79.56 15.848 80.207c-.022.081-.009.196.033.27.088.152.281.203.433.116L51.43 60.305 16.393 81.18c-.15.088-.2.28-.113.43.12.208.322.347.6.411.21.051.488.052.823.007.004.046.018.091.042.132.115.201.312.336.582.4.376.089.963.018 1.737-.195-.077.099-.09.238-.024.353.056.096.17.224.397.28.236.057.637.156 2.328-.51.07.082.182.167.36.21.072.017.16.04.291.044-.051.053-.078.096-.088.132-.023.082-.011.185.032.258.052.09.14.156.247.183.166.042.445.114 2.885-1.102.115.1.26.171.436.214.189.046.424.053.703.026-.045.091-.045.203.01.298.042.074.112.127.194.15.043.01.077.02.236-.05l.007.013.141-.084c.277-.14.783-.42 1.745-.976 2.668-1.02 6.695-3.172 11.7-6.117l-13.244 8.01c-.15.09-.199.284-.109.433.089.15.28.2.431.113h.001c4.165-2.433 9.12-5.318 14.361-8.37l-2.667 1.732-3.21 2.086c-4.062 2.26-8.009 4.441-11.683 6.459-.07.04-.13.11-.153.193-.023.082-.013.17.031.243.122.21.326.352.61.417 1.139.265 4.101-.888 8.16-2.933-2.965 2.008-4.832 3.513-5.036 4.228-.063.218-.01.378.044.472.088.151.28.204.433.115l7.82-4.518c-1.046.832-1.116 1.088-1.162 1.254-.046.163-.005.283.038.357.087.151.28.204.432.116l.778-.448c-.577.543-.926.987-1.018 1.32-.072.255-.011.44.052.547.04.075.111.128.192.15.17.045.17.045 8.212-4.594l.556-.321c-7.329 4.508-7.256 4.634-7.05 4.991.058.1.176.231.41.288.108.025.247.03.415.01.004.043.017.085.038.121.027.045.064.097.118.145l-.507.296c-.149.089-.2.282-.113.432.04.068.103.149.206.216-1.164.693-1.51.976-1.56 1.147-.022.083-.011.191.033.265.051.09.14.156.248.183.203.052.543.14 4.009-1.676-.147.163-.103.24-.042.344.064.112.197.257.46.32.61.143 1.996-.312 3.925-1.197l-1.147.702c-.146.09-.194.28-.108.43.041.072.114.128.196.15.13.033.205.05 2.387-1.213-.344.308-.544.551-.593.727-.044.163-.004.284.04.359.042.075.114.128.197.15.083.02.174.006.246-.04 1.5-.94 3.082-1.927 4.714-2.94-.092.113-.108.177-.124.228-.03.107-.017.214.034.302.051.089.152.201.353.25.064.016.143.02.235.015-.033.086-.027.186.022.272.054.092.147.147.246.156-3.617 2.246-3.566 2.336-3.391 2.638.044.074.114.127.197.149.084.021.171.009.244-.037 9.63-5.943 23.406-14.251 28.941-17.16-2.198 1.37-5.711 3.448-8.946 5.362-13.996 8.278-14.494 8.757-14.19 9.282.048.084.128.143.225.168.198.05.498.126 5.15-2.542-.015.037-.022.074-.024.112-4.599 2.76-4.511 2.912-4.338 3.213.054.09.141.156.25.182.483.117 1.94-.714 6.293-3.508.029.04.068.075.11.1-.278.293-.21.408-.131.545.042.075.12.133.202.155.106.027.272.07 3.316-1.689 1.54-.89 3.818-2.243 7.2-4.29.149-.091.197-.286.106-.437-.088-.148-.28-.196-.43-.11l-.024.015c.04-.092.037-.199-.018-.29-.02-.037-.048-.066-.08-.09.61-.33 1.226-.658 1.836-.98.077-.04.132-.11.156-.193.024-.083.013-.171-.029-.247-.012-.021-.027-.04-.043-.06.094-.054.184-.109.273-.16 1.955-1.15 1.955-1.15 1.779-1.455-.05-.088-.154-.204-.354-.249-.058-.012-.128-.016-.206-.012.165-.117.285-.21.369-.283l.002-.001v-.001c.234-.21.19-.286.108-.428-.042-.075-.116-.128-.198-.15-.083-.02-.175-.007-.243.038-6.078 3.752-14.67 8.94-18.72 11.14 2.714-1.75 7.713-4.708 11.975-7.229 11.644-6.888 11.604-6.957 11.344-7.408-.05-.086-.135-.15-.239-.176-.082-.02-.185-.047-.56.084 1.598-.945 3.152-1.862 4.625-2.73.15-.088.201-.282.112-.433-.087-.15-.28-.203-.432-.114l-2.094 1.208c.863-.54 1.319-.845 1.544-1.043l.035-.023-.003-.005c.226-.209.18-.29.104-.42-.043-.076-.115-.13-.202-.15-.02-.005-.039-.008-.06-.008.803-.448 1.588-.886 2.352-1.31.081-.051.13-.112.15-.193.024-.082.013-.17-.03-.245-.04-.07-.12-.16-.276-.2-.113-.028-.282-.07-.934.17.081-.092.13-.17.147-.233.028-.104.016-.21-.036-.298-.04-.074-.128-.138-.21-.16-.134-.034-.546.114-1.371.527 1.172-.791 2.027-1.456 2.524-1.987l3.793-2.325c.147-.089.195-.279.109-.428-.05-.088-.135-.151-.24-.177-.167-.043-.445-.115-3.208 1.32 1.448-.967 2.577-1.8 3.331-2.474.197-.12.304-.184.315-.192.092-.056.145-.151.15-.252.332-.343.536-.631.6-.861.07-.242.012-.416-.048-.522-.045-.075-.118-.13-.201-.15-.085-.02-.178-.005-.249.044-.022.014-.454.3-1.223.803.05-.094.053-.211-.004-.31-.05-.088-.146-.2-.317-.27l1.427-.924c.143-.092.187-.281.099-.428-.085-.146-.272-.198-.422-.118-1.546.827-6.816 3.655-13.38 7.254 3.652-2.16 7.21-4.255 10.485-6.178.151-.088.202-.282.115-.434-.09-.15-.282-.202-.433-.115v.001C71.39 67.064 42.003 84.084 37.344 86.721c.419-.533 1.568-1.573 4.538-3.586L82.95 59.408c6.401-3.543 6.655-3.744 6.72-3.979.024-.083.012-.179-.03-.253-.088-.15-.283-.203-.434-.115l-6.612 3.82c-1.179.652-2.456 1.355-3.778 2.085-15.045 8.296-29.87 16.578-37.336 21.67l-3.038 1.754c1.64-1.21 4.497-3.054 8.166-5.312L93.53 51.97c.151-.087.203-.28.118-.43-.086-.153-.28-.207-.43-.122-.142.077-14.172 7.9-28.103 15.963-8.564 4.952-14.57 8.531-18.788 11.128l-16.07 9.285c.496-.492 1.45-1.265 3.209-2.483.012.004.023.008.034.01.036.01.07.02.234-.045l.005.011.08-.046c.994-.436 5.446-2.904 27.927-15.978 13.691-7.961 27.499-16.044 27.637-16.125.149-.087.201-.278.116-.43-.085-.15-.274-.206-.426-.123-1.062.57-3.582 1.93-7.015 3.802l1.546-.953c9.421-5.818 9.322-5.99 9.105-6.368-.042-.073-.113-.127-.194-.149-.082-.021-.18-.014-.241.034-3.605 2.12-7.763 4.56-12.194 7.155l1.585-1.04c2.602-1.496 4.944-2.84 6.9-3.96l.002-.001c.072-.04.124-.111.147-.192.021-.081.01-.169-.033-.241-.035-.062-.077-.118-.126-.167l.294-.197c.142-.095.183-.288.092-.433-.09-.145-.28-.19-.428-.106v.001l-.356.208.018-.06c.045-.162.005-.284-.037-.357-.043-.073-.114-.127-.196-.15-.092-.023-.174-.047-2.806 1.426-1.289.48-2.9 1.226-4.78 2.193l13.6-8.227c.095-.057.15-.155.154-.258v-.027c-.003-.05-.016-.1-.043-.144-.042-.074-.124-.137-.206-.158-.238-.062-.554-.147-13.232 7.163 2.373-1.425 4.475-2.731 6.251-3.894l4.545-2.733c.149-.09.197-.281.112-.432-.021-.034-.047-.066-.078-.093 1.08-.883 1.717-1.57 1.847-2.035.072-.255.013-.438-.05-.547-.044-.075-.115-.128-.201-.149-.084-.02-.17-.007-.245.041-.094.06-5.421 3.467-13.071 8.269-2.04 1.076-4.42 2.338-7.013 3.723 9.936-6.18 17.381-10.92 17.49-10.99.146-.092.191-.286.1-.434-.02-.031-.045-.059-.073-.081l.612-.358c.15-.088.2-.281.112-.434-.023-.04-.055-.075-.093-.1 1.337-.883 2.193-1.452 2.455-1.627.144-.095.185-.287.094-.433-.068-.107-.188-.161-.306-.147.051-.097.051-.218-.01-.318-.092-.146-.284-.18-.43-.106l-1.338.786c.144-.202.241-.383.285-.54.07-.24.052-.454-.052-.635-.044-.076-.118-.13-.201-.15-.087-.021-.18-.004-.248.043-6.54 4.32-14.8 9.686-23.423 15.159L30.397 75.062c-4.05 2.175-7.879 4.21-11.318 6.022-.819.261-1.45.383-1.87.348l75.183-44.795c.15-.087.2-.282.111-.43-.087-.152-.28-.203-.43-.116l-7.893 4.56c1.832-1.29 2.882-2.202 3.01-2.67.05-.184.006-.32-.041-.401-.09-.151-.282-.204-.433-.116L41.499 63.587c3.765-2.402 7.847-5.031 12.216-7.852 5.62-3.63 11.034-7.126 15.883-10.186 6.872-3.724 13.384-7.188 18.82-10.039.077-.04.134-.11.159-.192.024-.083.013-.172-.03-.248-.03-.052-.075-.112-.146-.165 1.323-.841 1.986-1.374 2.068-1.658.031-.11.019-.223-.036-.317-.087-.15-.281-.203-.433-.116l-5.48 3.167c-.43.212-.894.451-1.39.716 2.035-1.207 3.764-2.236 5.103-3.034.98-.585 1.75-1.046 2.273-1.362.264-.158.464-.28.599-.365.229-.14.466-.287.308-.559-.052-.092-.144-.158-.253-.186-1.215-.31-12.784 6.635-37.059 21.45l-3.55 2.166c-1.78.961-3.513 1.9-5.203 2.82L86.052 33.19c.11-.067.17-.192.15-.317-.018-.127-.109-.23-.232-.263-.038-.01-.069-.018-.231.057l-.013-.022-.286.171c-1.177.622-5.239 2.992-20.219 11.735-7.47 4.36-16.419 9.58-24.646 14.363L85.548 31.93c.15-.09.198-.283.11-.433-.089-.15-.28-.202-.432-.114L71.401 39.37c.98-.576 1.927-1.135 2.835-1.674 12.281-7.282 12.104-7.59 11.856-8.02-.05-.086-.134-.148-.233-.173-.186-.045-.667.135-1.53.587-.04-.044-.093-.074-.148-.089.864-.571 1.555-1.06 2.065-1.46l1.668-.965c.152-.087.203-.28.118-.432-.087-.151-.279-.205-.43-.12l-.329.183c-.01-.035-.024-.064-.038-.09-.016-.026-.033-.053-.05-.077.535-.412.831-.701.876-.867.029-.105.017-.214-.035-.303-.088-.152-.28-.204-.433-.116l-1.44.83h-.142c-.01-.026-.02-.05-.033-.073-.088-.15-.28-.203-.433-.115l-.55.317c-.496.104-1.07.27-1.717.494-.009-.02-.018-.037-.027-.053-.088-.151-.282-.203-.433-.116l-1.869 1.08c-.65.278-1.347.592-2.082.939.146-.092.29-.182.435-.271 5.418-2.974 7.745-4.423 7.904-4.976.03-.11.018-.221-.035-.314-.021-.038-.05-.07-.085-.096l.377-.252c.142-.095.183-.286.092-.431-.09-.145-.279-.192-.427-.107h-.002L61.554 37.567C51.426 42.944 40.406 48.819 31.447 53.96c15.75-9.447 37.896-22.245 55.07-32.015.06-.044.126-.11.146-.193.024-.08.012-.168-.03-.24-.13-.228-.348-.38-.647-.451-.16-.039-.351-.051-.573-.038-.005-.015-.011-.029-.02-.043-.09-.15-.28-.188-.433-.113l-.572.333c-.845.219-1.917.625-3.18 1.195 1.025-.672 1.69-1.11 1.924-1.265.145-.095.186-.288.094-.434-.092-.145-.287-.193-.432-.103l-3.402 2.032c.02-.039.036-.075.045-.11.055-.19.009-.33-.04-.414-.055-.094-.148-.162-.262-.192-.051-.012-.112-.028-.225-.02.306-.22.599-.439.879-.65l5.41-3.2c.149-.088.2-.28.113-.431-.138-.24-.365-.398-.675-.47-.248-.06-.565-.057-.946.003-.002-.135-.035-.258-.1-.368-.042-.075-.114-.13-.197-.15-.131-.033-.14-.035-2.35 1.355-1.06.438-2.294 1.031-3.677 1.754l2.244-1.328c.15-.089.2-.281.112-.432-.08-.14-.193-.252-.333-.336l.938-.555c.151-.088.201-.282.114-.433-.088-.15-.281-.202-.434-.114l-1.616.934c-.754.059-1.817.388-3.14.945l2.034-1.221c.148-.09.198-.283.11-.435-.09-.148-.283-.199-.433-.111l-3.635 2.119c.14-.111.275-.219.397-.324 3.06-1.756 5.82-3.339 8.159-4.676.082-.03.128-.111.148-.192.022-.083.011-.17-.03-.242-.138-.237-.365-.395-.677-.47-.319-.076-.75-.053-1.287.058.005-.158-.04-.278-.087-.359-.044-.074-.113-.128-.196-.148-.083-.022-.176-.008-.243.036-.852.517-1.714 1.038-2.59 1.568-2.236.984-5.116 2.53-8.456 4.472-.053.025-.102.053-.154.08 4.848-3.09 7.933-5.08 8.005-5.127.142-.093.188-.282.1-.43-.088-.146-.276-.197-.426-.115-1.331.732-4.52 2.487-8.862 4.9 11.76-7.083 11.594-7.366 11.375-7.748-.042-.073-.113-.127-.194-.149-.15-.04-.21-.055-6.572 3.595.746-.528 1.398-1.016 1.944-1.46l1.555-.842c.078-.04.13-.11.155-.193.023-.083.011-.17-.03-.245-.037-.062-.09-.11-.154-.141.1-.12.188-.232.26-.338.058-.047.096-.11.11-.18.053-.096.091-.185.116-.267.081-.285.015-.487-.055-.608-.087-.15-.282-.203-.433-.116l-.34.197c-.007-.022-.017-.044-.03-.065-.09-.148-.28-.199-.43-.112l-.003.001L6.435 48.822c5.292-3.793 34.746-21.029 55.361-32.979l13.26-7.66c.151-.087.203-.282.116-.434-.087-.15-.282-.203-.434-.116-.09.052-4.892 2.816-11.911 6.883l-.437.251c2.167-1.465 3.854-2.723 4.893-3.693l.415-.252c.114-.067.169-.195.15-.319.32-.352.52-.652.589-.894.083-.283.018-.484-.05-.602l-.025-.036c2.205-1.543 2.295-1.87 2.35-2.068.04-.15.002-.265-.037-.332-.089-.152-.282-.205-.433-.117l-.476.275c.017-.196-.036-.343-.091-.44-.088-.152-.281-.204-.433-.116L62.845 9.87c.832-.559 1.368-.92 1.55-1.044l-.004-.007c.126-.1.21-.227.102-.414-.044-.077-.118-.131-.205-.152-.084-.019-.172-.004-.245.045-.475.293-28.386 16.823-46.002 27.255-4.462 2.435-7.747 4.351-9.673 5.728-.666.393-1.265.749-1.796 1.061-.118 0-.224-.01-.316-.031-.064-.015-.109-.033-.14-.051.927-1.209 10.172-6.927 22.083-13.99 5.46-3.102 11.144-6.387 16.243-9.444l21.271-12.29c.153-.087.204-.281.118-.432-.088-.152-.281-.205-.433-.119-.039.024-1.156.657-3.051 1.742l-.022-.047c-.082-.151-.27-.21-.423-.132l-1.612.82c.728-.637 1.169-1.142 1.265-1.481.064-.231.01-.396-.046-.494-.088-.151-.283-.203-.434-.116L57.799 8.17c.537-.328.953-.583 1.274-.784 4.664-2.756 6.674-4.103 6.785-4.514.028-.098.017-.197-.033-.282-.042-.074-.13-.171-.294-.211-.4-.1-1.505.358-3.292 1.328.037-.066.064-.126.079-.18.057-.208.01-.357-.043-.447-.044-.076-.115-.13-.2-.15-.084-.02-.17-.004-.245.04-.038.024-1.052.673-2.786 1.774-.01-.08-.037-.146-.064-.194-.043-.073-.127-.135-.21-.158-.098-.024-.216-.056-1.35.51.206-.22.361-.42.465-.6 1.184-.65 1.865-1.022 1.895-1.037.076-.04.13-.11.153-.192.022-.083.012-.17-.032-.245-.04-.073-.121-.134-.203-.156-.146-.037-.59.14-1.755.773-.092-.141-.278-.187-.424-.102l-3.617 2.09.002-.01c.028-.1.015-.205-.034-.292-.055-.095-.147-.165-.26-.196l3.881-2.297c.148-.088.2-.28.113-.431-.019-.033-.043-.061-.073-.086.533-.427.837-.753.9-.974.045-.167.003-.291-.04-.367-.047-.08-.138-.184-.317-.228-.558-.139-2.277.618-5.047 2.145-.028.008-.054.021-.082.035-.067.04-.13.08-.197.118-1.244.692-2.69 1.532-4.328 2.508.428-.397.688-.716.752-.945.056-.2.008-.348-.043-.435-.05-.088-.148-.2-.33-.261l4.254-2.459c.072-.042.127-.112.148-.193.022-.08.01-.168-.032-.241-.049-.084-.13-.146-.23-.17-.43-.106-2.194.864-7.366 4.09-2.505 1.243-6.292 3.53-11.119 6.581-1.835 1.071-3.715 2.17-5.59 3.27-5.607 3.285-10.28 6.048-13.939 8.238 8.838-5.52 23.338-14.484 32.37-20.055.147-.09.195-.28.108-.428-.061-.107-.187-.247-.428-.304-.091-.02-.194-.027-.314-.02L48.397.966c.149-.091.196-.286.105-.436-.06-.098-.167-.152-.275-.152-.056 0-.112.015-.16.046zm5.371 3.08c.036-.12.049-.234.043-.342 2.077-1.152 3.577-1.882 4.21-1.99-.498.574-2.32 1.774-4.933 3.34.365-.393.597-.732.68-1.008zm-25.5 10.323c2.671-1.775 5.402-3.586 7.934-5.22L43.24 4.11c1.478-.807 2.36-1.186 2.881-1.355-2.622 1.62-10.971 6.773-19.22 11.886-1.058.657-2.076 1.288-3.056 1.894 1.275-.838 2.64-1.743 4.092-2.708zM60.45 5.44c1.871-1.097 3.319-1.888 4.172-2.242-.872.621-2.56 1.669-4.809 3.008-.03-.014-.065-.028-.104-.037-.055-.013-.12-.017-.2-.012.342-.253.657-.49.94-.717zM39 11.871c6.456-3.864 11.925-7.174 13.682-8.239-.385.618-1.392 1.505-2.873 2.588-1.093.628-2.343 1.348-3.779 2.176-4.003 2.256-8.538 4.746-12.79 7.076 1.904-1.195 3.846-2.41 5.76-3.6zM17.383 23.045c5.346-3.14 12.392-7.572 20.32-12.594 1.946-1.234 3.91-2.479 5.75-3.636l3.524-2.044c.99-.435 1.397-.498 1.566-.47-.244.602-2.855 3.024-19.85 12.81-7.455 4.288-14.958 8.421-18.154 10.171 1.839-1.08 4.132-2.51 6.844-4.237zm43.46-18.691c-.152.13-.327.277-.53.44-.764.443-1.61.947-2.533 1.507 1.23-.78 2.264-1.44 3.063-1.947zm-6.97 2.154c.839-.463 1.605-.885 2.29-1.26-.392.323-.869.686-1.422 1.078-1.96 1.08-4.908 2.748-9.365 5.323-1.515.875-3.204 1.855-5.086 2.951 5.017-3.007 9.948-5.958 13.583-8.092zm1.046.444c1.435-.794 2.517-1.372 3.159-1.681-.103.098-.23.207-.38.326-1.358.86-3.005 1.901-4.863 3.07-1.633.937-3.537 1.985-5.593 3.093 3.204-1.866 5.824-3.491 7.677-4.808zm-2.269-1.144c-.835.628-2.418 1.656-4.56 2.981l-7.743 4.472c5.522-3.536 10.368-6.566 12.303-7.453zm1.724 9.687l14.57-8.417c-.05.072-.11.148-.18.229l-15.987 9.237c.546-.357 1.08-.708 1.597-1.05zm6.189-8.19c-.452.486-1.381 1.279-3.202 2.567-3.113 1.601-7.565 3.908-12.63 6.58l15.832-9.147zm7.02 2.577c-.082.113-.184.236-.306.368-.139.039-.343.112-.658.252l.965-.62zm-2.948.545c-2.646 1.686-6.276 3.756-10.405 6.01l10.405-6.01zM21.202 12.06c-.226.155-.45.306-.67.455l-.76.41c.44-.263.916-.55 1.43-.865zm58.552 1.556c.584-.155 1.046-.208 1.372-.147l-2.944 1.686c.746-.607 1.276-1.122 1.572-1.539zm-17.007.196c-4.86 3.329-12.727 8.005-21.607 13.047l21.607-13.047zm12.164 2.584c-.046-.08-.135-.184-.301-.243 1.04-.629 1.95-1.177 2.704-1.632.461-.204.892-.382 1.289-.53-.746.705-1.98 1.628-3.604 2.72-.004-.136-.045-.241-.088-.315zM6.473 38.774c4.21-2.113 10.544-5.919 18.422-10.862l1.548-.894c7.83-4.336 16.403-8.898 24.113-12.917L4.211 40.879c-.152.086-.203.277-.118.429.013.025.03.047.05.067l-3.341 1.93c.592-.942 2.63-2.522 5.671-4.531zm1.575-4.432c6.005-3.574 12.955-7.692 19.75-11.69 1.895-.988 3.814-1.982 5.714-2.968 3.807-1.975 7.253-3.766 10.295-5.37-3.14 1.949-6.475 4.006-9.824 6.046C9.105 35.52 4.81 36.836 4.153 36.637c.007-.194.355-.804 3.042-2.572.119-.063.238-.127.362-.195-.03.163.011.282.055.358.042.073.113.127.195.147.026.007.052.01.079.01.057 0 .113-.015.162-.043zm59.756-19.107l1.535-.837c-1.9 1.245-4.191 2.659-6.765 4.187 1.906-1.216 3.664-2.343 5.23-3.35zm-7.647-.607l.156-.087-.377.228.221-.141zm-44.24 1.171c.585-.338 1.209-.69 1.86-1.052.002.004.005.01.01.015l-4.588 2.69c.733-.482 1.663-1.043 2.717-1.653zm31.538 16.625c10.15-6.034 19.77-11.817 25.846-15.483.61-.21.919-.244 1.065-.202-.001.014-.004.032-.01.054-.05.17-.197.381-.432.628-.96.625-2.03 1.298-3.19 2.01-4.645 2.667-10.416 5.989-16.586 9.551-2.657 1.474-5.399 2.978-8.152 4.48l-.662.345c.706-.462 1.412-.922 2.121-1.383zM30.881 18.382c.855-.475 1.708-.949 2.552-1.423-1.307.843-2.662 1.718-4.042 2.603-1.607.932-3.192 1.857-4.729 2.762L5.71 33.274l25.171-14.892zm52.61-.587c.392-.079.714-.096.956-.047l-1.754 1.037c.366-.374.634-.706.799-.99zm-2.646 1.057l.664-.417c.379-.154.731-.284 1.054-.39-.534.64-1.478 1.468-2.768 2.455l-8.628 5.103c-2.718 1.483-6.393 3.55-11.37 6.426-.418.24-.845.488-1.282.741 6.806-4.202 14.249-8.842 22.33-13.918zM36.932 42.698l41.696-24.612c.084.003.162.011.232.026L33.68 44.84l3.252-2.143zm-15.145 1.764c3.476-2.037 7.224-4.227 11.026-6.449 1.769-1.035 3.581-2.093 5.41-3.161l1.452-.836c10.408-5.968 20.877-11.828 27.94-15.755-2.595 1.65-5.672 3.601-9.044 5.724-9.233 5.366-21.654 13.001-35.229 21.4-2.734 1.48-5.167 2.832-7.269 4.047-1.009.582-1.941 1.134-2.792 1.653C9.337 53.17 7 54.209 5.614 54.71c2.537-1.832 7.31-4.95 16.173-10.25zm19-20.17c4.148-2.17 7.937-4.166 11.313-5.983-7.663 4.539-16.985 9.924-26.352 15.265 4.843-2.875 10.055-6.115 15.039-9.283zM19.94 18.322c-2.241 1.442-4.275 2.702-5.738 3.501l5.738-3.5zm56.478.287L53.567 31.813c9.581-6.163 18.42-11.545 22.85-13.203zm-22.819 4.442c2.113-1.171 4.146-2.294 6.066-3.352-3.023 1.923-6.146 3.897-9.302 5.874-5.052 2.813-10.41 5.728-15.589 8.516 6.611-3.903 13.074-7.697 18.825-11.038zM21.28 19.793c-1.441.93-2.879 1.854-4.266 2.737-2.2 1.289-3.902 2.237-5.222 2.932 2.585-1.569 5.842-3.512 9.488-5.669zm52.437 2.666c.677-.391 1.333-.763 1.962-1.113-5.34 3.345-12.986 8.119-21.32 13.239 7.11-4.641 13.95-9.002 19.358-12.126zm-29.552-1.066c-.67.43-1.337.859-2.008 1.288l-3.252 1.878c-.738.385-1.48.772-2.215 1.153l7.475-4.319zm40.577.343c.407-.087.742-.114.995-.076-2.083 1.187-10.925 6.23-21.782 12.503-1.38.797-2.793 1.615-4.229 2.447l25.016-14.874zm-37.526.296c-3.39 2.116-6.97 4.334-10.56 6.53-7.102 4.345-13.161 7.95-18.09 10.758-2.59 1.398-5.13 2.759-7.575 4.062 12.13-7.227 25.52-15.139 36.225-21.35zm29.316 3.418c1.762-.965 3.34-1.776 4.69-2.4-3.072 1.792-6.376 3.72-9.835 5.736 1.899-1.228 3.63-2.35 5.145-3.336zm-5.313.859C65.06 30.199 57.041 34.9 48.5 39.747L71.22 26.31zM7.958 27.824c.248-.06.536-.151.865-.275-.923.522-1.69.924-2.252 1.17.363-.24.828-.542 1.387-.895zm78.523-.271c-.067.072-.152.151-.254.241l-.556.312c.296-.198.568-.383.81-.553zm-75.562 31.49c2.302-1.143 5.708-3.186 10.11-5.981l42.669-25.243c-6.585 4.155-14.036 9.08-21.39 13.936l-3.004 1.986-.505.302C14.756 58.471 7.726 61.63 5.749 62.103l5.17-3.06zM61.96 39.823L81.51 28.527c.178-.075.351-.147.52-.216-.104.1-.225.207-.363.325L61.853 40.083 59.85 41.17l2.112-1.347zm15.9-11.058c-.252.165-.503.332-.757.497-.418.228-.845.46-1.28.695l2.036-1.192zM31.641 42.778c6.02-3.518 12.552-7.308 18.986-11.029 1.536-.807 3.011-1.586 4.418-2.334-8.98 5.225-18.36 10.673-26.54 15.408 1.012-.659 2.058-1.34 3.136-2.045zM7.58 36.787c3.361-1.86 7.676-4.259 12.409-6.92-4.14 2.436-8.118 4.776-11.646 6.848-.919.467-1.647.793-2.137.945.329-.223.793-.517 1.374-.873zm71.131-5.17l2.266-1.308c-.856.515-1.78 1.067-2.767 1.65l.501-.342zm4.802-.362l.272-.156c-1.894 1.264-5.198 3.278-9.33 5.732 3.808-2.404 7.027-4.401 9.058-5.576zm-36.48.683l-.06.041-.082.048.142-.089zm-23.488 1.37c.834-.444 1.687-.893 2.557-1.352L9.49 41.553c-.223.09-.436.171-.64.246l14.695-8.492zm-1.24 8.174c4.688-2.499 9.343-4.99 13.844-7.42-9.636 5.587-18.971 11.006-25.392 14.734-1.099.533-2.076.978-2.916 1.32 4.527-2.714 9.433-5.641 14.465-8.634zm60.94-5.648c.876-.505 1.693-.972 2.445-1.395-4.101 2.438-10.254 6.08-17.187 10.178 5.571-3.373 10.752-6.477 14.743-8.783zm-68.467 29.82L61.861 38.12l2.176-1.154 1.908-1.014c-8.188 4.693-17.71 10.567-26.627 16.218l-8.444 4.88c-2.9 1.637-5.49 3.13-7.728 4.464l-6.61 3.82c-.79.404-1.488.753-2.102 1.05-.119.038-.235.075-.348.108.159-.249.39-.53.692-.838zM45.39 36.37c-.704.46-1.411.924-2.117 1.389l-5.019 2.9 7.136-4.29zM5.122 38.143c.053.08.151.173.322.215.026.006.056.011.087.014-.067.058-.108.142-.112.228-1.65.803-2.91 1.296-3.659 1.391.795-.436 1.938-1.062 3.362-1.848zm85.693.824c-.258.385-.73.872-1.397 1.446L81.28 45.19c4.655-3.015 8.096-5.274 9.536-6.224zM7.653 56.26c-.003-.028.006-.063.012-.086.056-.19.218-.425.48-.698 1.47-.888 3.244-1.972 5.377-3.282 3.474-1.943 8.072-4.57 14.174-8.124.921-.497 1.847-.996 2.77-1.491.617-.333 1.228-.662 1.84-.99-.305.198-.608.395-.909.593-13.837 8.08-20.458 12.076-23.64 14.091-.042 0-.076-.005-.104-.013zm40.856-4.393c5.616-3.311 11.233-6.643 16.292-9.654-.25.16-.505.32-.762.484-1.355.865-2.758 1.76-4.196 2.675-3.942 2.282-8.019 4.633-11.972 6.914-1.17.673-2.331 1.344-3.48 2.006 1.32-.776 2.691-1.583 4.118-2.425zm43.788-9.25c-.358.392-1.027.997-2.264 1.917-.463.225-1.053.545-1.783.967-.279.162-.578.336-.897.528-.095-.077-.23-.094-.345-.035l-.17.088c2.532-1.602 4.432-2.811 5.46-3.465zm-81.508.152c-2.272 1.353-4.27 2.545-5.896 3.516-.31.105-.558.176-.752.22 1.164-.651 3.51-1.967 6.648-3.736zm28.662 4.462c2.392-1.347 4.794-2.704 7.178-4.06l-.331.214c-4.852 2.82-9.606 5.576-14.053 8.151l7.206-4.305zM16.88 68.616l29.28-16.918c4.936-2.723 9.528-5.264 13.717-7.596L14.144 70.843c-.897.47-1.613.823-2.124 1.05.849-.68 2.525-1.803 4.861-3.277zM30.494 55.24c5.05-2.918 10.82-6.099 16.681-9.267L17.954 63.061c2.983-2.139 7.385-4.842 12.54-7.82zm-5.118-5.721c-1.619 1.05-3.174 2.05-4.641 2.98l-10.162 6.012c-.814.408-1.385.655-1.787.8l16.59-9.792zm.04 21.341L60.74 50.453c-2.326 1.493-4.783 3.079-7.368 4.749-15.186 9.806-32.148 20.76-37.912 22.868 1.587-1.623 5.14-4.142 9.955-7.209zM4.907 50.937c.18-.115.424-.265.732-.445-.222.157-.43.305-.623.447-.038 0-.075 0-.109-.002zm1.827-.435c.009.01.018.017.028.024l-.127.044c.033-.022.065-.046.099-.068zm10.904.514l-.357.22c-.7.433-1.35.83-1.954 1.192l-1.362.782c1.137-.683 2.366-1.417 3.673-2.194zm30.206 2.697l4.49-2.595-8.305 4.985c1.25-.78 2.522-1.578 3.815-2.39zM5.282 51.528c.374-.053.838-.174 1.381-.354l-3.38 1.964c.382-.367 1.005-.883 2-1.61zm49.809 17.374c12.87-7.478 25.267-14.65 30.399-17.544.149-.055.29-.105.43-.152-.231.168-.483.345-.758.535L45.914 74.834l-.328.185c2.957-1.918 6.188-4.002 9.505-6.117zm7.685-6.385c6.447-3.781 12.882-7.54 18.21-10.612L48.492 71.557c4.351-2.688 9.169-5.75 14.284-9.04zM28.479 54.45l-9.094 5.406c-1.329.724-2.587 1.392-3.762 1.999 3.16-1.81 7.337-4.214 12.856-7.405zm28.608 8.704c2.24-1.363 4.474-2.728 6.663-4.076 2.889-1.567 5.694-3.077 8.305-4.472-4.112 2.557-8.532 5.284-12.966 7.985-2.343 1.427-4.581 2.78-6.711 4.059-4.333 2.376-8.565 4.68-12.447 6.793l-1.981 1.079c4.862-2.792 11.105-6.484 19.137-11.368zM4.695 54.642c-.228.174-.442.34-.642.498-.046.005-.088.008-.124.008.186-.129.443-.299.766-.506zm-.466 1.117c.372-.046.933-.183 1.825-.516-.904.531-1.67.997-2.308 1.4-.32.138-.58.238-.767.293.161-.228.523-.594 1.25-1.177zm64.15 7.924c4.408-2.575 8.621-5.04 12.26-7.173-3.487 2.135-7.536 4.587-11.814 7.16-1.12.623-2.257 1.257-3.407 1.901 1-.634 1.99-1.266 2.962-1.888zM6.167 65.618c2.38-1.293 8.033-4.368 15.2-8.32l-13.343 7.97c-.731.233-1.316.355-1.734.355-.042 0-.083-.001-.123-.005zm81.82-5.913l.437-.281.094-.029-.53.312v-.002zm2.438-.03l-.156.146c-.16.097-.427.255-.786.47l.942-.617zM54.725 80.322c1.012-.59 2.051-1.202 3.105-1.828 2.285-1.348 4.893-2.906 7.873-4.707 3.403-2.058 6.79-4.13 9.854-6.019l13.432-7.916c-3.106 2.03-9.41 6.121-16.492 10.585-2.096 1.256-4.257 2.55-6.414 3.845-1.308.785-2.569 1.541-3.777 2.268-3.59 1.957-7.125 3.867-10.343 5.604l-.718.388c1.089-.688 2.251-1.429 3.48-2.22zM12.45 60.236l-1.987 1.207c-.258.095-.488.167-.69.217.624-.33 1.531-.812 2.677-1.424zm6.735.477c-.926.584-1.745 1.106-2.471 1.576-1.281.757-2.381 1.378-3.26 1.83l5.73-3.406zm41.91 6.234c3.654-2.094 6.812-3.924 9.542-5.526l1.126-.65c-1.155.744-2.317 1.49-3.49 2.242-12.47 7.284-25.13 14.641-32.633 18.906 6.102-3.687 15.725-9.324 25.455-14.972zm-37.43 3.697l2.705-1.624c3.756-2.225 8.108-4.69 12.712-7.238-7.978 4.83-15.476 9.3-20.402 12.032 1.422-.958 3.104-2.023 4.984-3.17zm-12.006-3.94c.368-.516 2.293-1.88 5.372-3.868.386-.226.79-.466 1.211-.719-1.599 1.123-2.866 2.12-3.727 2.956l-2.826 1.652c-.01-.008-.02-.014-.03-.02zm69.256-3.31c.639-.388 1.228-.738 1.774-1.058-.454.29-.923.587-1.404.893l-2.226 1.304c.639-.397 1.259-.777 1.856-1.14zm-30.001 1.635c-6.87 4.179-13.35 7.994-18.706 10.94l18.706-10.94zm-40.649 8.818l4.314-2.522c2.04-1.062 5.313-2.855 10.606-5.873-.137.08-.273.16-.406.24-9.577 5.66-10.33 6.354-10.212 6.74-1.979.907-3.447 1.416-4.249 1.416h-.053zm3.117-7.377c-.041.082-.075.16-.1.236-.159.036-.31.065-.45.085l.55-.321zm32.442 16.845c2.512-1.545 5.59-3.412 9.005-5.468 5.516-3.223 12.203-6.989 18.95-10.715-2.287 1.473-4.805 3.116-7.538 4.91L41.745 86.388l-.041.007c.383-.539 1.856-1.617 4.12-3.08zm-18.588-1.479c3.556-1.826 10.738-5.829 25.468-14.529L29.232 81.43c-.773.27-1.392.414-1.831.414-.058 0-.113-.002-.165-.007zm-15.48-14.415c.092.02.195.032.306.037-.418.172-.756.296-1.027.384l.722-.421zm67.549.584c-2.508 1.627-5.482 3.54-8.631 5.535-2.521 1.353-5.136 2.735-7.67 4.067 5.871-3.511 11.612-6.9 16.3-9.602zm3.19.11l-.552.335c-.315.167-.652.348-1.013.545.566-.322 1.089-.617 1.565-.88zm1.132.757c-.669.437-1.359.886-2.068 1.345-5.656 3.5-19.269 11.649-26.835 16.16-.889.42-1.559.68-1.955.746 2.207-1.967 18.385-11.271 30.858-18.25zM44.41 73.32l.03-.017c-2.068 1.249-4.04 2.412-5.864 3.454l5.834-3.437zm-30.679 5.087c-.03-.007-.084-.023-.102-.053-.022-.037-.02-.097.003-.177.126-.445.702-1.082 1.654-1.877 1.011-.486 2.304-1.166 3.867-2.03.016.012.03.02.046.027-2.369 1.698-4.051 3.098-4.812 4.089-.16.03-.302.046-.424.046-.088 0-.164-.008-.232-.025zm32.87-2.053c-1.755 1.038-3.441 2.05-5.025 3.016-2.13 1.216-4.117 2.316-5.917 3.266 2.548-1.446 6.067-3.465 10.942-6.282zm27.613 2c.413-.223.79-.419 1.124-.581-.66.387-1.473.862-2.358 1.378.446-.287.857-.551 1.234-.797zm-28.812 9.893c2.485-1.518 5.157-3.143 7.918-4.813 2.317-1.24 4.927-2.61 7.507-3.965.605-.317 1.204-.632 1.793-.943l-5.328 3.265c-2.836 1.685-5.3 3.094-7.372 4.216-4.69 2.539-6.51 3.13-7.212 3.224.452-.299 1.209-.777 2.218-1.403-.029.108-.015.215.037.307.043.074.113.128.196.148.027.007.055.011.082.011.057 0 .11-.015.16-.047zm-30.65-9.316c.118-.03.243-.065.371-.104l-.462.266c.027-.052.057-.107.092-.162zm8.711 2.154c.811-.357 1.694-.771 2.647-1.236.222-.077.456-.162.7-.255l-2.841 1.694c-1.262.577-2.075.878-2.595 1.02l2.089-1.223zm-4.714.891c.224-.12.5-.265.827-.436.955-.33 2.102-.805 3.412-1.407.112.087.252.151.419.19.024.006.05.01.076.015l-.66.386c-1.867.807-3.25 1.252-4.031 1.252h-.043zm5.54-.139c.685-.312 1.499-.702 2.466-1.189l-.045.05c-.427.242-.8.455-1.13.644-.252.147-.478.278-.679.398-.412.151-.724.246-.959.304l.346-.207zm2.091 4.579l2.417-1.333c0 .055.012.112.041.163.037.063.101.116.17.144-.366.284-.387.367-.407.435-.009.033-.012.07-.01.107-.902.318-1.611.487-2.096.487-.04 0-.078-.001-.115-.003zm21.326-1.238c-.784.444-1.534.868-2.242 1.263-.354.18-.687.347-1 .5 1.002-.548 2.093-1.14 3.242-1.763zm-6.671 1.136c-.014.032-.027.06-.035.09-.05.18-.007.313.04.394l.002.004-.59.344c-.534.196-.88.283-1.103.306.334-.25.909-.636 1.686-1.138z" mask="url(#ii9qlod6qc)"/>
                    </g>
                    <path fill="#000" d="M35.072 46.476c0-6.679 5.414-12.096 12.086-12.096 6.672 0 12.086 5.417 12.086 12.096 0 6.677-5.414 12.094-12.086 12.094-6.672 0-12.086-5.417-12.086-12.094m24.553-23.663H34.691c-6.147 0-11.179 5.036-11.179 11.185v24.954c0 6.162 5.032 11.187 11.18 11.187h24.933c6.157 0 11.179-5.025 11.179-11.187V33.998c0-6.15-5.022-11.185-11.179-11.185M34.691 25.61h24.934c4.622 0 8.385 3.778 8.385 8.39v24.953c0 4.624-3.763 8.39-8.385 8.39H34.691c-4.61 0-8.385-3.766-8.385-8.39V33.998c0-4.611 3.774-8.39 8.385-8.39m27.43 3.532c-1.362 0-2.455 1.103-2.455 2.455 0 1.362 1.093 2.455 2.455 2.455 1.351 0 2.454-1.093 2.454-2.455 0-1.352-1.103-2.455-2.454-2.455m.29 17.336c0-8.432-6.829-15.262-15.253-15.262-8.426 0-15.252 6.83-15.252 15.262 0 8.43 6.826 15.262 15.252 15.262 8.424 0 15.253-6.832 15.253-15.262" transform="translate(-721 -2306) translate(260 2306) translate(461)"/>
                </g>
            </g>
        </g>
    </g>
</svg>
