<svg xmlns="http://www.w3.org/2000/svg" xmlns:xlink="http://www.w3.org/1999/xlink" width="207" height="117" viewBox="0 0 207 117">
    <defs>
        <path id="krrmkq6uja" d="M57.992-.005C40.913.01 24.002 7.532 12.563 21.952c-19.907 25.095-15.701 61.577 9.393 81.485C32.6 111.88 45.29 115.986 57.898 116h.116c17.079-.014 33.989-7.537 45.427-21.956 19.908-25.096 15.703-61.578-9.393-81.485C83.404 4.115 70.713.009 58.106-.005h-.114z"/>
        <path id="1echw3kxsd" d="M0.424 0.772L14.777 0.772 14.777 23.386 0.424 23.386z"/>
        <linearGradient id="tx0yuo5uub" x1="10.83%" x2="89.17%" y1="18.927%" y2="81.073%">
            <stop offset="0%" stop-color="#F6835B"/>
            <stop offset="100%" stop-color="#CC3B14"/>
        </linearGradient>
    </defs>
    <g fill="none" fill-rule="evenodd">
        <g>
            <g>
                <g transform="translate(-72 -32) translate(72 32) translate(0 .005)">
                    <mask id="mkhhtbruvc" fill="#fff">
                        <use xlink:href="#krrmkq6uja"/>
                    </mask>
                    <path fill="url(#tx0yuo5uub)" d="M57.992-.005C40.913.01 24.002 7.532 12.563 21.952c-19.907 25.095-15.701 61.577 9.393 81.485C32.6 111.88 45.29 115.986 57.898 116h.116c17.079-.014 33.989-7.537 45.427-21.956 19.908-25.096 15.703-61.578-9.393-81.485C83.404 4.115 70.713.009 58.106-.005h-.114z" mask="url(#mkhhtbruvc)"/>
                </g>
                <g>
                    <path fill="#F5F3F2" d="M94.299 34.303c.425-.32.578-.746.79-1.124 2.033-3.62 4.053-7.246 6.084-10.867.724-1.293 2.253-2.052 3.717-1.867.993.126 1.196.368 1.198 1.539.005 4.316-.002 8.632.004 12.948.003 1.878.03 3.756.042 5.634.002.359-.001.72-.036 1.077-.054.556-.342.867-.941.853-.718-.015-1.438.013-2.157-.007-1.052-.03-1.136-.117-1.138-1.212-.004-2.758.006-5.515-.001-8.272 0-.298.135-.63-.171-.943-.411.159-.53.564-.724.876-1.716 2.74-3.414 5.494-5.126 8.238-1.214 1.944-1.932 1.953-3.132.03-1.586-2.54-3.153-5.091-4.74-7.632-.325-.522-.611-1.092-1.175-1.457-.302.434-.173.84-.177 1.22-.024 2.437-.027 4.875-.042 7.313-.001.279-.006.562-.05.837-.125.797-.46 1.135-1.257 1.17-.555.026-1.12-.021-1.671-.094-1.268-.168-1.343-.254-1.344-1.488-.001-1.798.01-3.596.03-5.394.05-4.554.11-9.108.159-13.662.013-1.29.15-1.44 1.445-1.447 2.373-.014 2.37-.012 3.536 2.03 2.018 3.537 4.037 7.073 6.063 10.606.213.372.35.807.814 1.095" transform="translate(-72 -32) translate(72 32) translate(59 24.005)"/>
                    <path fill="#DE552D" d="M118.31 39.864c1.424.02 2.496-.982 2.498-2.332 0-1.305-1.152-2.482-2.43-2.483-1.33 0-2.392 1.1-2.395 2.48-.002 1.39.921 2.316 2.326 2.335m5.686-14.266c.012-1.407-.99-2.473-2.343-2.487-1.288-.013-2.472 1.131-2.49 2.41-.019 1.276 1.112 2.435 2.42 2.48 1.348.046 2.398-1 2.413-2.403m-9.99 1.926c-1.407-.002-2.471 1.024-2.46 2.374.01 1.314 1.138 2.436 2.454 2.443 1.313.007 2.444-1.11 2.459-2.43.017-1.337-1.061-2.385-2.453-2.387m14.39 5.613c-.016-1.37-1.109-2.447-2.452-2.414-1.308.032-2.444 1.2-2.422 2.487.02 1.256 1.248 2.467 2.49 2.458 1.27-.008 2.398-1.204 2.383-2.53m2.999-1.446c-.031 6.152-5.133 11.12-11.442 11.138-6.448.02-11.363-5-11.338-11.56.022-5.743 4.8-11.048 11.412-11.033 7.013.015 11.468 5.75 11.368 11.455" transform="translate(-72 -32) translate(72 32) translate(59 24.005)"/>
                    <path fill="#F5F3F2" d="M43.019 73.087c-2.024-2.316-4.228-4.461-6.336-6.698-.876-.93-1.764-1.849-2.647-2.773-.163-.172-.335-.423-.578-.353-.34.098-.262.443-.262.715l.013 9.946c0 .32.01.64-.003.959-.045 1.07-.311 1.334-1.365 1.376-2.572.103-2.847-.131-2.856-2.688-.019-5.992-.014-11.984-.016-17.976-.001-.815.237-1.06 1.036-1.122.753-.059 1.268.33 1.759.846 3.66 3.85 7.332 7.687 11.003 11.526.273.284.499.624.865.796.314-.096.301-.355.301-.588-.008-3.394-.007-6.788-.036-10.182-.019-2.147.075-2.264 2.18-2.214.279.006.561.001.837.036.753.095 1.05.365 1.162 1.131.063.432.049.876.052 1.315.022 2.995.04 5.99.058 8.984-.014 2.912-.039 5.825-.039 8.738 0 1.219-.652 1.702-1.815 1.293-.426-.15-.749-.44-1.057-.76-.745-.776-1.503-1.539-2.256-2.307M40.241 37.385c-.324-.812-.73-1.602-.958-2.44-1.257-4.667-.236-8.765 3.47-11.924 3.694-3.15 7.885-3.558 12.314-1.598.254.112.506.23.758.343.963.687 1.93 1.37 2.716 2.267.817.932.823 1.097-.019 1.94-.528.53-1.07 1.043-1.605 1.564-.716.183-1.194-.102-1.632-.68-1.6-2.12-4.319-2.983-6.959-2.266-3.115.847-5.222 3.595-5.296 6.91-.072 3.195 2.063 6.132 5.128 7.055 2.641.795 5.438-.249 6.897-2.577.214-.342.444-.698.185-1.107-.235-.369-.622-.274-.98-.267-.598.012-1.198.02-1.796-.002-1.996-.073-2.346-.492-2.13-2.513.143-1.335.287-1.469 1.635-1.476 1.757-.01 3.515-.014 5.272-.02.554.132 1.113.018 1.67.027 1.047.018 1.271.213 1.267 1.274-.01 2.968-.783 5.673-2.832 7.917-.106.117-.19.254-.284.382-1.886 1.577-4.026 2.581-6.5 2.711-3.67.191-6.68-1.212-9.094-3.94-.44-.498-.82-1.052-1.227-1.58M73.257 34.983c-.917-2.285-1.82-4.4-2.866-6.681l-2.653 5.791c-.05.108-.106.216-.135.331-.083.322-.02.56.377.56h5.277m4.495 7.673c-.716.056-1.21-.303-1.573-.883-.257-.41-.375-.874-.526-1.33-.373-1.117-.965-1.602-2.121-1.574-2.317.056-4.632.044-6.95.016-.852-.012-1.2.21-1.384 1.033-.595 2.674-2.694 3.056-4.684 2.594-.88-.206-.96-.31-.62-1.111.372-.882.793-1.744 1.196-2.611 2.88-6.185 5.764-12.37 8.637-18.557.157-.34.29-.7.712-.71.484-.014.625.384.795.764 3.083 6.883 6.175 13.76 9.265 20.638.098.218.2.438.267.666.2.678.09.858-.627.922-.793.072-1.591.097-2.387.143M51.911 59.67c.014-1.148.032-2.296.04-3.444.01-1.423.114-1.531 1.564-1.568.158-.004.315-.026.472-.04 2.874.127 5.75.03 8.625.048.28 0 .56-.008.838.006.525.026.815.32.824.836.013.678-.004 1.357-.028 2.036-.023.67-.397 1.014-1.058 1.058-.517.033-1.035.089-1.553.09-1.478.003-2.956-.025-4.434-.025-.86 0-1.076.186-1.104 1.039-.098 2.949.255 2.7 2.586 2.768 1.398.04 2.797-.006 4.195.004.956.006 1.117.144 1.227 1.073.061.514.092 1.038.066 1.554-.048.963-.353 1.295-1.323 1.328-1.477.05-2.956.032-4.434.039-.44.002-.879-.022-1.318-.006-.804.032-.965.18-.98 1.015-.024 1.238-.02 2.477-.002 3.714.013.87.171 1.023 1.082 1.029 1.918.01 3.836-.007 5.754 0 1.181.006 1.318.145 1.344 1.296.011.479.017.96-.019 1.437-.067.872-.283 1.1-1.16 1.234-.354.054-.717.049-1.076.05-2.837.01-5.673.017-8.51.02-1.368.003-1.58-.206-1.58-1.61.001-4.555.012-9.11.015-13.666 0-.44-.034-.877-.053-1.315" transform="translate(-72 -32) translate(72 32) translate(59 24.005)"/>
                    <g transform="translate(-72 -32) translate(72 32) translate(59 24.005) translate(133 19)">
                        <mask id="c710qmhywe" fill="#fff">
                            <use xlink:href="#1echw3kxsd"/>
                        </mask>
                        <path fill="#F5F3F2" d="M14.776 16.19c-.004 3.996-2.762 6.965-6.84 7.183-4.212.225-6.906-2.532-7.448-5.843-.173-1.058-.049-1.25 1.004-1.482.584-.128 1.17-.26 1.761-.34.835-.11 1.034.022 1.361.815.152.368.25.76.407 1.124.492 1.145 1.517 1.768 2.762 1.7 1.185-.066 2.188-.8 2.55-1.866.407-1.208.043-2.418-.967-3.213-.636-.5-1.379-.799-2.115-1.105-1.067-.446-2.16-.842-3.129-1.488-1.733-1.154-2.797-2.722-2.829-4.859-.04-2.613 1.808-4.903 4.59-5.749C8.738.2 11.945 1.29 13.64 3.702c.776 1.105.721 1.362-.423 2.04-.275.163-.537.346-.807.516-1.087.685-1.548.61-2.33-.377-.862-1.088-2.046-1.357-3.286-.748-1.483.728-1.622 2.161-.288 3.113.688.49 1.501.737 2.27 1.066 1.137.486 2.293.936 3.3 1.68 1.747 1.291 2.737 2.977 2.7 5.197" mask="url(#c710qmhywe)"/>
                    </g>
                    <path fill="#F5F3F2" d="M106.945 16.677c.025 1.76-1.376 3.208-3.133 3.242-1.741.032-3.235-1.39-3.277-3.12-.04-1.693 1.452-3.233 3.159-3.26 1.745-.028 3.227 1.403 3.25 3.138M84.343 13.537c1.742-.01 3.204 1.431 3.214 3.174.012 1.755-1.407 3.192-3.165 3.208-1.761.016-3.2-1.395-3.213-3.154-.013-1.735 1.439-3.217 3.164-3.228M28.746 28.332c-.995 2.152-1.88 4.052-2.749 5.96-.228.5.109.662.517.666 1.437.018 2.874.014 4.312.009.47-.002.684-.257.496-.698-.806-1.894-1.636-3.777-2.576-5.937m6.88-27.053c.171.167.333.344.512.5 1.658 1.462 1.91 3.233 1.127 5.212-.293.74-.658 1.45-.991 2.176.041.058.07.149.125.17 1.572.598 1.587.615 1.613 2.325.008.543.001 1.085.001 1.89 1.008-.808 1.806-1.444 2.598-2.086.558-.452 1.095-.932 1.666-1.367.437-.334.719-.184.781.379.012.118-.007.24-.007.359l-.003 8.627c0 .119.023.242.007.359-.073.533-.375.67-.821.324-.883-.685-1.738-1.405-2.605-2.111-.279-.227-.546-.47-.838-.678-.559-.398-.712-.317-.78.404-.052.556-.064 1.117-.135 1.67-.12.942-.319 1.205-1.271 1.268-1.432.095-2.871.082-4.307.105-.439.007-.878-.031-1.317-.022-.912.017-1.035.216-.705 1.1.028.076.065.147.098.22 2.317 5.127 4.634 10.255 6.953 15.38.032.072.088.133.133.198.496 1.148.992 2.296 1.486 3.444.434 1.008.329 1.2-.787 1.377-.505.08-1.016.12-1.524.179-1.575-.291-2.549-1.173-2.897-2.78-.18-.821-.509-1.036-1.368-1.042-2.476-.02-4.952.008-7.427-.007-.74-.005-1.184.32-1.468.988-.25.586-.555 1.149-.866 1.706-.263.472-.658.82-1.211.89-.914.117-1.834.08-2.75.01-.441-.033-.651-.315-.528-.745.108-.38.271-.748.438-1.108 2.828-6.08 5.662-12.157 8.491-18.236.712-1.531.703-1.552-.978-1.551-1.995.002-3.991.027-5.987.043-.16-.065-.319-.065-.48-.001-.304-.185-.731-.12-.955-.47.325-1.866.137-3.742.091-5.613-.036-1.482.036-2.957.152-4.43.061-.763-.098-1.36-.599-1.968-1.712-2.073-1.122-4.863.173-6.391 1.147-1.355 4.241-2.188 6.459-.608 2.054 1.463 2.712 4.03 1.541 6.267-.276.526-.654.998-.984 1.496.689.313 2.49.376 4.049.137-.014-.393-.329-.616-.518-.898-1.418-2.114-1.353-4.423.168-6.2C30.366.789 32.909-.22 35.293 1.148c.102.06.222.089.333.132M1.036 36.676c.08-.95.072-1.903 0-2.854.138-1.555.05-3.114.06-4.67.016-2.559.013-5.117-.01-7.675-.006-.612.201-.822.826-.84 2.108-.058 2.535.316 2.556 2.452.015 1.52-.01 3.038.005 4.557.01 1.036.086 1.12 1.07 1.128 1.88.017 3.757.02 5.635.005.934-.007 1.045-.112 1.055-1.03.02-1.799.005-3.597.005-5.396.001-1.512.185-1.687 1.738-1.697.518-.002 1.035-.036 1.553-.056 1.001.127 1.008.54 1.008 1.302-.005 6.337-.002 12.674-.01 19.011 0 1.265-.07 1.337-1.225 1.653-.726-.15-1.456-.1-2.186-.044-.7-.04-.909-.41-.898-1.099.035-2.275.007-4.55.004-6.825 0-.279.012-.56-.006-.839-.05-.77-.163-.906-.933-.916-1.476-.018-2.953-.012-4.429.005-2.63.03-2.37-.367-2.368 2.345.002 1.956.013 3.912-.003 5.868-.009 1.25-.23 1.448-1.48 1.443-1.925-.008-1.922-.008-1.926-1.965 0-.558-.027-1.116-.04-1.674.098-.73.096-1.459 0-2.189M18.045 70.566c.308 1.26.122 2.535.057 3.799-.035.68-.608.972-1.184 1.21-1.833.754-3.725 1.153-5.715 1.01-.397-.028-.796-.041-1.193-.061-1.525-.472-3.044-.94-4.371-1.887C1.856 71.933.505 68.26 1.036 63.709c.295-2.526 1.52-4.516 3.145-6.31 1.478-1.63 3.463-2.42 5.564-2.888 2.459-.548 4.838-.227 7.14.787.91.4 1.396.985 1.295 2.033-.07.713.002 1.439-.023 2.157-.036 1.027-.358 1.182-1.261.629-.375-.23-.734-.484-1.111-.71-2.26-1.358-4.606-1.597-6.945-.3-2.385 1.326-3.636 3.416-3.691 6.168-.076 3.732 2.242 6.675 5.81 7.257 2.107.343 4.035-.13 5.58-1.732.428-.442.946-.527 1.506-.234M21.457 72.194c.064-.635.066-1.269-.001-1.904.092-.804.094-1.609-.005-2.413.066-.715.066-1.429-.004-2.142.097-.566.097-1.132.002-1.699.067-.953.072-1.907-.002-2.861.137-1.619.035-3.242.06-4.863.022-1.462.213-1.664 1.637-1.657.356.002.712.028 1.068.024.71-.008 1.227.258 1.446.973l.041 2.14c-.086.329-.086.659.001.988-.018 2.639-.046 5.276-.05 7.914-.004 2.599.017 5.198.024 7.797.001.319-.009.639-.029.958-.03.473-.317.76-.76.778-.877.034-1.758.027-2.636-.012-.522-.023-.757-.361-.752-.889.006-.719-.016-1.438-.025-2.156.088-.327.081-.652-.015-.976M20.42 50.99c-.002-1.023.217-1.935 1.101-2.603.701-.53 1.453-.82 2.328-.755 1.723.13 3.028 1.626 2.916 3.327-.113 1.7-1.64 3.06-3.314 2.948-1.587-.105-3.126-1.587-3.032-2.917" transform="translate(-72 -32) translate(72 32) translate(59 24.005)"/>
                    <path fill="#191824" d="M128.394 33.137c.014 1.327-1.113 2.523-2.383 2.531-1.242.01-2.47-1.202-2.49-2.458-.022-1.288 1.114-2.455 2.422-2.487 1.344-.033 2.437 1.044 2.451 2.414M114.005 27.524c1.391.002 2.47 1.051 2.453 2.387-.016 1.319-1.147 2.437-2.459 2.43-1.317-.006-2.444-1.129-2.455-2.442-.01-1.351 1.053-2.377 2.461-2.375M123.994 25.598c-.014 1.402-1.065 2.45-2.413 2.403-1.307-.045-2.438-1.204-2.419-2.48.02-1.279 1.202-2.423 2.491-2.41 1.351.014 2.355 1.08 2.341 2.487M118.31 39.864c-1.406-.019-2.329-.946-2.327-2.336.002-1.379 1.066-2.48 2.394-2.479 1.28.001 2.43 1.178 2.43 2.483 0 1.35-1.073 2.351-2.498 2.332" transform="translate(-72 -32) translate(72 32) translate(59 24.005)"/>
                </g>
            </g>
        </g>
    </g>
</svg>
