<svg xmlns="http://www.w3.org/2000/svg" xmlns:xlink="http://www.w3.org/1999/xlink" width="243" height="50" viewBox="0 0 243 50">
    <defs>
        <path id="laqfyw7a9a" d="M0.832 0.35L25.031 0.35 25.031 26 0.832 26z"/>
        <path id="ptcy8940ac" d="M0.001 0.928L14.162 0.928 14.162 25.394 0.001 25.394z"/>
        <path id="q3j9zxl5ae" d="M0.221 0.642L28.918 0.642 28.918 47.73 0.221 47.73z"/>
    </defs>
    <g fill="none" fill-rule="evenodd">
        <g>
            <g>
                <path fill="#ED6B45" d="M25.765 7.518c-.009.114-.056.224-.18.24-.232.03-.35-.107-.35-.326.002-.125.1-.201.23-.193.168.01.273.1.3.279" transform="translate(-519 -40) translate(519 40)"/>
                <path fill="#DE552D" d="M104.61 39.355c.446-.33.605-.77.827-1.161 2.129-3.743 4.243-7.492 6.368-11.236.759-1.336 2.359-2.121 3.893-1.93 1.039.13 1.251.38 1.253 1.591.006 4.463-.002 8.924.005 13.387.002 1.942.031 3.883.044 5.825 0 .37-.001.744-.037 1.113-.058.574-.36.896-.986.883-.752-.017-1.506.012-2.258-.008-1.101-.03-1.19-.121-1.191-1.254-.005-2.85.005-5.7-.002-8.552 0-.307.141-.65-.179-.975-.429.165-.554.583-.758.906-1.796 2.834-3.573 5.681-5.366 8.518-1.271 2.01-2.021 2.018-3.277.03-1.66-2.625-3.301-5.263-4.962-7.89-.341-.54-.64-1.13-1.23-1.506-.317.448-.182.868-.186 1.26-.024 2.52-.029 5.04-.044 7.562-.002.287-.006.58-.052.865-.132.824-.481 1.174-1.316 1.21-.582.026-1.172-.022-1.75-.098-1.327-.174-1.405-.262-1.406-1.537-.002-1.86.012-3.72.032-5.578.052-4.708.115-9.416.165-14.125.014-1.333.159-1.488 1.514-1.496 2.483-.014 2.48-.012 3.7 2.099 2.113 3.657 4.227 7.314 6.347 10.965.223.385.367.836.852 1.132M130.64 44.718c1.563.021 2.74-1.087 2.742-2.58 0-1.445-1.263-2.747-2.667-2.748-1.458-.001-2.625 1.217-2.627 2.743-.002 1.538 1.01 2.564 2.553 2.585m6.238-15.786c.015-1.557-1.086-2.736-2.57-2.752-1.414-.014-2.712 1.252-2.732 2.666-.021 1.413 1.22 2.695 2.654 2.745 1.48.051 2.632-1.107 2.648-2.659m-10.962 2.131c-1.545-.002-2.712 1.133-2.7 2.627.012 1.454 1.249 2.696 2.694 2.704 1.44.007 2.68-1.23 2.697-2.69.019-1.479-1.164-2.638-2.69-2.64m15.79 6.21c-.016-1.516-1.216-2.707-2.69-2.67-1.435.035-2.683 1.326-2.659 2.751.023 1.39 1.37 2.73 2.734 2.72 1.394-.009 2.63-1.332 2.615-2.8m3.29-1.6c-.034 6.808-5.633 12.304-12.555 12.325-7.078.022-12.471-5.533-12.443-12.792.024-6.354 5.267-12.225 12.524-12.208 7.696.017 12.584 6.361 12.474 12.675" transform="translate(-519 -40) translate(519 40)"/>
                <path fill="#FFF" d="M218.354 44.471c-2.212-2.546-4.62-4.904-6.924-7.364-.958-1.022-1.928-2.033-2.893-3.048-.178-.188-.366-.465-.631-.389-.372.108-.287.488-.287.787l.014 10.935c0 .351.011.703-.003 1.054-.05 1.176-.34 1.466-1.492 1.513-2.81.113-3.11-.144-3.12-2.956-.021-6.587-.016-13.175-.018-19.763-.001-.896.259-1.165 1.132-1.234.823-.064 1.386.364 1.922.93 4 4.233 8.013 8.452 12.024 12.673.299.313.546.686.945.875.344-.106.33-.39.33-.647-.01-3.731-.008-7.463-.04-11.194-.02-2.36.082-2.49 2.382-2.434.305.007.613.002.915.04.823.104 1.147.4 1.27 1.243.069.475.053.963.057 1.446.024 3.292.043 6.585.063 9.877-.015 3.201-.043 6.404-.043 9.607 0 1.34-.712 1.87-1.983 1.421-.466-.165-.819-.484-1.155-.835-.814-.853-1.643-1.692-2.465-2.537" transform="translate(-519 -40) translate(519 40)"/>
                <g transform="translate(-519 -40) translate(519 40) translate(41 23)">
                    <mask id="wrno2qw8ub" fill="#fff">
                        <use xlink:href="#laqfyw7a9a"/>
                    </mask>
                    <path fill="#FFF" d="M2.493 19.741c-.366-.918-.826-1.81-1.083-2.758-1.42-5.276-.266-9.908 3.922-13.48C9.509-.057 14.247-.518 19.253 1.698c.287.127.572.259.857.388 1.089.776 2.18 1.547 3.07 2.563.924 1.053.93 1.24-.021 2.193-.597.598-1.21 1.179-1.814 1.768-.81.206-1.35-.116-1.845-.77-1.81-2.396-4.883-3.371-7.867-2.56-3.521.957-5.903 4.063-5.987 7.81-.081 3.612 2.332 6.932 5.797 7.976 2.986.899 6.147-.282 7.797-2.913.242-.387.502-.79.209-1.252-.266-.417-.703-.31-1.108-.301-.676.013-1.354.022-2.03-.003-2.257-.082-2.652-.556-2.408-2.84.162-1.51.324-1.661 1.848-1.67 1.986-.011 3.974-.015 5.96-.022.626.15 1.258.02 1.886.03 1.185.021 1.438.242 1.434 1.441-.013 3.355-.885 6.413-3.202 8.95-.12.132-.214.287-.32.432-2.133 1.782-4.552 2.917-7.35 3.064-4.148.216-7.55-1.37-10.279-4.454-.498-.563-.927-1.189-1.387-1.786" mask="url(#wrno2qw8ub)"/>
                </g>
                <path fill="#FFF" d="M80.377 39.358c-1.04-2.566-2.064-4.94-3.253-7.502-1.09 2.352-2.05 4.427-3.01 6.503-.058.121-.121.243-.154.372-.094.361-.023.627.428.627h5.989m5.102 8.617c-.813.061-1.374-.342-1.786-.993-.291-.46-.425-.981-.597-1.493-.423-1.254-1.095-1.798-2.407-1.766-2.63.063-5.257.049-7.887.016-.968-.012-1.363.237-1.572 1.161-.675 3.002-3.057 3.432-5.316 2.912-.997-.23-1.088-.347-.703-1.248.422-.989.9-1.957 1.357-2.931 3.27-6.945 6.542-13.888 9.803-20.835.178-.381.33-.786.808-.798.549-.014.709.433.902.858 3.499 7.728 7.008 15.45 10.515 23.173.111.245.227.49.303.747.227.76.104.963-.711 1.036-.9.08-1.806.109-2.71.16" transform="translate(-519 -40) translate(519 40)"/>
                <g transform="translate(-519 -40) translate(519 40) translate(228 23)">
                    <mask id="aubdcmykrd" fill="#fff">
                        <use xlink:href="#ptcy8940ac"/>
                    </mask>
                    <path fill="#FFF" d="M0 6.637C.018 5.34.038 4.042.048 2.744c.01-1.608.13-1.73 1.787-1.772.18-.005.36-.03.54-.044 3.284.142 6.57.033 9.857.053.318 0 .638-.01.957.006.6.03.932.362.942.945.015.767-.005 1.534-.032 2.302-.026.759-.454 1.146-1.21 1.196-.59.037-1.182.1-1.774.102-1.69.003-3.378-.028-5.067-.028-.984-.002-1.23.21-1.262 1.174-.112 3.334.291 3.052 2.955 3.13 1.598.045 3.197-.008 4.795.004 1.092.006 1.276.162 1.402 1.213.07.58.105 1.173.075 1.756-.055 1.089-.403 1.464-1.512 1.501-1.688.058-3.378.036-5.067.045-.503.002-1.005-.025-1.506-.007-.92.035-1.103.203-1.122 1.147-.026 1.4-.021 2.8 0 4.199.014.984.195 1.156 1.236 1.163 2.192.012 4.384-.008 6.576.001 1.35.006 1.506.163 1.536 1.464.012.541.02 1.085-.022 1.624-.076.986-.323 1.245-1.327 1.395-.403.061-.818.056-1.228.057-3.243.012-6.484.019-9.726.024-1.563.002-1.807-.234-1.806-1.822.001-5.149.014-10.299.017-15.448 0-.496-.038-.992-.06-1.487" mask="url(#aubdcmykrd)"/>
                </g>
                <path fill="#FFF" d="M163.999 40.044c-.005 4.419-3.079 7.7-7.625 7.942-4.695.249-7.698-2.8-8.302-6.46-.193-1.17-.055-1.383 1.12-1.638.65-.141 1.302-.289 1.962-.376.93-.121 1.153.024 1.517.901.17.407.279.84.454 1.243.548 1.265 1.69 1.954 3.079 1.878 1.32-.072 2.439-.883 2.841-2.062.455-1.335.05-2.673-1.077-3.552-.709-.554-1.537-.883-2.357-1.221-1.19-.493-2.408-.931-3.488-1.645-1.932-1.276-3.118-3.01-3.154-5.372-.044-2.889 2.016-5.42 5.117-6.355 3.182-.959 6.757.246 8.647 2.913.865 1.221.803 1.505-.472 2.255-.306.18-.599.382-.9.57-1.211.757-1.725.675-2.597-.417-.96-1.202-2.28-1.5-3.663-.827-1.653.805-1.808 2.39-.32 3.442.766.542 1.672.815 2.53 1.178 1.267.538 2.556 1.035 3.677 1.857 1.949 1.428 3.052 3.292 3.01 5.746" transform="translate(-519 -40) translate(519 40)"/>
                <path fill="#DE552D" d="M118 19.443c.027 1.93-1.503 3.52-3.421 3.556-1.901.036-3.532-1.524-3.578-3.422-.044-1.858 1.585-3.547 3.449-3.577 1.905-.03 3.523 1.54 3.55 3.443M92.473 16c1.911-.012 3.516 1.57 3.527 3.481.013 1.925-1.544 3.501-3.474 3.519-1.932.017-3.51-1.53-3.526-3.46-.014-1.902 1.58-3.528 3.473-3.54" transform="translate(-519 -40) translate(519 40)"/>
                <g transform="translate(-519 -40) translate(519 40) translate(18)">
                    <mask id="2if5y7tmef" fill="#fff">
                        <use xlink:href="#q3j9zxl5ae"/>
                    </mask>
                    <path fill="#DE552D" d="M13.012 31.713c-1.106 2.402-2.09 4.523-3.055 6.653-.253.558.121.739.575.743 1.596.02 3.193.016 4.79.01.523-.002.76-.286.552-.779-.896-2.114-1.818-4.216-2.862-6.627m7.644-30.199c.19.187.37.384.57.56 1.841 1.63 2.121 3.607 1.251 5.816-.325.826-.73 1.62-1.1 2.43.045.064.077.166.138.19 1.747.667 1.763.686 1.792 2.595.01.606.001 1.21.001 2.11 1.12-.903 2.007-1.613 2.887-2.33.62-.504 1.217-1.04 1.851-1.525.486-.373.8-.206.868.423.013.132-.008.268-.008.4 0 3.211-.002 6.42-.003 9.63 0 .134.025.27.008.402-.081.594-.417.749-.913.361-.98-.764-1.93-1.568-2.894-2.356-.31-.254-.607-.525-.931-.757-.621-.444-.791-.354-.867.45-.058.622-.07 1.248-.15 1.866-.133 1.05-.354 1.344-1.412 1.414-1.591.107-3.19.092-4.786.118-.487.008-.975-.035-1.463-.025-1.013.02-1.15.241-.783 1.23.03.083.072.162.109.244 2.574 5.723 5.149 11.447 7.725 17.17.036.078.098.146.148.219.551 1.282 1.102 2.563 1.651 3.844.482 1.126.366 1.34-.874 1.538-.561.089-1.13.135-1.694.2-1.75-.325-2.832-1.31-3.219-3.103-.2-.917-.565-1.157-1.52-1.164-2.75-.021-5.502.009-8.252-.008-.822-.005-1.315.357-1.63 1.103-.279.654-.618 1.283-.963 1.904-.292.527-.731.917-1.346.995-1.015.13-2.037.09-3.055.011-.49-.038-.724-.353-.587-.833.12-.424.301-.835.487-1.236 3.142-6.787 6.29-13.571 9.434-20.357.791-1.709.781-1.732-1.086-1.731-2.217.002-4.435.03-6.653.048-.177-.073-.354-.073-.533-.001-.338-.207-.812-.134-1.061-.525.361-2.083.152-4.177.101-6.266-.04-1.654.04-3.3.169-4.944.068-.852-.109-1.519-.666-2.198C-.505 7.112.151 3.998 1.59 2.292 2.864.78 6.302-.15 8.766 1.614c2.282 1.633 3.014 4.498 1.712 6.995-.306.587-.726 1.114-1.093 1.67.766.35 2.767.42 4.499.153-.016-.439-.366-.687-.576-1.002-1.575-2.36-1.503-4.938.187-6.92 1.317-1.544 4.142-2.67 6.791-1.143.114.067.247.1.37.147" mask="url(#2if5y7tmef)"/>
                </g>
                <path fill="#FFF" d="M0 41.565c.087-1.04.079-2.08 0-3.119.151-1.699.055-3.402.066-5.103.017-2.795.014-5.59-.011-8.385-.007-.668.22-.898.906-.918 2.312-.063 2.78.346 2.803 2.68.016 1.66-.011 3.319.005 4.978.011 1.132.095 1.223 1.174 1.233 2.06.018 4.12.022 6.18.005 1.024-.007 1.146-.122 1.157-1.125.022-1.966.005-3.93.005-5.896.001-1.652.203-1.843 1.906-1.854.568-.002 1.135-.04 1.704-.061 1.097.139 1.105.59 1.105 1.423-.005 6.923-.002 13.847-.011 20.77-.001 1.383-.077 1.462-1.343 1.807-.797-.164-1.597-.11-2.398-.048-.768-.044-.997-.448-.985-1.2.039-2.486.008-4.972.005-7.458 0-.305.013-.612-.007-.917-.056-.842-.179-.99-1.023-1-1.619-.02-3.239-.013-4.857.005-2.885.033-2.6-.4-2.597 2.562.002 2.137.014 4.275-.004 6.412-.01 1.364-.253 1.582-1.623 1.576-2.11-.008-2.108-.008-2.112-2.147-.001-.61-.03-1.219-.045-1.829.109-.797.106-1.594 0-2.391M190.81 41.24c.34 1.41.135 2.834.063 4.247-.038.76-.668 1.086-1.3 1.352-2.015.843-4.093 1.289-6.28 1.129-.436-.031-.875-.046-1.31-.07-1.676-.526-3.345-1.048-4.804-2.108-4.156-3.022-5.64-7.126-5.057-12.213.324-2.824 1.67-5.048 3.455-7.053 1.624-1.823 3.805-2.705 6.114-3.228 2.702-.612 5.316-.254 7.845.88 1 .448 1.534 1.1 1.423 2.272-.076.797.002 1.607-.025 2.41-.04 1.149-.394 1.322-1.386.704-.412-.256-.806-.541-1.22-.794-2.484-1.517-5.061-1.785-7.631-.334-2.621 1.481-3.996 3.817-4.056 6.892-.083 4.172 2.463 7.461 6.385 8.11 2.314.385 4.432-.142 6.131-1.934.47-.494 1.038-.59 1.654-.261" transform="translate(-519 -40) translate(519 40)"/>
                <path fill="#DE552D" d="M194.012 43.493c.075-.705.077-1.41-.001-2.116.108-.893.11-1.788-.006-2.682.077-.794.077-1.588-.005-2.38.114-.63.114-1.258.002-1.889.08-1.059.085-2.12-.002-3.18.161-1.799.041-3.603.07-5.404.026-1.625.251-1.85 1.925-1.842.419.002.837.031 1.256.027.834-.009 1.442.287 1.7 1.081l.048 2.379c-.101.366-.101.732.001 1.098-.021 2.933-.054 5.864-.059 8.796-.004 2.888.02 5.777.028 8.665.002.355-.01.71-.034 1.065-.035.526-.372.845-.893.865-1.031.038-2.067.03-3.1-.014-.613-.025-.89-.4-.883-.988.007-.799-.019-1.598-.03-2.396.104-.363.096-.725-.017-1.085M193.005 19.747c-.002-1.138.24-2.153 1.213-2.897.772-.59 1.6-.913 2.564-.84 1.897.145 3.334 1.81 3.21 3.702-.124 1.892-1.806 3.404-3.649 3.28-1.747-.116-3.442-1.765-3.338-3.245" transform="translate(-519 -40) translate(519 40)"/>
            </g>
        </g>
    </g>
</svg>
